<svg width="796" height="224" viewBox="0 0 796 224" fill="none" xmlns="http://www.w3.org/2000/svg">
<path d="M22.9141 114.859V110.383L2.75781 122.266V125.734L22.9141 137.617V133.141L6.78906 124.211V123.789L22.9141 114.859ZM42.9531 107.336C43.8906 107.336 44.6719 107.023 45.2969 106.398C45.9375 105.773 46.2578 104.992 46.2578 104.055C46.2578 103.133 45.9375 102.359 45.2969 101.734C44.6719 101.109 43.8906 100.797 42.9531 100.797C42.0156 100.797 41.2266 101.109 40.5859 101.734C39.9609 102.359 39.6484 103.133 39.6484 104.055C39.6484 104.992 39.9609 105.773 40.5859 106.398C41.2266 107.023 42.0156 107.336 42.9531 107.336ZM53.6172 139V135.695H45.2031V113.57H32.6172V116.875H41.2656V135.695H32.5469V139H53.6172ZM84.4375 120.273C84.4375 117.914 83.9844 116.133 83.0781 114.93C82.1719 113.711 80.8281 113.102 79.0469 113.102C77.7656 113.102 76.6484 113.461 75.6953 114.18C74.7578 114.898 74.125 115.867 73.7969 117.086H73.375C73.1094 115.82 72.5703 114.844 71.7578 114.156C70.9453 113.453 69.9453 113.102 68.7578 113.102C67.5703 113.102 66.5391 113.461 65.6641 114.18C64.8047 114.883 64.2188 115.875 63.9062 117.156H63.4844V113.57H59.9219V139H63.5078V121.844C63.5078 120.266 63.8359 119.023 64.4922 118.117C65.1484 117.195 66.0391 116.734 67.1641 116.734C68.2422 116.734 69.0547 117.133 69.6016 117.93C70.1641 118.711 70.4453 119.875 70.4453 121.422V139H74.0078V121.844C74.0078 120.25 74.3281 119 74.9688 118.094C75.6094 117.188 76.4844 116.734 77.5938 116.734C78.6562 116.734 79.4609 117.133 80.0078 117.93C80.5703 118.727 80.8516 119.898 80.8516 121.445V139H84.4375V120.273ZM94.2812 127.914V124.422C94.2812 122.094 94.9062 120.234 96.1562 118.844C97.4219 117.438 99.1094 116.734 101.219 116.734C103.312 116.734 104.984 117.438 106.234 118.844C107.484 120.234 108.109 122.094 108.109 124.422V127.914C108.109 130.258 107.484 132.133 106.234 133.539C104.984 134.93 103.312 135.625 101.219 135.625C99.1094 135.625 97.4219 134.922 96.1562 133.516C94.9062 132.109 94.2812 130.242 94.2812 127.914ZM101.102 148.539C103.414 148.539 105.383 148.156 107.008 147.391C108.648 146.641 109.898 145.547 110.758 144.109C111.633 142.688 112.07 140.984 112.07 139V113.57H108.133V117.508H107.688C107.141 116.133 106.203 115.062 104.875 114.297C103.547 113.531 101.961 113.148 100.117 113.148C98.1328 113.148 96.3984 113.594 94.9141 114.484C93.4453 115.359 92.3047 116.609 91.4922 118.234C90.6797 119.844 90.2734 121.734 90.2734 123.906V128.477C90.2734 130.633 90.6797 132.523 91.4922 134.148C92.3047 135.773 93.4375 137.031 94.8906 137.922C96.3594 138.797 98.0703 139.234 100.023 139.234C101.867 139.234 103.461 138.852 104.805 138.086C106.148 137.32 107.102 136.273 107.664 134.945H108.086V138.906C108.086 140.938 107.492 142.5 106.305 143.594C105.117 144.688 103.406 145.234 101.172 145.234C99.4688 145.234 98.0312 144.914 96.8594 144.273C95.6875 143.633 94.9688 142.789 94.7031 141.742H90.7656C91.0312 143.852 92.0859 145.508 93.9297 146.711C95.7734 147.93 98.1641 148.539 101.102 148.539ZM655.539 114.859V110.383L675.695 122.266V125.734L655.539 137.617V133.141L671.664 124.211V123.789L655.539 114.859Z" fill="#FFA11F"/>
<path d="M151.938 120.438C151.938 124.031 154.227 126.359 158.805 127.422L162.578 128.289C164.188 128.648 165.336 129.125 166.023 129.719C166.711 130.297 167.055 131.094 167.055 132.109C167.055 133.328 166.539 134.305 165.508 135.039C164.492 135.758 163.117 136.117 161.383 136.117C159.742 136.117 158.383 135.797 157.305 135.156C156.242 134.5 155.562 133.586 155.266 132.414H151.211C151.43 134.602 152.438 136.328 154.234 137.594C156.031 138.844 158.367 139.469 161.242 139.469C164.258 139.469 166.664 138.766 168.461 137.359C170.273 135.953 171.18 134.078 171.18 131.734C171.18 129.891 170.594 128.414 169.422 127.305C168.266 126.18 166.453 125.336 163.984 124.773L160.398 123.953C158.805 123.594 157.656 123.125 156.953 122.547C156.25 121.953 155.898 121.172 155.898 120.203C155.898 119.047 156.383 118.125 157.352 117.438C158.32 116.734 159.609 116.383 161.219 116.383C162.703 116.383 163.945 116.703 164.945 117.344C165.945 117.984 166.562 118.859 166.797 119.969H170.641C170.406 117.844 169.453 116.164 167.781 114.93C166.109 113.695 163.945 113.078 161.289 113.078C158.492 113.078 156.234 113.75 154.516 115.094C152.797 116.438 151.938 118.219 151.938 120.438ZM189.859 127.609C189.859 124.375 190.648 121.844 192.227 120.016C193.805 118.172 196 117.25 198.812 117.25C199.516 117.25 200.242 117.312 200.992 117.438C201.758 117.562 202.43 117.734 203.008 117.953V113.477C202.602 113.305 202.07 113.172 201.414 113.078C200.758 112.969 200.062 112.914 199.328 112.914C196.875 112.914 194.875 113.516 193.328 114.719C191.797 115.922 190.797 117.703 190.328 120.062H189.812V113.57H180.32V116.758H185.969V139H189.859V127.609ZM197.734 139V135.812H180.836V139H197.734ZM231.133 121.492C230.805 118.867 229.734 116.812 227.922 115.328C226.125 113.828 223.82 113.078 221.008 113.078C217.555 113.078 214.867 114.094 212.945 116.125C211.023 118.141 210.062 120.969 210.062 124.609V127.938C210.062 131.578 211.023 134.414 212.945 136.445C214.867 138.461 217.555 139.469 221.008 139.469C223.805 139.469 226.109 138.727 227.922 137.242C229.734 135.742 230.805 133.703 231.133 131.125H227.195C226.961 132.578 226.266 133.734 225.109 134.594C223.969 135.453 222.578 135.883 220.938 135.883C218.719 135.883 217.016 135.156 215.828 133.703C214.641 132.234 214.047 130.141 214.047 127.422V125.125C214.047 122.406 214.641 120.312 215.828 118.844C217.016 117.375 218.719 116.641 220.938 116.641C222.562 116.641 223.953 117.078 225.109 117.953C226.266 118.828 226.961 120.008 227.195 121.492H231.133ZM262.609 131.289V127.422H237.812V131.289H262.609ZM262.609 120.602V116.734H237.812V120.602H262.609Z" fill="#2A94C0"/>
<path d="M277.445 120.273V105.18H273.156V120.273H277.445ZM286.609 120.273V105.18H282.297V120.273H286.609ZM309.836 116.523C311.898 116.523 313.508 117.211 314.664 118.586C315.836 119.961 316.422 121.867 316.422 124.305H303.039C303.039 121.867 303.641 119.961 304.844 118.586C306.047 117.211 307.711 116.523 309.836 116.523ZM316.422 132.438C316.078 133.547 315.344 134.422 314.219 135.062C313.094 135.703 311.734 136.023 310.141 136.023C307.984 136.023 306.258 135.336 304.961 133.961C303.68 132.57 303.039 130.703 303.039 128.359V127.328H320.359V124.844C320.359 122.391 319.938 120.289 319.094 118.539C318.266 116.789 317.07 115.445 315.508 114.508C313.945 113.57 312.062 113.102 309.859 113.102C307.703 113.102 305.812 113.562 304.188 114.484C302.578 115.406 301.328 116.703 300.438 118.375C299.547 120.031 299.102 121.977 299.102 124.211V128.031C299.102 131.641 300.07 134.453 302.008 136.469C303.945 138.469 306.656 139.469 310.141 139.469C311.938 139.469 313.547 139.18 314.969 138.602C316.406 138.008 317.586 137.188 318.508 136.141C319.445 135.078 320.039 133.844 320.289 132.438H316.422ZM339.32 129.203L345.719 139H350.336L341.57 126.109L350.266 113.57H345.789L339.484 123.203H339.156L332.828 113.57H328.117L336.906 126.273L328.188 139H332.594L339.016 129.203H339.32ZM366.32 139.445C368.18 139.445 369.773 139.078 371.102 138.344C372.43 137.609 373.398 136.562 374.008 135.203H374.406V139.023H378.203V121.609C378.203 118.969 377.383 116.922 375.742 115.469C374.102 114 371.789 113.266 368.805 113.266C367.07 113.266 365.508 113.555 364.117 114.133C362.727 114.711 361.594 115.516 360.719 116.547C359.859 117.578 359.352 118.773 359.195 120.133H363.109C363.453 119.039 364.109 118.195 365.078 117.602C366.062 117.008 367.289 116.711 368.758 116.711C370.523 116.711 371.875 117.141 372.812 118C373.766 118.844 374.242 120.062 374.242 121.656V123.953L367.258 124.305C364.367 124.461 362.141 125.188 360.578 126.484C359.016 127.766 358.234 129.531 358.234 131.781C358.234 134.094 358.977 135.953 360.461 137.359C361.945 138.75 363.898 139.445 366.32 139.445ZM367.469 135.953C365.859 135.953 364.586 135.57 363.648 134.805C362.727 134.023 362.266 132.969 362.266 131.641C362.266 128.938 364.078 127.492 367.703 127.305L374.242 127V130C374.242 131.125 373.945 132.141 373.352 133.047C372.758 133.938 371.945 134.648 370.914 135.18C369.898 135.695 368.75 135.953 367.469 135.953ZM410.828 120.273C410.828 117.914 410.375 116.133 409.469 114.93C408.562 113.711 407.219 113.102 405.438 113.102C404.156 113.102 403.039 113.461 402.086 114.18C401.148 114.898 400.516 115.867 400.188 117.086H399.766C399.5 115.82 398.961 114.844 398.148 114.156C397.336 113.453 396.336 113.102 395.148 113.102C393.961 113.102 392.93 113.461 392.055 114.18C391.195 114.883 390.609 115.875 390.297 117.156H389.875V113.57H386.312V139H389.898V121.844C389.898 120.266 390.227 119.023 390.883 118.117C391.539 117.195 392.43 116.734 393.555 116.734C394.633 116.734 395.445 117.133 395.992 117.93C396.555 118.711 396.836 119.875 396.836 121.422V139H400.398V121.844C400.398 120.25 400.719 119 401.359 118.094C402 117.188 402.875 116.734 403.984 116.734C405.047 116.734 405.852 117.133 406.398 117.93C406.961 118.727 407.242 119.898 407.242 121.445V139H410.828V120.273ZM429.836 113.148C428.023 113.148 426.461 113.516 425.148 114.25C423.852 114.984 422.875 116.055 422.219 117.461H421.797V113.57H417.859V147.578H421.914V135.062H422.359C422.906 136.469 423.828 137.547 425.125 138.297C426.438 139.047 428.008 139.422 429.836 139.422C431.805 139.422 433.516 138.984 434.969 138.109C436.422 137.219 437.547 135.961 438.344 134.336C439.156 132.711 439.562 130.82 439.562 128.664V123.93C439.562 121.742 439.156 119.844 438.344 118.234C437.547 116.625 436.422 115.375 434.969 114.484C433.516 113.594 431.805 113.148 429.836 113.148ZM428.688 116.805C430.781 116.805 432.445 117.5 433.68 118.891C434.93 120.281 435.555 122.148 435.555 124.492V128.148C435.555 130.492 434.93 132.367 433.68 133.773C432.445 135.164 430.781 135.859 428.688 135.859C426.594 135.859 424.922 135.164 423.672 133.773C422.438 132.383 421.82 130.508 421.82 128.148V124.492C421.82 122.148 422.438 120.281 423.672 118.891C424.922 117.5 426.594 116.805 428.688 116.805ZM469.023 139V135.695H460.633V103.586H448.023V106.891H456.648V135.695H447.953V139H469.023ZM487.867 116.523C489.93 116.523 491.539 117.211 492.695 118.586C493.867 119.961 494.453 121.867 494.453 124.305H481.07C481.07 121.867 481.672 119.961 482.875 118.586C484.078 117.211 485.742 116.523 487.867 116.523ZM494.453 132.438C494.109 133.547 493.375 134.422 492.25 135.062C491.125 135.703 489.766 136.023 488.172 136.023C486.016 136.023 484.289 135.336 482.992 133.961C481.711 132.57 481.07 130.703 481.07 128.359V127.328H498.391V124.844C498.391 122.391 497.969 120.289 497.125 118.539C496.297 116.789 495.102 115.445 493.539 114.508C491.977 113.57 490.094 113.102 487.891 113.102C485.734 113.102 483.844 113.562 482.219 114.484C480.609 115.406 479.359 116.703 478.469 118.375C477.578 120.031 477.133 121.977 477.133 124.211V128.031C477.133 131.641 478.102 134.453 480.039 136.469C481.977 138.469 484.688 139.469 488.172 139.469C489.969 139.469 491.578 139.18 493 138.602C494.438 138.008 495.617 137.188 496.539 136.141C497.477 135.078 498.07 133.844 498.32 132.438H494.453ZM517.258 139.141C518.039 139.141 518.75 138.945 519.391 138.555C520.031 138.164 520.539 137.641 520.914 136.984C521.305 136.328 521.5 135.602 521.5 134.805C521.5 134.008 521.305 133.289 520.914 132.648C520.539 131.992 520.031 131.469 519.391 131.078C518.75 130.688 518.039 130.492 517.258 130.492C516.492 130.492 515.781 130.688 515.125 131.078C514.484 131.469 513.969 131.992 513.578 132.648C513.203 133.289 513.016 134.008 513.016 134.805C513.016 135.602 513.203 136.328 513.578 136.984C513.969 137.641 514.484 138.164 515.125 138.555C515.781 138.945 516.492 139.141 517.258 139.141ZM548.523 113.148C546.711 113.148 545.148 113.516 543.836 114.25C542.539 114.984 541.562 116.055 540.906 117.461H540.484V113.57H536.547V147.578H540.602V135.062H541.047C541.594 136.469 542.516 137.547 543.812 138.297C545.125 139.047 546.695 139.422 548.523 139.422C550.492 139.422 552.203 138.984 553.656 138.109C555.109 137.219 556.234 135.961 557.031 134.336C557.844 132.711 558.25 130.82 558.25 128.664V123.93C558.25 121.742 557.844 119.844 557.031 118.234C556.234 116.625 555.109 115.375 553.656 114.484C552.203 113.594 550.492 113.148 548.523 113.148ZM547.375 116.805C549.469 116.805 551.133 117.5 552.367 118.891C553.617 120.281 554.242 122.148 554.242 124.492V128.148C554.242 130.492 553.617 132.367 552.367 133.773C551.133 135.164 549.469 135.859 547.375 135.859C545.281 135.859 543.609 135.164 542.359 133.773C541.125 132.383 540.508 130.508 540.508 128.148V124.492C540.508 122.148 541.125 120.281 542.359 118.891C543.609 117.5 545.281 116.805 547.375 116.805ZM566.195 139H570.18V124.023C570.18 121.852 570.82 120.102 572.102 118.773C573.383 117.43 575.078 116.758 577.188 116.758C579.172 116.758 580.641 117.312 581.594 118.422C582.547 119.516 583.023 121.211 583.023 123.508V139H587.008V122.5C587.008 119.453 586.273 117.125 584.805 115.516C583.352 113.906 581.242 113.102 578.477 113.102C576.555 113.102 574.883 113.531 573.461 114.391C572.055 115.25 571.016 116.469 570.344 118.047H570.016V113.57H566.195V139ZM598.703 127.914V124.422C598.703 122.094 599.328 120.234 600.578 118.844C601.844 117.438 603.531 116.734 605.641 116.734C607.734 116.734 609.406 117.438 610.656 118.844C611.906 120.234 612.531 122.094 612.531 124.422V127.914C612.531 130.258 611.906 132.133 610.656 133.539C609.406 134.93 607.734 135.625 605.641 135.625C603.531 135.625 601.844 134.922 600.578 133.516C599.328 132.109 598.703 130.242 598.703 127.914ZM605.523 148.539C607.836 148.539 609.805 148.156 611.43 147.391C613.07 146.641 614.32 145.547 615.18 144.109C616.055 142.688 616.492 140.984 616.492 139V113.57H612.555V117.508H612.109C611.562 116.133 610.625 115.062 609.297 114.297C607.969 113.531 606.383 113.148 604.539 113.148C602.555 113.148 600.82 113.594 599.336 114.484C597.867 115.359 596.727 116.609 595.914 118.234C595.102 119.844 594.695 121.734 594.695 123.906V128.477C594.695 130.633 595.102 132.523 595.914 134.148C596.727 135.773 597.859 137.031 599.312 137.922C600.781 138.797 602.492 139.234 604.445 139.234C606.289 139.234 607.883 138.852 609.227 138.086C610.57 137.32 611.523 136.273 612.086 134.945H612.508V138.906C612.508 140.938 611.914 142.5 610.727 143.594C609.539 144.688 607.828 145.234 605.594 145.234C603.891 145.234 602.453 144.914 601.281 144.273C600.109 143.633 599.391 142.789 599.125 141.742H595.188C595.453 143.852 596.508 145.508 598.352 146.711C600.195 147.93 602.586 148.539 605.523 148.539ZM633.508 120.273V105.18H629.219V120.273H633.508ZM642.672 120.273V105.18H638.359V120.273H642.672Z" fill="#74A800"/>
<path d="M123.006 58H124.553L122.733 45.3174H121.081L114.753 58H116.37L118.128 54.3613H122.549L123.006 58ZM121.608 47.1807H121.652L122.391 53.0342H118.77L121.608 47.1807ZM131.303 45.9062L130.854 48.4902H128.306L128.095 49.7646H130.635L129.668 55.0029C129.615 55.293 129.589 55.5566 129.589 55.7676C129.589 57.2529 130.617 58.0439 132.524 58.0439C132.999 58.0439 134.273 58 134.502 57.9561L134.713 56.6904C134.476 56.7168 133.535 56.7432 132.946 56.7432C131.698 56.7432 131.118 56.3213 131.118 55.4424C131.118 55.3105 131.127 55.1699 131.162 54.9941L132.129 49.7646H135.979L136.198 48.4902H132.331L132.779 45.9062H131.303ZM142.43 45.9062L141.981 48.4902H139.433L139.222 49.7646H141.762L140.795 55.0029C140.742 55.293 140.716 55.5566 140.716 55.7676C140.716 57.2529 141.744 58.0439 143.651 58.0439C144.126 58.0439 145.4 58 145.629 57.9561L145.84 56.6904C145.603 56.7168 144.662 56.7432 144.073 56.7432C142.825 56.7432 142.245 56.3213 142.245 55.4424C142.245 55.3105 142.254 55.1699 142.289 54.9941L143.256 49.7646H147.105L147.325 48.4902H143.458L143.906 45.9062H142.43ZM153.434 53.7109C153.864 51.2939 155.323 49.8438 157.31 49.8438C157.942 49.8438 158.479 49.9492 158.856 50.1689L159.138 48.5078C158.777 48.3232 158.294 48.2178 157.731 48.2178C156.009 48.2178 154.734 49.1494 154.11 50.8984H153.917L154.339 48.4639H150.779L150.577 49.6592H152.687L151.43 56.8047H149.505L149.294 58H155.631L155.842 56.8047H152.88L153.434 53.7109ZM166.652 46.126C167.355 46.126 167.892 45.5986 167.892 44.8955C167.892 44.2012 167.355 43.6738 166.652 43.6738C165.949 43.6738 165.413 44.2012 165.413 44.8955C165.413 45.5986 165.949 46.126 166.652 46.126ZM168.349 58L168.56 56.7607H165.396L166.872 48.4639H162.152L161.95 49.7031H165.185L163.928 56.7607H160.658L160.447 58H168.349ZM176.338 58.1582C178.342 58.1582 179.757 56.7959 180.17 54.4668L180.469 52.7529C180.548 52.3486 180.565 52.0938 180.565 51.8125C180.565 49.6592 179.317 48.3057 177.313 48.3057C176.101 48.3057 175.055 48.8945 174.527 49.8701H174.36L175.274 44.7197H173.763L171.416 58H172.937L173.288 56.0225H173.411C173.719 57.3584 174.809 58.1582 176.338 58.1582ZM176.092 56.7959C174.65 56.7959 173.622 55.7324 173.622 54.3262C173.622 54.1064 173.64 53.8867 173.684 53.667L173.938 52.2432C174.22 50.7051 175.345 49.6504 176.707 49.6504C178.175 49.6504 179.045 50.5205 179.045 51.9795C179.045 52.2959 179.027 52.5771 178.983 52.8232L178.729 54.2822C178.447 55.8467 177.454 56.7959 176.092 56.7959ZM192.018 48.4639H190.523L189.53 54.0977C189.231 55.75 188.106 56.8047 186.691 56.8047C185.443 56.8047 184.661 56.0049 184.661 54.792C184.661 54.5371 184.696 54.1855 184.767 53.8164L185.707 48.4639H184.213L183.281 53.834C183.167 54.4844 183.132 54.8184 183.132 55.1436C183.132 56.9541 184.327 58.1758 186.146 58.1758C187.509 58.1758 188.599 57.4814 189.091 56.3652H189.196L188.906 58H190.339L192.018 48.4639ZM198.064 45.9062L197.616 48.4902H195.067L194.856 49.7646H197.396L196.43 55.0029C196.377 55.293 196.351 55.5566 196.351 55.7676C196.351 57.2529 197.379 58.0439 199.286 58.0439C199.761 58.0439 201.035 58 201.264 57.9561L201.475 56.6904C201.237 56.7168 200.297 56.7432 199.708 56.7432C198.46 56.7432 197.88 56.3213 197.88 55.4424C197.88 55.3105 197.889 55.1699 197.924 54.9941L198.891 49.7646H202.74L202.96 48.4902H199.093L199.541 45.9062H198.064ZM213.155 55.5391H211.679C211.468 56.3213 210.492 56.8838 209.367 56.8838C207.794 56.8838 206.845 55.8379 207.003 54.2471C207.003 54.2119 207.056 53.6846 207.073 53.623H213.586L213.691 52.8584C213.7 52.7793 213.779 52.1641 213.779 52.0586C214.008 49.8965 212.487 48.2881 210.211 48.2881C207.864 48.2881 206.203 49.6943 205.852 51.9531L205.667 53.1484C205.57 53.79 205.535 54.1504 205.535 54.502C205.535 56.7783 206.959 58.1758 209.288 58.1758C211.248 58.1758 212.909 57.0508 213.155 55.5391ZM210.097 49.5713C211.591 49.5713 212.514 50.6084 212.338 52.0762C212.338 52.1289 212.294 52.4541 212.294 52.4893H207.223C207.231 52.4629 207.328 51.918 207.337 51.9004C207.609 50.4502 208.664 49.5713 210.097 49.5713ZM227.042 58H228.536L229.529 52.3662C229.828 50.7139 230.962 49.6592 232.368 49.6592C233.616 49.6592 234.398 50.459 234.398 51.6719C234.398 51.9268 234.363 52.2783 234.302 52.6475L233.353 58H234.847L235.787 52.6299C235.893 51.9795 235.928 51.6455 235.928 51.3203C235.928 49.5098 234.741 48.2881 232.922 48.2881C231.56 48.2881 230.461 48.9824 229.969 50.0986H229.872L230.153 48.4639H228.721L227.042 58ZM241.482 58.1582C242.739 58.1582 243.812 57.5693 244.286 56.6289H244.374L244.137 58H245.561L246.527 52.498C246.686 51.6543 246.712 51.417 246.712 51.0127C246.712 49.4043 245.394 48.3408 243.407 48.3408C241.465 48.3408 239.918 49.3955 239.619 50.916H241.113C241.359 50.1514 242.238 49.6328 243.267 49.6328C244.453 49.6328 245.218 50.2568 245.218 51.2324C245.218 51.4258 245.2 51.5752 245.147 51.8652L245.06 52.3486L242.687 52.3662C240.05 52.3926 238.591 53.5 238.608 55.4775C238.626 57.0684 239.795 58.1582 241.482 58.1582ZM242.001 56.8486C240.867 56.8486 240.146 56.2334 240.155 55.2666C240.164 54.1592 241.069 53.5264 242.678 53.5176L244.866 53.5088L244.655 54.6338C244.427 55.9082 243.293 56.8486 242.001 56.8486ZM251.08 51.5576C251.3 50.3623 251.95 49.6504 252.794 49.6504C253.436 49.6504 253.77 50.0371 253.77 50.7754C253.77 50.9863 253.752 51.1973 253.708 51.4258L252.548 58H253.884L255.018 51.5488C255.237 50.3535 255.879 49.6504 256.705 49.6504C257.338 49.6504 257.672 50.0371 257.672 50.7754C257.672 50.9863 257.646 51.1973 257.61 51.4346L256.45 58H257.795L258.999 51.1357C259.052 50.8193 259.087 50.5117 259.087 50.248C259.087 49.0176 258.41 48.2881 257.241 48.2881C256.354 48.2881 255.659 48.8154 255.237 49.8086H255.079C255.018 48.877 254.411 48.2881 253.488 48.2881C252.636 48.2881 251.924 48.8418 251.528 49.8086H251.37L251.599 48.4639H250.28L248.602 58H249.946L251.08 51.5576ZM268.79 55.5391H267.313C267.103 56.3213 266.127 56.8838 265.002 56.8838C263.429 56.8838 262.479 55.8379 262.638 54.2471C262.638 54.2119 262.69 53.6846 262.708 53.623H269.221L269.326 52.8584C269.335 52.7793 269.414 52.1641 269.414 52.0586C269.643 49.8965 268.122 48.2881 265.846 48.2881C263.499 48.2881 261.838 49.6943 261.486 51.9531L261.302 53.1484C261.205 53.79 261.17 54.1504 261.17 54.502C261.17 56.7783 262.594 58.1758 264.923 58.1758C266.883 58.1758 268.544 57.0508 268.79 55.5391ZM265.731 49.5713C267.226 49.5713 268.148 50.6084 267.973 52.0762C267.973 52.1289 267.929 52.4541 267.929 52.4893H262.857C262.866 52.4629 262.963 51.918 262.972 51.9004C263.244 50.4502 264.299 49.5713 265.731 49.5713Z" fill="#BBBBBB"/>
<path d="M385.942 200H387.489L385.67 187.317H384.018L377.689 200H379.307L381.064 196.361H385.485L385.942 200ZM384.545 189.181H384.589L385.327 195.034H381.706L384.545 189.181ZM394.239 187.906L393.791 190.49H391.242L391.031 191.765H393.571L392.604 197.003C392.552 197.293 392.525 197.557 392.525 197.768C392.525 199.253 393.554 200.044 395.461 200.044C395.936 200.044 397.21 200 397.438 199.956L397.649 198.69C397.412 198.717 396.472 198.743 395.883 198.743C394.635 198.743 394.055 198.321 394.055 197.442C394.055 197.311 394.063 197.17 394.099 196.994L395.065 191.765H398.915L399.135 190.49H395.268L395.716 187.906H394.239ZM405.366 187.906L404.918 190.49H402.369L402.158 191.765H404.698L403.731 197.003C403.679 197.293 403.652 197.557 403.652 197.768C403.652 199.253 404.681 200.044 406.588 200.044C407.062 200.044 408.337 200 408.565 199.956L408.776 198.69C408.539 198.717 407.599 198.743 407.01 198.743C405.762 198.743 405.182 198.321 405.182 197.442C405.182 197.311 405.19 197.17 405.226 196.994L406.192 191.765H410.042L410.262 190.49H406.395L406.843 187.906H405.366ZM416.37 195.711C416.801 193.294 418.26 191.844 420.246 191.844C420.879 191.844 421.415 191.949 421.793 192.169L422.074 190.508C421.714 190.323 421.23 190.218 420.668 190.218C418.945 190.218 417.671 191.149 417.047 192.898H416.854L417.275 190.464H413.716L413.514 191.659H415.623L414.366 198.805H412.441L412.23 200H418.567L418.778 198.805H415.816L416.37 195.711ZM429.589 188.126C430.292 188.126 430.828 187.599 430.828 186.896C430.828 186.201 430.292 185.674 429.589 185.674C428.886 185.674 428.35 186.201 428.35 186.896C428.35 187.599 428.886 188.126 429.589 188.126ZM431.285 200L431.496 198.761H428.332L429.809 190.464H425.089L424.887 191.703H428.121L426.864 198.761H423.595L423.384 200H431.285ZM439.274 200.158C441.278 200.158 442.693 198.796 443.106 196.467L443.405 194.753C443.484 194.349 443.502 194.094 443.502 193.812C443.502 191.659 442.254 190.306 440.25 190.306C439.037 190.306 437.991 190.895 437.464 191.87H437.297L438.211 186.72H436.699L434.353 200H435.873L436.225 198.022H436.348C436.655 199.358 437.745 200.158 439.274 200.158ZM439.028 198.796C437.587 198.796 436.559 197.732 436.559 196.326C436.559 196.106 436.576 195.887 436.62 195.667L436.875 194.243C437.156 192.705 438.281 191.65 439.644 191.65C441.111 191.65 441.981 192.521 441.981 193.979C441.981 194.296 441.964 194.577 441.92 194.823L441.665 196.282C441.384 197.847 440.391 198.796 439.028 198.796ZM454.954 190.464H453.46L452.467 196.098C452.168 197.75 451.043 198.805 449.628 198.805C448.38 198.805 447.598 198.005 447.598 196.792C447.598 196.537 447.633 196.186 447.703 195.816L448.644 190.464H447.149L446.218 195.834C446.104 196.484 446.068 196.818 446.068 197.144C446.068 198.954 447.264 200.176 449.083 200.176C450.445 200.176 451.535 199.481 452.027 198.365H452.133L451.843 200H453.275L454.954 190.464ZM461.001 187.906L460.553 190.49H458.004L457.793 191.765H460.333L459.366 197.003C459.313 197.293 459.287 197.557 459.287 197.768C459.287 199.253 460.315 200.044 462.223 200.044C462.697 200.044 463.972 200 464.2 199.956L464.411 198.69C464.174 198.717 463.233 198.743 462.645 198.743C461.396 198.743 460.816 198.321 460.816 197.442C460.816 197.311 460.825 197.17 460.86 196.994L461.827 191.765H465.677L465.896 190.49H462.029L462.478 187.906H461.001ZM476.092 197.539H474.615C474.404 198.321 473.429 198.884 472.304 198.884C470.73 198.884 469.781 197.838 469.939 196.247C469.939 196.212 469.992 195.685 470.01 195.623H476.522L476.628 194.858C476.637 194.779 476.716 194.164 476.716 194.059C476.944 191.896 475.424 190.288 473.147 190.288C470.801 190.288 469.14 191.694 468.788 193.953L468.604 195.148C468.507 195.79 468.472 196.15 468.472 196.502C468.472 198.778 469.896 200.176 472.225 200.176C474.185 200.176 475.846 199.051 476.092 197.539ZM473.033 191.571C474.527 191.571 475.45 192.608 475.274 194.076C475.274 194.129 475.23 194.454 475.23 194.489H470.159C470.168 194.463 470.265 193.918 470.273 193.9C470.546 192.45 471.601 191.571 473.033 191.571ZM491.253 190.464L493.063 200H494.707L499.866 190.464H498.196L494.206 198.4H494.092L492.773 190.464H491.253ZM504.419 200.158C505.676 200.158 506.748 199.569 507.223 198.629H507.311L507.073 200H508.497L509.464 194.498C509.622 193.654 509.648 193.417 509.648 193.013C509.648 191.404 508.33 190.341 506.344 190.341C504.401 190.341 502.854 191.396 502.556 192.916H504.05C504.296 192.151 505.175 191.633 506.203 191.633C507.39 191.633 508.154 192.257 508.154 193.232C508.154 193.426 508.137 193.575 508.084 193.865L507.996 194.349L505.623 194.366C502.986 194.393 501.527 195.5 501.545 197.478C501.562 199.068 502.731 200.158 504.419 200.158ZM504.938 198.849C503.804 198.849 503.083 198.233 503.092 197.267C503.101 196.159 504.006 195.526 505.614 195.518L507.803 195.509L507.592 196.634C507.363 197.908 506.229 198.849 504.938 198.849ZM520.301 200L520.512 198.761H517.365L519.492 186.72H514.772L514.562 187.959H517.796L515.871 198.761H512.61L512.399 200H520.301ZM532.843 190.464H531.349L530.355 196.098C530.057 197.75 528.932 198.805 527.517 198.805C526.269 198.805 525.486 198.005 525.486 196.792C525.486 196.537 525.521 196.186 525.592 195.816L526.532 190.464H525.038L524.106 195.834C523.992 196.484 523.957 196.818 523.957 197.144C523.957 198.954 525.152 200.176 526.972 200.176C528.334 200.176 529.424 199.481 529.916 198.365H530.021L529.731 200H531.164L532.843 190.464ZM542.854 197.539H541.377C541.166 198.321 540.19 198.884 539.065 198.884C537.492 198.884 536.543 197.838 536.701 196.247C536.701 196.212 536.754 195.685 536.771 195.623H543.284L543.39 194.858C543.398 194.779 543.478 194.164 543.478 194.059C543.706 191.896 542.186 190.288 539.909 190.288C537.562 190.288 535.901 191.694 535.55 193.953L535.365 195.148C535.269 195.79 535.233 196.15 535.233 196.502C535.233 198.778 536.657 200.176 538.986 200.176C540.946 200.176 542.607 199.051 542.854 197.539ZM539.795 191.571C541.289 191.571 542.212 192.608 542.036 194.076C542.036 194.129 541.992 194.454 541.992 194.489H536.921C536.93 194.463 537.026 193.918 537.035 193.9C537.308 192.45 538.362 191.571 539.795 191.571Z" fill="#BBBBBB"/>
<path d="M47.6465 200L49.6504 188.741H53.4736L53.7109 187.317H44.5L44.2715 188.741H48.1035L46.0996 200H47.6465ZM57.4111 200.158C58.668 200.158 59.7402 199.569 60.2148 198.629H60.3027L60.0654 200H61.4893L62.4561 194.498C62.6143 193.654 62.6406 193.417 62.6406 193.013C62.6406 191.404 61.3223 190.341 59.3359 190.341C57.3936 190.341 55.8467 191.396 55.5479 192.916H57.042C57.2881 192.151 58.167 191.633 59.1953 191.633C60.3818 191.633 61.1465 192.257 61.1465 193.232C61.1465 193.426 61.1289 193.575 61.0762 193.865L60.9883 194.349L58.6152 194.366C55.9785 194.393 54.5195 195.5 54.5371 197.478C54.5547 199.068 55.7236 200.158 57.4111 200.158ZM57.9297 198.849C56.7959 198.849 56.0752 198.233 56.084 197.267C56.0928 196.159 56.998 195.526 58.6064 195.518L60.7949 195.509L60.584 196.634C60.3555 197.908 59.2217 198.849 57.9297 198.849ZM68.5908 203.577C71.0693 203.577 72.5635 202.329 72.9854 199.938L74.6465 190.464H73.1523L72.8184 192.389H72.7129C72.4316 191.062 71.3506 190.306 69.7598 190.306C67.7383 190.306 66.2266 191.738 65.8311 194.032L65.6465 195.104C65.585 195.456 65.5322 196.019 65.5322 196.405C65.5322 198.471 66.9297 199.965 68.8457 199.965C70.1553 199.965 71.2715 199.279 71.7021 198.233H71.8076L71.5264 199.833C71.2188 201.494 70.2871 202.329 68.7139 202.329C67.4043 202.329 66.4199 201.67 66.4023 200.791V200.677H64.9258C64.9258 200.686 64.9258 200.791 64.9258 200.835C64.9258 202.426 66.4639 203.577 68.5908 203.577ZM69.9795 191.668C71.4121 191.668 72.4053 192.688 72.4053 194.146C72.4053 194.349 72.3789 194.639 72.3262 194.938L72.1328 196.062C71.8604 197.574 70.7617 198.603 69.4258 198.603C67.9668 198.603 67.0527 197.645 67.0527 196.098C67.0527 195.878 67.0967 195.43 67.1494 195.122L67.2988 194.287C67.5977 192.67 68.626 191.668 69.9795 191.668Z" fill="#BBBBBB"/>
<path d="M153 82V70H230V82" stroke="#BBBBBB"/>
<path d="M297 163V175H623V163" stroke="#BBBBBB"/>
<path d="M3 163V175H113V163" stroke="#BBBBBB"/>
</svg>
