<svg width="556" height="429" viewBox="0 0 556 429" fill="none" xmlns="http://www.w3.org/2000/svg">
<rect width="556" height="429" fill="#F2F2F2"/>
<rect x="0.5" y="0.5" width="555" height="428" stroke="#BBBBBB"/>
<path d="M20.3428 16.9473V15.2686L12.7842 19.7246V21.0254L20.3428 25.4814V23.8027L14.2959 20.4541V20.2959L20.3428 16.9473ZM23.7793 26H25.2734V20.3926C25.2734 19.5781 25.5137 18.9219 25.9941 18.4238C26.4805 17.9199 27.1191 17.668 27.9102 17.668C28.6602 17.668 29.2139 17.876 29.5713 18.292C29.9287 18.708 30.1074 19.3438 30.1074 20.1992V26H31.6016V19.8213C31.6016 18.6787 31.3262 17.8057 30.7754 17.2021C30.2305 16.5986 29.4395 16.2969 28.4023 16.2969C27.6758 16.2969 27.0459 16.458 26.5127 16.7803C25.9795 17.1025 25.5898 17.5596 25.3438 18.1514H25.2207V12.7197H23.7793V26ZM37.1914 13.9062V16.4902H34.6514V17.7646H37.1914V23.1611C37.1914 23.8232 37.3145 24.3682 37.5605 24.7959C37.8125 25.2178 38.1934 25.5312 38.7031 25.7363C39.2188 25.9414 39.8691 26.0439 40.6543 26.0439C40.959 26.0439 41.2959 26.0322 41.665 26.0088C42.04 25.9912 42.3213 25.9736 42.5088 25.9561V24.6904C42.3154 24.708 42.0576 24.7227 41.7354 24.7344C41.4189 24.7402 41.0938 24.7432 40.7598 24.7432C40.0859 24.7432 39.5703 24.6055 39.2129 24.3301C38.8613 24.0547 38.6855 23.6592 38.6855 23.1436V17.7646H42.5352V16.4902H38.668V13.9062H37.1914ZM54.541 18.9775C54.541 18.0928 54.3711 17.4248 54.0312 16.9736C53.6914 16.5166 53.1875 16.2881 52.5195 16.2881C52.0391 16.2881 51.6201 16.4229 51.2627 16.6924C50.9111 16.9619 50.6738 17.3252 50.5508 17.7822H50.3926C50.293 17.3076 50.0908 16.9414 49.7861 16.6836C49.4814 16.4199 49.1064 16.2881 48.6611 16.2881C48.2158 16.2881 47.8291 16.4229 47.501 16.6924C47.1787 16.9561 46.959 17.3281 46.8418 17.8086H46.6836V16.4639H45.3477V26H46.6924V19.5664C46.6924 18.9746 46.8154 18.5088 47.0615 18.1689C47.3076 17.8232 47.6416 17.6504 48.0635 17.6504C48.4678 17.6504 48.7725 17.7998 48.9775 18.0986C49.1885 18.3916 49.2939 18.8281 49.2939 19.4082V26H50.6299V19.5664C50.6299 18.9688 50.75 18.5 50.9902 18.1602C51.2305 17.8203 51.5586 17.6504 51.9746 17.6504C52.373 17.6504 52.6748 17.7998 52.8799 18.0986C53.0908 18.3975 53.1963 18.8369 53.1963 19.417V26H54.541V18.9775ZM65.2373 26V24.7607H62.0908V12.7197H57.3623V13.959H60.5967V24.7607H57.3359V26H65.2373ZM68.4189 16.9473V15.2686L75.9775 19.7246V21.0254L68.4189 25.4814V23.8027L74.4658 20.4541V20.2959L68.4189 16.9473Z" fill="#FFA11F"/>
<path d="M20.3428 407.947V406.269L12.7842 410.725V412.025L20.3428 416.481V414.803L14.2959 411.454V411.296L20.3428 407.947ZM25.3262 418.204L31.5137 403.113H30.0459L23.8672 418.204H25.3262ZM34.9062 417H36.4004V411.393C36.4004 410.578 36.6406 409.922 37.1211 409.424C37.6074 408.92 38.2461 408.668 39.0371 408.668C39.7871 408.668 40.3408 408.876 40.6982 409.292C41.0557 409.708 41.2344 410.344 41.2344 411.199V417H42.7285V410.821C42.7285 409.679 42.4531 408.806 41.9023 408.202C41.3574 407.599 40.5664 407.297 39.5293 407.297C38.8027 407.297 38.1729 407.458 37.6396 407.78C37.1064 408.103 36.7168 408.56 36.4707 409.151H36.3477V403.72H34.9062V417ZM48.3184 404.906V407.49H45.7783V408.765H48.3184V414.161C48.3184 414.823 48.4414 415.368 48.6875 415.796C48.9395 416.218 49.3203 416.531 49.8301 416.736C50.3457 416.941 50.9961 417.044 51.7812 417.044C52.0859 417.044 52.4229 417.032 52.792 417.009C53.167 416.991 53.4482 416.974 53.6357 416.956V415.69C53.4424 415.708 53.1846 415.723 52.8623 415.734C52.5459 415.74 52.2207 415.743 51.8867 415.743C51.2129 415.743 50.6973 415.605 50.3398 415.33C49.9883 415.055 49.8125 414.659 49.8125 414.144V408.765H53.6621V407.49H49.7949V404.906H48.3184ZM65.668 409.978C65.668 409.093 65.498 408.425 65.1582 407.974C64.8184 407.517 64.3145 407.288 63.6465 407.288C63.166 407.288 62.7471 407.423 62.3896 407.692C62.0381 407.962 61.8008 408.325 61.6777 408.782H61.5195C61.4199 408.308 61.2178 407.941 60.9131 407.684C60.6084 407.42 60.2334 407.288 59.7881 407.288C59.3428 407.288 58.9561 407.423 58.6279 407.692C58.3057 407.956 58.0859 408.328 57.9688 408.809H57.8105V407.464H56.4746V417H57.8193V410.566C57.8193 409.975 57.9424 409.509 58.1885 409.169C58.4346 408.823 58.7686 408.65 59.1904 408.65C59.5947 408.65 59.8994 408.8 60.1045 409.099C60.3154 409.392 60.4209 409.828 60.4209 410.408V417H61.7568V410.566C61.7568 409.969 61.877 409.5 62.1172 409.16C62.3574 408.82 62.6855 408.65 63.1016 408.65C63.5 408.65 63.8018 408.8 64.0068 409.099C64.2178 409.397 64.3232 409.837 64.3232 410.417V417H65.668V409.978ZM76.3643 417V415.761H73.2178V403.72H68.4893V404.959H71.7236V415.761H68.4629V417H76.3643ZM79.5459 407.947V406.269L87.1045 410.725V412.025L79.5459 416.481V414.803L85.5928 411.454V411.296L79.5459 407.947Z" fill="#FFA11F"/>
<rect x="36.5" y="38.5" width="483" height="113" stroke="#BBBBBB"/>
<path d="M56.3428 54.9473V53.2686L48.7842 57.7246V59.0254L56.3428 63.4814V61.8027L50.2959 58.4541V58.2959L56.3428 54.9473ZM59.7793 64H61.2734V58.3926C61.2734 57.5781 61.5137 56.9219 61.9941 56.4238C62.4805 55.9199 63.1191 55.668 63.9102 55.668C64.6602 55.668 65.2139 55.876 65.5713 56.292C65.9287 56.708 66.1074 57.3438 66.1074 58.1992V64H67.6016V57.8213C67.6016 56.6787 67.3262 55.8057 66.7754 55.2021C66.2305 54.5986 65.4395 54.2969 64.4023 54.2969C63.6758 54.2969 63.0459 54.458 62.5127 54.7803C61.9795 55.1025 61.5898 55.5596 61.3438 56.1514H61.2207V50.7197H59.7793V64ZM74.9229 55.5713C75.6963 55.5713 76.2998 55.8291 76.7334 56.3447C77.1729 56.8604 77.3926 57.5752 77.3926 58.4893H72.374C72.374 57.5752 72.5996 56.8604 73.0508 56.3447C73.502 55.8291 74.126 55.5713 74.9229 55.5713ZM77.3926 61.5391C77.2637 61.9551 76.9883 62.2832 76.5664 62.5234C76.1445 62.7637 75.6348 62.8838 75.0371 62.8838C74.2285 62.8838 73.5811 62.626 73.0947 62.1104C72.6143 61.5889 72.374 60.8887 72.374 60.0098V59.623H78.8691V58.6914C78.8691 57.7715 78.7109 56.9834 78.3945 56.3271C78.084 55.6709 77.6357 55.167 77.0498 54.8154C76.4639 54.4639 75.7578 54.2881 74.9316 54.2881C74.123 54.2881 73.4141 54.4609 72.8047 54.8066C72.2012 55.1523 71.7324 55.6387 71.3984 56.2656C71.0645 56.8867 70.8975 57.6162 70.8975 58.4541V59.8867C70.8975 61.2402 71.2607 62.2949 71.9873 63.0508C72.7139 63.8008 73.7305 64.1758 75.0371 64.1758C75.7109 64.1758 76.3145 64.0674 76.8477 63.8506C77.3867 63.6279 77.8291 63.3203 78.1748 62.9277C78.5264 62.5293 78.749 62.0664 78.8428 61.5391H77.3926ZM84.9775 64.167C85.6748 64.167 86.2725 64.0293 86.7705 63.7539C87.2686 63.4785 87.6318 63.0859 87.8604 62.5762H88.0098V64.0088H89.4336V57.4785C89.4336 56.4883 89.126 55.7207 88.5107 55.1758C87.8955 54.625 87.0283 54.3496 85.9092 54.3496C85.2588 54.3496 84.6729 54.458 84.1514 54.6748C83.6299 54.8916 83.2051 55.1934 82.877 55.5801C82.5547 55.9668 82.3643 56.415 82.3057 56.9248H83.7734C83.9023 56.5146 84.1484 56.1982 84.5117 55.9756C84.8809 55.7529 85.3408 55.6416 85.8916 55.6416C86.5537 55.6416 87.0605 55.8027 87.4121 56.125C87.7695 56.4414 87.9482 56.8984 87.9482 57.4961V58.3574L85.3291 58.4893C84.2451 58.5479 83.4102 58.8203 82.8242 59.3066C82.2383 59.7871 81.9453 60.4492 81.9453 61.293C81.9453 62.1602 82.2236 62.8574 82.7803 63.3848C83.3369 63.9062 84.0693 64.167 84.9775 64.167ZM85.4082 62.8574C84.8047 62.8574 84.3271 62.7139 83.9756 62.4268C83.6299 62.1338 83.457 61.7383 83.457 61.2402C83.457 60.2266 84.1367 59.6846 85.4961 59.6143L87.9482 59.5V60.625C87.9482 61.0469 87.8369 61.4277 87.6143 61.7676C87.3916 62.1016 87.0869 62.3682 86.7002 62.5674C86.3193 62.7607 85.8887 62.8574 85.4082 62.8574ZM96.4736 64.1582C95.7354 64.1582 95.0938 63.9912 94.5488 63.6572C94.0039 63.3232 93.5791 62.8545 93.2744 62.251C92.9756 61.6416 92.8262 60.9297 92.8262 60.1152V58.3398C92.8262 57.5254 92.9756 56.8164 93.2744 56.2129C93.5791 55.6035 94.0039 55.1348 94.5488 54.8066C95.0938 54.4727 95.7354 54.3057 96.4736 54.3057C97.1592 54.3057 97.7451 54.4463 98.2314 54.7275C98.7236 55.0088 99.0752 55.4131 99.2861 55.9404H99.4443V50.7197H100.965V64H99.4971V62.541H99.3301C99.084 63.0684 98.7148 63.4697 98.2227 63.7451C97.7363 64.0205 97.1533 64.1582 96.4736 64.1582ZM96.9131 62.7959C97.6924 62.7959 98.3135 62.5352 98.7764 62.0137C99.2451 61.4922 99.4795 60.7891 99.4795 59.9043V58.5332C99.4795 57.6543 99.2451 56.9541 98.7764 56.4326C98.3135 55.9111 97.6924 55.6504 96.9131 55.6504C96.1221 55.6504 95.4922 55.9111 95.0234 56.4326C94.5605 56.9541 94.3291 57.6543 94.3291 58.5332V59.9043C94.3291 60.7832 94.5605 61.4863 95.0234 62.0137C95.4922 62.5352 96.1221 62.7959 96.9131 62.7959ZM104.419 54.9473V53.2686L111.978 57.7246V59.0254L104.419 63.4814V61.8027L110.466 58.4541V58.2959L104.419 54.9473Z" fill="#FFA11F"/>
<path d="M56.3428 130.947V129.269L48.7842 133.725V135.025L56.3428 139.481V137.803L50.2959 134.454V134.296L56.3428 130.947ZM61.3262 141.204L67.5137 126.113H66.0459L59.8672 141.204H61.3262ZM70.9062 140H72.4004V134.393C72.4004 133.578 72.6406 132.922 73.1211 132.424C73.6074 131.92 74.2461 131.668 75.0371 131.668C75.7871 131.668 76.3408 131.876 76.6982 132.292C77.0557 132.708 77.2344 133.344 77.2344 134.199V140H78.7285V133.821C78.7285 132.679 78.4531 131.806 77.9023 131.202C77.3574 130.599 76.5664 130.297 75.5293 130.297C74.8027 130.297 74.1729 130.458 73.6396 130.78C73.1064 131.103 72.7168 131.56 72.4707 132.151H72.3477V126.72H70.9062V140ZM86.0498 131.571C86.8232 131.571 87.4268 131.829 87.8604 132.345C88.2998 132.86 88.5195 133.575 88.5195 134.489H83.501C83.501 133.575 83.7266 132.86 84.1777 132.345C84.6289 131.829 85.2529 131.571 86.0498 131.571ZM88.5195 137.539C88.3906 137.955 88.1152 138.283 87.6934 138.523C87.2715 138.764 86.7617 138.884 86.1641 138.884C85.3555 138.884 84.708 138.626 84.2217 138.11C83.7412 137.589 83.501 136.889 83.501 136.01V135.623H89.9961V134.691C89.9961 133.771 89.8379 132.983 89.5215 132.327C89.2109 131.671 88.7627 131.167 88.1768 130.815C87.5908 130.464 86.8848 130.288 86.0586 130.288C85.25 130.288 84.541 130.461 83.9316 130.807C83.3281 131.152 82.8594 131.639 82.5254 132.266C82.1914 132.887 82.0244 133.616 82.0244 134.454V135.887C82.0244 137.24 82.3877 138.295 83.1143 139.051C83.8408 139.801 84.8574 140.176 86.1641 140.176C86.8379 140.176 87.4414 140.067 87.9746 139.851C88.5137 139.628 88.9561 139.32 89.3018 138.928C89.6533 138.529 89.876 138.066 89.9697 137.539H88.5195ZM96.1045 140.167C96.8018 140.167 97.3994 140.029 97.8975 139.754C98.3955 139.479 98.7588 139.086 98.9873 138.576H99.1367V140.009H100.561V133.479C100.561 132.488 100.253 131.721 99.6377 131.176C99.0225 130.625 98.1553 130.35 97.0361 130.35C96.3857 130.35 95.7998 130.458 95.2783 130.675C94.7568 130.892 94.332 131.193 94.0039 131.58C93.6816 131.967 93.4912 132.415 93.4326 132.925H94.9004C95.0293 132.515 95.2754 132.198 95.6387 131.976C96.0078 131.753 96.4678 131.642 97.0186 131.642C97.6807 131.642 98.1875 131.803 98.5391 132.125C98.8965 132.441 99.0752 132.898 99.0752 133.496V134.357L96.4561 134.489C95.3721 134.548 94.5371 134.82 93.9512 135.307C93.3652 135.787 93.0723 136.449 93.0723 137.293C93.0723 138.16 93.3506 138.857 93.9072 139.385C94.4639 139.906 95.1963 140.167 96.1045 140.167ZM96.5352 138.857C95.9316 138.857 95.4541 138.714 95.1025 138.427C94.7568 138.134 94.584 137.738 94.584 137.24C94.584 136.227 95.2637 135.685 96.623 135.614L99.0752 135.5V136.625C99.0752 137.047 98.9639 137.428 98.7412 137.768C98.5186 138.102 98.2139 138.368 97.8271 138.567C97.4463 138.761 97.0156 138.857 96.5352 138.857ZM107.601 140.158C106.862 140.158 106.221 139.991 105.676 139.657C105.131 139.323 104.706 138.854 104.401 138.251C104.103 137.642 103.953 136.93 103.953 136.115V134.34C103.953 133.525 104.103 132.816 104.401 132.213C104.706 131.604 105.131 131.135 105.676 130.807C106.221 130.473 106.862 130.306 107.601 130.306C108.286 130.306 108.872 130.446 109.358 130.728C109.851 131.009 110.202 131.413 110.413 131.94H110.571V126.72H112.092V140H110.624V138.541H110.457C110.211 139.068 109.842 139.47 109.35 139.745C108.863 140.021 108.28 140.158 107.601 140.158ZM108.04 138.796C108.819 138.796 109.44 138.535 109.903 138.014C110.372 137.492 110.606 136.789 110.606 135.904V134.533C110.606 133.654 110.372 132.954 109.903 132.433C109.44 131.911 108.819 131.65 108.04 131.65C107.249 131.65 106.619 131.911 106.15 132.433C105.688 132.954 105.456 133.654 105.456 134.533V135.904C105.456 136.783 105.688 137.486 106.15 138.014C106.619 138.535 107.249 138.796 108.04 138.796ZM115.546 130.947V129.269L123.104 133.725V135.025L115.546 139.481V137.803L121.593 134.454V134.296L115.546 130.947Z" fill="#FFA11F"/>
<rect x="72.5" y="76.5" width="411" height="38" stroke="#BBBBBB"/>
<path d="M92.3428 92.9473V91.2686L84.7842 95.7246V97.0254L92.3428 101.481V99.8027L86.2959 96.4541V96.2959L92.3428 92.9473ZM98.0645 89.9062V92.4902H95.5244V93.7646H98.0645V99.1611C98.0645 99.8232 98.1875 100.368 98.4336 100.796C98.6855 101.218 99.0664 101.531 99.5762 101.736C100.092 101.941 100.742 102.044 101.527 102.044C101.832 102.044 102.169 102.032 102.538 102.009C102.913 101.991 103.194 101.974 103.382 101.956V100.69C103.188 100.708 102.931 100.723 102.608 100.734C102.292 100.74 101.967 100.743 101.633 100.743C100.959 100.743 100.443 100.605 100.086 100.33C99.7344 100.055 99.5586 99.6592 99.5586 99.1436V93.7646H103.408V92.4902H99.541V89.9062H98.0645ZM110.984 90.126C111.336 90.126 111.629 90.0088 111.863 89.7744C112.104 89.54 112.224 89.2471 112.224 88.8955C112.224 88.5498 112.104 88.2598 111.863 88.0254C111.629 87.791 111.336 87.6738 110.984 87.6738C110.633 87.6738 110.337 87.791 110.097 88.0254C109.862 88.2598 109.745 88.5498 109.745 88.8955C109.745 89.2471 109.862 89.54 110.097 89.7744C110.337 90.0088 110.633 90.126 110.984 90.126ZM114.983 102V100.761H111.828V92.4639H107.108V93.7031H110.352V100.761H107.082V102H114.983ZM120.318 89.9062V92.4902H117.778V93.7646H120.318V99.1611C120.318 99.8232 120.441 100.368 120.688 100.796C120.939 101.218 121.32 101.531 121.83 101.736C122.346 101.941 122.996 102.044 123.781 102.044C124.086 102.044 124.423 102.032 124.792 102.009C125.167 101.991 125.448 101.974 125.636 101.956V100.69C125.442 100.708 125.185 100.723 124.862 100.734C124.546 100.74 124.221 100.743 123.887 100.743C123.213 100.743 122.697 100.605 122.34 100.33C121.988 100.055 121.812 99.6592 121.812 99.1436V93.7646H125.662V92.4902H121.795V89.9062H120.318ZM137.237 102V100.761H134.091V88.7197H129.362V89.959H132.597V100.761H129.336V102H137.237ZM144.304 93.5713C145.077 93.5713 145.681 93.8291 146.114 94.3447C146.554 94.8604 146.773 95.5752 146.773 96.4893H141.755C141.755 95.5752 141.98 94.8604 142.432 94.3447C142.883 93.8291 143.507 93.5713 144.304 93.5713ZM146.773 99.5391C146.645 99.9551 146.369 100.283 145.947 100.523C145.525 100.764 145.016 100.884 144.418 100.884C143.609 100.884 142.962 100.626 142.476 100.11C141.995 99.5889 141.755 98.8887 141.755 98.0098V97.623H148.25V96.6914C148.25 95.7715 148.092 94.9834 147.775 94.3271C147.465 93.6709 147.017 93.167 146.431 92.8154C145.845 92.4639 145.139 92.2881 144.312 92.2881C143.504 92.2881 142.795 92.4609 142.186 92.8066C141.582 93.1523 141.113 93.6387 140.779 94.2656C140.445 94.8867 140.278 95.6162 140.278 96.4541V97.8867C140.278 99.2402 140.642 100.295 141.368 101.051C142.095 101.801 143.111 102.176 144.418 102.176C145.092 102.176 145.695 102.067 146.229 101.851C146.768 101.628 147.21 101.32 147.556 100.928C147.907 100.529 148.13 100.066 148.224 99.5391H146.773ZM151.546 92.9473V91.2686L159.104 95.7246V97.0254L151.546 101.481V99.8027L157.593 96.4541V96.2959L151.546 92.9473ZM281.501 92.9473V91.2686L273.942 95.7246V97.0254L281.501 101.481V99.8027L275.454 96.4541V96.2959L281.501 92.9473ZM286.484 103.204L292.672 88.1133H291.204L285.025 103.204H286.484ZM298.35 89.9062V92.4902H295.81V93.7646H298.35V99.1611C298.35 99.8232 298.473 100.368 298.719 100.796C298.971 101.218 299.352 101.531 299.861 101.736C300.377 101.941 301.027 102.044 301.812 102.044C302.117 102.044 302.454 102.032 302.823 102.009C303.198 101.991 303.479 101.974 303.667 101.956V100.69C303.474 100.708 303.216 100.723 302.894 100.734C302.577 100.74 302.252 100.743 301.918 100.743C301.244 100.743 300.729 100.605 300.371 100.33C300.02 100.055 299.844 99.6592 299.844 99.1436V93.7646H303.693V92.4902H299.826V89.9062H298.35ZM311.27 90.126C311.621 90.126 311.914 90.0088 312.148 89.7744C312.389 89.54 312.509 89.2471 312.509 88.8955C312.509 88.5498 312.389 88.2598 312.148 88.0254C311.914 87.791 311.621 87.6738 311.27 87.6738C310.918 87.6738 310.622 87.791 310.382 88.0254C310.147 88.2598 310.03 88.5498 310.03 88.8955C310.03 89.2471 310.147 89.54 310.382 89.7744C310.622 90.0088 310.918 90.126 311.27 90.126ZM315.269 102V100.761H312.113V92.4639H307.394V93.7031H310.637V100.761H307.367V102H315.269ZM320.604 89.9062V92.4902H318.063V93.7646H320.604V99.1611C320.604 99.8232 320.727 100.368 320.973 100.796C321.225 101.218 321.605 101.531 322.115 101.736C322.631 101.941 323.281 102.044 324.066 102.044C324.371 102.044 324.708 102.032 325.077 102.009C325.452 101.991 325.733 101.974 325.921 101.956V100.69C325.728 100.708 325.47 100.723 325.147 100.734C324.831 100.74 324.506 100.743 324.172 100.743C323.498 100.743 322.982 100.605 322.625 100.33C322.273 100.055 322.098 99.6592 322.098 99.1436V93.7646H325.947V92.4902H322.08V89.9062H320.604ZM337.522 102V100.761H334.376V88.7197H329.647V89.959H332.882V100.761H329.621V102H337.522ZM344.589 93.5713C345.362 93.5713 345.966 93.8291 346.399 94.3447C346.839 94.8604 347.059 95.5752 347.059 96.4893H342.04C342.04 95.5752 342.266 94.8604 342.717 94.3447C343.168 93.8291 343.792 93.5713 344.589 93.5713ZM347.059 99.5391C346.93 99.9551 346.654 100.283 346.232 100.523C345.811 100.764 345.301 100.884 344.703 100.884C343.895 100.884 343.247 100.626 342.761 100.11C342.28 99.5889 342.04 98.8887 342.04 98.0098V97.623H348.535V96.6914C348.535 95.7715 348.377 94.9834 348.061 94.3271C347.75 93.6709 347.302 93.167 346.716 92.8154C346.13 92.4639 345.424 92.2881 344.598 92.2881C343.789 92.2881 343.08 92.4609 342.471 92.8066C341.867 93.1523 341.398 93.6387 341.064 94.2656C340.73 94.8867 340.563 95.6162 340.563 96.4541V97.8867C340.563 99.2402 340.927 100.295 341.653 101.051C342.38 101.801 343.396 102.176 344.703 102.176C345.377 102.176 345.98 102.067 346.514 101.851C347.053 101.628 347.495 101.32 347.841 100.928C348.192 100.529 348.415 100.066 348.509 99.5391H347.059ZM351.831 92.9473V91.2686L359.39 95.7246V97.0254L351.831 101.481V99.8027L357.878 96.4541V96.2959L351.831 92.9473Z" fill="#FFA11F"/>
<path d="M162.629 89.3174V102H164.185V97.4473H166.812C167.639 97.4473 168.359 97.2803 168.975 96.9463C169.59 96.6123 170.067 96.1406 170.407 95.5312C170.747 94.916 170.917 94.2012 170.917 93.3867C170.917 92.5664 170.747 91.8516 170.407 91.2422C170.073 90.6328 169.602 90.1611 168.992 89.8271C168.383 89.4873 167.668 89.3174 166.848 89.3174H162.629ZM164.185 90.6973H166.461C167.387 90.6973 168.099 90.9287 168.597 91.3916C169.095 91.8545 169.344 92.5195 169.344 93.3867C169.344 94.248 169.095 94.9102 168.597 95.373C168.099 95.8359 167.387 96.0674 166.461 96.0674H164.185V90.6973ZM176.612 102.167C177.31 102.167 177.907 102.029 178.405 101.754C178.903 101.479 179.267 101.086 179.495 100.576H179.645V102.009H181.068V95.4785C181.068 94.4883 180.761 93.7207 180.146 93.1758C179.53 92.625 178.663 92.3496 177.544 92.3496C176.894 92.3496 176.308 92.458 175.786 92.6748C175.265 92.8916 174.84 93.1934 174.512 93.5801C174.189 93.9668 173.999 94.415 173.94 94.9248H175.408C175.537 94.5146 175.783 94.1982 176.146 93.9756C176.516 93.7529 176.976 93.6416 177.526 93.6416C178.188 93.6416 178.695 93.8027 179.047 94.125C179.404 94.4414 179.583 94.8984 179.583 95.4961V96.3574L176.964 96.4893C175.88 96.5479 175.045 96.8203 174.459 97.3066C173.873 97.7871 173.58 98.4492 173.58 99.293C173.58 100.16 173.858 100.857 174.415 101.385C174.972 101.906 175.704 102.167 176.612 102.167ZM177.043 100.857C176.439 100.857 175.962 100.714 175.61 100.427C175.265 100.134 175.092 99.7383 175.092 99.2402C175.092 98.2266 175.771 97.6846 177.131 97.6143L179.583 97.5V98.625C179.583 99.0469 179.472 99.4277 179.249 99.7676C179.026 100.102 178.722 100.368 178.335 100.567C177.954 100.761 177.523 100.857 177.043 100.857ZM185.867 97.8428V96.5332C185.867 95.6602 186.102 94.9629 186.57 94.4414C187.045 93.9141 187.678 93.6504 188.469 93.6504C189.254 93.6504 189.881 93.9141 190.35 94.4414C190.818 94.9629 191.053 95.6602 191.053 96.5332V97.8428C191.053 98.7217 190.818 99.4248 190.35 99.9521C189.881 100.474 189.254 100.734 188.469 100.734C187.678 100.734 187.045 100.471 186.57 99.9434C186.102 99.416 185.867 98.7158 185.867 97.8428ZM188.425 105.577C189.292 105.577 190.03 105.434 190.64 105.146C191.255 104.865 191.724 104.455 192.046 103.916C192.374 103.383 192.538 102.744 192.538 102V92.4639H191.062V93.9404H190.895C190.689 93.4248 190.338 93.0234 189.84 92.7363C189.342 92.4492 188.747 92.3057 188.056 92.3057C187.312 92.3057 186.661 92.4727 186.104 92.8066C185.554 93.1348 185.126 93.6035 184.821 94.2129C184.517 94.8164 184.364 95.5254 184.364 96.3398V98.0537C184.364 98.8623 184.517 99.5713 184.821 100.181C185.126 100.79 185.551 101.262 186.096 101.596C186.646 101.924 187.288 102.088 188.021 102.088C188.712 102.088 189.31 101.944 189.813 101.657C190.317 101.37 190.675 100.978 190.886 100.479H191.044V101.965C191.044 102.727 190.821 103.312 190.376 103.723C189.931 104.133 189.289 104.338 188.451 104.338C187.812 104.338 187.273 104.218 186.834 103.978C186.395 103.737 186.125 103.421 186.025 103.028H184.549C184.648 103.819 185.044 104.44 185.735 104.892C186.427 105.349 187.323 105.577 188.425 105.577ZM199.938 93.5713C200.712 93.5713 201.315 93.8291 201.749 94.3447C202.188 94.8604 202.408 95.5752 202.408 96.4893H197.39C197.39 95.5752 197.615 94.8604 198.066 94.3447C198.518 93.8291 199.142 93.5713 199.938 93.5713ZM202.408 99.5391C202.279 99.9551 202.004 100.283 201.582 100.523C201.16 100.764 200.65 100.884 200.053 100.884C199.244 100.884 198.597 100.626 198.11 100.11C197.63 99.5889 197.39 98.8887 197.39 98.0098V97.623H203.885V96.6914C203.885 95.7715 203.727 94.9834 203.41 94.3271C203.1 93.6709 202.651 93.167 202.065 92.8154C201.479 92.4639 200.773 92.2881 199.947 92.2881C199.139 92.2881 198.43 92.4609 197.82 92.8066C197.217 93.1523 196.748 93.6387 196.414 94.2656C196.08 94.8867 195.913 95.6162 195.913 96.4541V97.8867C195.913 99.2402 196.276 100.295 197.003 101.051C197.729 101.801 198.746 102.176 200.053 102.176C200.727 102.176 201.33 102.067 201.863 101.851C202.402 101.628 202.845 101.32 203.19 100.928C203.542 100.529 203.765 100.066 203.858 99.5391H202.408ZM220.461 89.9062V92.4902H217.921V93.7646H220.461V99.1611C220.461 99.8232 220.584 100.368 220.83 100.796C221.082 101.218 221.463 101.531 221.973 101.736C222.488 101.941 223.139 102.044 223.924 102.044C224.229 102.044 224.565 102.032 224.935 102.009C225.31 101.991 225.591 101.974 225.778 101.956V100.69C225.585 100.708 225.327 100.723 225.005 100.734C224.688 100.74 224.363 100.743 224.029 100.743C223.355 100.743 222.84 100.605 222.482 100.33C222.131 100.055 221.955 99.6592 221.955 99.1436V93.7646H225.805V92.4902H221.938V89.9062H220.461ZM233.381 90.126C233.732 90.126 234.025 90.0088 234.26 89.7744C234.5 89.54 234.62 89.2471 234.62 88.8955C234.62 88.5498 234.5 88.2598 234.26 88.0254C234.025 87.791 233.732 87.6738 233.381 87.6738C233.029 87.6738 232.733 87.791 232.493 88.0254C232.259 88.2598 232.142 88.5498 232.142 88.8955C232.142 89.2471 232.259 89.54 232.493 89.7744C232.733 90.0088 233.029 90.126 233.381 90.126ZM237.38 102V100.761H234.225V92.4639H229.505V93.7031H232.748V100.761H229.479V102H237.38ZM242.715 89.9062V92.4902H240.175V93.7646H242.715V99.1611C242.715 99.8232 242.838 100.368 243.084 100.796C243.336 101.218 243.717 101.531 244.227 101.736C244.742 101.941 245.393 102.044 246.178 102.044C246.482 102.044 246.819 102.032 247.188 102.009C247.563 101.991 247.845 101.974 248.032 101.956V100.69C247.839 100.708 247.581 100.723 247.259 100.734C246.942 100.74 246.617 100.743 246.283 100.743C245.609 100.743 245.094 100.605 244.736 100.33C244.385 100.055 244.209 99.6592 244.209 99.1436V93.7646H248.059V92.4902H244.191V89.9062H242.715ZM259.634 102V100.761H256.487V88.7197H251.759V89.959H254.993V100.761H251.732V102H259.634ZM266.7 93.5713C267.474 93.5713 268.077 93.8291 268.511 94.3447C268.95 94.8604 269.17 95.5752 269.17 96.4893H264.151C264.151 95.5752 264.377 94.8604 264.828 94.3447C265.279 93.8291 265.903 93.5713 266.7 93.5713ZM269.17 99.5391C269.041 99.9551 268.766 100.283 268.344 100.523C267.922 100.764 267.412 100.884 266.814 100.884C266.006 100.884 265.358 100.626 264.872 100.11C264.392 99.5889 264.151 98.8887 264.151 98.0098V97.623H270.646V96.6914C270.646 95.7715 270.488 94.9834 270.172 94.3271C269.861 93.6709 269.413 93.167 268.827 92.8154C268.241 92.4639 267.535 92.2881 266.709 92.2881C265.9 92.2881 265.191 92.4609 264.582 92.8066C263.979 93.1523 263.51 93.6387 263.176 94.2656C262.842 94.8867 262.675 95.6162 262.675 96.4541V97.8867C262.675 99.2402 263.038 100.295 263.765 101.051C264.491 101.801 265.508 102.176 266.814 102.176C267.488 102.176 268.092 102.067 268.625 101.851C269.164 101.628 269.606 101.32 269.952 100.928C270.304 100.529 270.526 100.066 270.62 99.5391H269.17Z" fill="#666666"/>
<rect x="36.5" y="176.5" width="483" height="215" fill="white" stroke="#BBBBBB"/>
<path d="M56.3428 192.947V191.269L48.7842 195.725V197.025L56.3428 201.481V199.803L50.2959 196.454V196.296L56.3428 192.947ZM64.2881 202.158C65.0264 202.158 65.668 201.991 66.2129 201.657C66.7578 201.323 67.1797 200.854 67.4785 200.251C67.7832 199.642 67.9355 198.93 67.9355 198.115V196.34C67.9355 195.525 67.7832 194.816 67.4785 194.213C67.1797 193.604 66.7578 193.135 66.2129 192.807C65.668 192.473 65.0264 192.306 64.2881 192.306C63.6025 192.306 63.0137 192.446 62.5215 192.728C62.0352 193.009 61.6865 193.413 61.4756 193.94H61.3174V188.72H59.7969V202H61.2646V200.541H61.4316C61.6777 201.068 62.0439 201.47 62.5303 201.745C63.0225 202.021 63.6084 202.158 64.2881 202.158ZM63.8486 200.796C63.0693 200.796 62.4453 200.535 61.9766 200.014C61.5137 199.492 61.2822 198.789 61.2822 197.904V196.533C61.2822 195.654 61.5137 194.954 61.9766 194.433C62.4453 193.911 63.0693 193.65 63.8486 193.65C64.6396 193.65 65.2666 193.911 65.7295 194.433C66.1982 194.954 66.4326 195.654 66.4326 196.533V197.904C66.4326 198.783 66.1982 199.486 65.7295 200.014C65.2666 200.535 64.6396 200.796 63.8486 200.796ZM74.8174 202.176C75.6611 202.176 76.3906 202.003 77.0059 201.657C77.627 201.312 78.1045 200.822 78.4385 200.189C78.7783 199.557 78.9482 198.812 78.9482 197.957V196.516C78.9482 195.654 78.7783 194.91 78.4385 194.283C78.1045 193.65 77.627 193.161 77.0059 192.815C76.3906 192.47 75.6611 192.297 74.8174 192.297C73.9736 192.297 73.2412 192.47 72.6201 192.815C72.0049 193.161 71.5273 193.65 71.1875 194.283C70.8535 194.91 70.6865 195.654 70.6865 196.516V197.957C70.6865 198.812 70.8535 199.557 71.1875 200.189C71.5273 200.822 72.0049 201.312 72.6201 201.657C73.2412 202.003 73.9736 202.176 74.8174 202.176ZM74.8174 193.615C75.6318 193.615 76.2764 193.888 76.751 194.433C77.2314 194.972 77.4717 195.71 77.4717 196.647V197.816C77.4717 198.76 77.2314 199.501 76.751 200.04C76.2764 200.579 75.6318 200.849 74.8174 200.849C74.0029 200.849 73.3555 200.579 72.875 200.04C72.4004 199.501 72.1631 198.76 72.1631 197.816V196.647C72.1631 195.71 72.4004 194.972 72.875 194.433C73.3555 193.888 74.0029 193.615 74.8174 193.615ZM85.3467 202.158C84.6084 202.158 83.9668 201.991 83.4219 201.657C82.877 201.323 82.4521 200.854 82.1475 200.251C81.8486 199.642 81.6992 198.93 81.6992 198.115V196.34C81.6992 195.525 81.8486 194.816 82.1475 194.213C82.4521 193.604 82.877 193.135 83.4219 192.807C83.9668 192.473 84.6084 192.306 85.3467 192.306C86.0322 192.306 86.6182 192.446 87.1045 192.728C87.5967 193.009 87.9482 193.413 88.1592 193.94H88.3174V188.72H89.8379V202H88.3701V200.541H88.2031C87.957 201.068 87.5879 201.47 87.0957 201.745C86.6094 202.021 86.0264 202.158 85.3467 202.158ZM85.7861 200.796C86.5654 200.796 87.1865 200.535 87.6494 200.014C88.1182 199.492 88.3525 198.789 88.3525 197.904V196.533C88.3525 195.654 88.1182 194.954 87.6494 194.433C87.1865 193.911 86.5654 193.65 85.7861 193.65C84.9951 193.65 84.3652 193.911 83.8965 194.433C83.4336 194.954 83.2021 195.654 83.2021 196.533V197.904C83.2021 198.783 83.4336 199.486 83.8965 200.014C84.3652 200.535 84.9951 200.796 85.7861 200.796ZM94.3994 205.393C94.9912 205.393 95.4863 205.302 95.8848 205.12C96.2832 204.938 96.6318 204.625 96.9307 204.18C97.2354 203.74 97.5254 203.131 97.8008 202.352L101.396 192.464H99.8047L97.1416 200.444H97.0273L94.3555 192.464H92.7295L96.2363 202.062L96.0693 202.58C95.8701 203.131 95.6328 203.521 95.3574 203.749C95.0879 203.978 94.7305 204.092 94.2852 204.092C94.2148 204.092 94.1211 204.089 94.0039 204.083C93.8926 204.077 93.8105 204.068 93.7578 204.057V205.366C93.8223 205.372 93.9189 205.378 94.0479 205.384C94.1768 205.39 94.2939 205.393 94.3994 205.393ZM104.419 192.947V191.269L111.978 195.725V197.025L104.419 201.481V199.803L110.466 196.454V196.296L104.419 192.947Z" fill="#FFA11F"/>
<path d="M56.3428 370.947V369.269L48.7842 373.725V375.025L56.3428 379.481V377.803L50.2959 374.454V374.296L56.3428 370.947ZM61.3262 381.204L67.5137 366.113H66.0459L59.8672 381.204H61.3262ZM75.415 380.158C76.1533 380.158 76.7949 379.991 77.3398 379.657C77.8848 379.323 78.3066 378.854 78.6055 378.251C78.9102 377.642 79.0625 376.93 79.0625 376.115V374.34C79.0625 373.525 78.9102 372.816 78.6055 372.213C78.3066 371.604 77.8848 371.135 77.3398 370.807C76.7949 370.473 76.1533 370.306 75.415 370.306C74.7295 370.306 74.1406 370.446 73.6484 370.728C73.1621 371.009 72.8135 371.413 72.6025 371.94H72.4443V366.72H70.9238V380H72.3916V378.541H72.5586C72.8047 379.068 73.1709 379.47 73.6572 379.745C74.1494 380.021 74.7354 380.158 75.415 380.158ZM74.9756 378.796C74.1963 378.796 73.5723 378.535 73.1035 378.014C72.6406 377.492 72.4092 376.789 72.4092 375.904V374.533C72.4092 373.654 72.6406 372.954 73.1035 372.433C73.5723 371.911 74.1963 371.65 74.9756 371.65C75.7666 371.65 76.3936 371.911 76.8564 372.433C77.3252 372.954 77.5596 373.654 77.5596 374.533V375.904C77.5596 376.783 77.3252 377.486 76.8564 378.014C76.3936 378.535 75.7666 378.796 74.9756 378.796ZM85.9443 380.176C86.7881 380.176 87.5176 380.003 88.1328 379.657C88.7539 379.312 89.2314 378.822 89.5654 378.189C89.9053 377.557 90.0752 376.812 90.0752 375.957V374.516C90.0752 373.654 89.9053 372.91 89.5654 372.283C89.2314 371.65 88.7539 371.161 88.1328 370.815C87.5176 370.47 86.7881 370.297 85.9443 370.297C85.1006 370.297 84.3682 370.47 83.7471 370.815C83.1318 371.161 82.6543 371.65 82.3145 372.283C81.9805 372.91 81.8135 373.654 81.8135 374.516V375.957C81.8135 376.812 81.9805 377.557 82.3145 378.189C82.6543 378.822 83.1318 379.312 83.7471 379.657C84.3682 380.003 85.1006 380.176 85.9443 380.176ZM85.9443 371.615C86.7588 371.615 87.4033 371.888 87.8779 372.433C88.3584 372.972 88.5986 373.71 88.5986 374.647V375.816C88.5986 376.76 88.3584 377.501 87.8779 378.04C87.4033 378.579 86.7588 378.849 85.9443 378.849C85.1299 378.849 84.4824 378.579 84.002 378.04C83.5273 377.501 83.29 376.76 83.29 375.816V374.647C83.29 373.71 83.5273 372.972 84.002 372.433C84.4824 371.888 85.1299 371.615 85.9443 371.615ZM96.4736 380.158C95.7354 380.158 95.0938 379.991 94.5488 379.657C94.0039 379.323 93.5791 378.854 93.2744 378.251C92.9756 377.642 92.8262 376.93 92.8262 376.115V374.34C92.8262 373.525 92.9756 372.816 93.2744 372.213C93.5791 371.604 94.0039 371.135 94.5488 370.807C95.0938 370.473 95.7354 370.306 96.4736 370.306C97.1592 370.306 97.7451 370.446 98.2314 370.728C98.7236 371.009 99.0752 371.413 99.2861 371.94H99.4443V366.72H100.965V380H99.4971V378.541H99.3301C99.084 379.068 98.7148 379.47 98.2227 379.745C97.7363 380.021 97.1533 380.158 96.4736 380.158ZM96.9131 378.796C97.6924 378.796 98.3135 378.535 98.7764 378.014C99.2451 377.492 99.4795 376.789 99.4795 375.904V374.533C99.4795 373.654 99.2451 372.954 98.7764 372.433C98.3135 371.911 97.6924 371.65 96.9131 371.65C96.1221 371.65 95.4922 371.911 95.0234 372.433C94.5605 372.954 94.3291 373.654 94.3291 374.533V375.904C94.3291 376.783 94.5605 377.486 95.0234 378.014C95.4922 378.535 96.1221 378.796 96.9131 378.796ZM105.526 383.393C106.118 383.393 106.613 383.302 107.012 383.12C107.41 382.938 107.759 382.625 108.058 382.18C108.362 381.74 108.652 381.131 108.928 380.352L112.522 370.464H110.932L108.269 378.444H108.154L105.482 370.464H103.856L107.363 380.062L107.196 380.58C106.997 381.131 106.76 381.521 106.484 381.749C106.215 381.978 105.857 382.092 105.412 382.092C105.342 382.092 105.248 382.089 105.131 382.083C105.02 382.077 104.938 382.068 104.885 382.057V383.366C104.949 383.372 105.046 383.378 105.175 383.384C105.304 383.39 105.421 383.393 105.526 383.393ZM115.546 370.947V369.269L123.104 373.725V375.025L115.546 379.481V377.803L121.593 374.454V374.296L115.546 370.947Z" fill="#FFA11F"/>
<rect x="72.5" y="214.5" width="411" height="38" stroke="#BBBBBB"/>
<path d="M92.3428 230.947V229.269L84.7842 233.725V235.025L92.3428 239.481V237.803L86.2959 234.454V234.296L92.3428 230.947ZM95.7793 240H97.2734V234.393C97.2734 233.578 97.5137 232.922 97.9941 232.424C98.4805 231.92 99.1191 231.668 99.9102 231.668C100.66 231.668 101.214 231.876 101.571 232.292C101.929 232.708 102.107 233.344 102.107 234.199V240H103.602V233.821C103.602 232.679 103.326 231.806 102.775 231.202C102.23 230.599 101.439 230.297 100.402 230.297C99.6758 230.297 99.0459 230.458 98.5127 230.78C97.9795 231.103 97.5898 231.56 97.3438 232.151H97.2207V226.72H95.7793V240ZM110.51 240H112.039V227.317H110.519L106.739 229.77V231.422L110.369 229.075H110.51V240ZM115.607 240V238.638H106.766V240H115.607ZM118.165 230.947V229.269L125.724 233.725V235.025L118.165 239.481V237.803L124.212 234.454V234.296L118.165 230.947ZM326.009 230.947V229.269L318.45 233.725V235.025L326.009 239.481V237.803L319.962 234.454V234.296L326.009 230.947ZM330.992 241.204L337.18 226.113H335.712L329.533 241.204H330.992ZM340.572 240H342.066V234.393C342.066 233.578 342.307 232.922 342.787 232.424C343.273 231.92 343.912 231.668 344.703 231.668C345.453 231.668 346.007 231.876 346.364 232.292C346.722 232.708 346.9 233.344 346.9 234.199V240H348.395V233.821C348.395 232.679 348.119 231.806 347.568 231.202C347.023 230.599 346.232 230.297 345.195 230.297C344.469 230.297 343.839 230.458 343.306 230.78C342.772 231.103 342.383 231.56 342.137 232.151H342.014V226.72H340.572V240ZM355.303 240H356.832V227.317H355.312L351.532 229.77V231.422L355.162 229.075H355.303V240ZM360.4 240V238.638H351.559V240H360.4ZM362.958 230.947V229.269L370.517 233.725V235.025L362.958 239.481V237.803L369.005 234.454V234.296L362.958 230.947Z" fill="#FFA11F"/>
<path d="M133.845 240V228.741H137.677V227.317H128.466V228.741H132.298V240H133.845ZM140.287 240H141.781V234.393C141.781 233.578 142.021 232.922 142.502 232.424C142.988 231.92 143.627 231.668 144.418 231.668C145.168 231.668 145.722 231.876 146.079 232.292C146.437 232.708 146.615 233.344 146.615 234.199V240H148.109V233.821C148.109 232.679 147.834 231.806 147.283 231.202C146.738 230.599 145.947 230.297 144.91 230.297C144.184 230.297 143.554 230.458 143.021 230.78C142.487 231.103 142.098 231.56 141.852 232.151H141.729V226.72H140.287V240ZM155.492 228.126C155.844 228.126 156.137 228.009 156.371 227.774C156.611 227.54 156.731 227.247 156.731 226.896C156.731 226.55 156.611 226.26 156.371 226.025C156.137 225.791 155.844 225.674 155.492 225.674C155.141 225.674 154.845 225.791 154.604 226.025C154.37 226.26 154.253 226.55 154.253 226.896C154.253 227.247 154.37 227.54 154.604 227.774C154.845 228.009 155.141 228.126 155.492 228.126ZM159.491 240V238.761H156.336V230.464H151.616V231.703H154.859V238.761H151.59V240H159.491ZM162.98 233.039C162.98 234.387 163.839 235.26 165.556 235.658L166.971 235.983C167.574 236.118 168.005 236.297 168.263 236.52C168.521 236.736 168.649 237.035 168.649 237.416C168.649 237.873 168.456 238.239 168.069 238.515C167.688 238.784 167.173 238.919 166.522 238.919C165.907 238.919 165.397 238.799 164.993 238.559C164.595 238.312 164.34 237.97 164.229 237.53H162.708C162.79 238.351 163.168 238.998 163.842 239.473C164.516 239.941 165.392 240.176 166.47 240.176C167.601 240.176 168.503 239.912 169.177 239.385C169.856 238.857 170.196 238.154 170.196 237.275C170.196 236.584 169.977 236.03 169.537 235.614C169.104 235.192 168.424 234.876 167.498 234.665L166.153 234.357C165.556 234.223 165.125 234.047 164.861 233.83C164.598 233.607 164.466 233.314 164.466 232.951C164.466 232.518 164.647 232.172 165.011 231.914C165.374 231.65 165.857 231.519 166.461 231.519C167.018 231.519 167.483 231.639 167.858 231.879C168.233 232.119 168.465 232.447 168.553 232.863H169.994C169.906 232.066 169.549 231.437 168.922 230.974C168.295 230.511 167.483 230.279 166.487 230.279C165.438 230.279 164.592 230.531 163.947 231.035C163.303 231.539 162.98 232.207 162.98 233.039ZM188.873 228.126C189.225 228.126 189.518 228.009 189.752 227.774C189.992 227.54 190.112 227.247 190.112 226.896C190.112 226.55 189.992 226.26 189.752 226.025C189.518 225.791 189.225 225.674 188.873 225.674C188.521 225.674 188.226 225.791 187.985 226.025C187.751 226.26 187.634 226.55 187.634 226.896C187.634 227.247 187.751 227.54 187.985 227.774C188.226 228.009 188.521 228.126 188.873 228.126ZM192.872 240V238.761H189.717V230.464H184.997V231.703H188.24V238.761H184.971V240H192.872ZM196.361 233.039C196.361 234.387 197.22 235.26 198.937 235.658L200.352 235.983C200.955 236.118 201.386 236.297 201.644 236.52C201.901 236.736 202.03 237.035 202.03 237.416C202.03 237.873 201.837 238.239 201.45 238.515C201.069 238.784 200.554 238.919 199.903 238.919C199.288 238.919 198.778 238.799 198.374 238.559C197.976 238.312 197.721 237.97 197.609 237.53H196.089C196.171 238.351 196.549 238.998 197.223 239.473C197.896 239.941 198.772 240.176 199.851 240.176C200.981 240.176 201.884 239.912 202.558 239.385C203.237 238.857 203.577 238.154 203.577 237.275C203.577 236.584 203.357 236.03 202.918 235.614C202.484 235.192 201.805 234.876 200.879 234.665L199.534 234.357C198.937 234.223 198.506 234.047 198.242 233.83C197.979 233.607 197.847 233.314 197.847 232.951C197.847 232.518 198.028 232.172 198.392 231.914C198.755 231.65 199.238 231.519 199.842 231.519C200.398 231.519 200.864 231.639 201.239 231.879C201.614 232.119 201.846 232.447 201.934 232.863H203.375C203.287 232.066 202.93 231.437 202.303 230.974C201.676 230.511 200.864 230.279 199.868 230.279C198.819 230.279 197.973 230.531 197.328 231.035C196.684 231.539 196.361 232.207 196.361 233.039ZM221.12 240.167C221.817 240.167 222.415 240.029 222.913 239.754C223.411 239.479 223.774 239.086 224.003 238.576H224.152V240.009H225.576V233.479C225.576 232.488 225.269 231.721 224.653 231.176C224.038 230.625 223.171 230.35 222.052 230.35C221.401 230.35 220.815 230.458 220.294 230.675C219.772 230.892 219.348 231.193 219.02 231.58C218.697 231.967 218.507 232.415 218.448 232.925H219.916C220.045 232.515 220.291 232.198 220.654 231.976C221.023 231.753 221.483 231.642 222.034 231.642C222.696 231.642 223.203 231.803 223.555 232.125C223.912 232.441 224.091 232.898 224.091 233.496V234.357L221.472 234.489C220.388 234.548 219.553 234.82 218.967 235.307C218.381 235.787 218.088 236.449 218.088 237.293C218.088 238.16 218.366 238.857 218.923 239.385C219.479 239.906 220.212 240.167 221.12 240.167ZM221.551 238.857C220.947 238.857 220.47 238.714 220.118 238.427C219.772 238.134 219.6 237.738 219.6 237.24C219.6 236.227 220.279 235.685 221.639 235.614L224.091 235.5V236.625C224.091 237.047 223.979 237.428 223.757 237.768C223.534 238.102 223.229 238.368 222.843 238.567C222.462 238.761 222.031 238.857 221.551 238.857ZM240.43 240H241.924V234.393C241.924 233.578 242.164 232.922 242.645 232.424C243.131 231.92 243.77 231.668 244.561 231.668C245.311 231.668 245.864 231.876 246.222 232.292C246.579 232.708 246.758 233.344 246.758 234.199V240H248.252V233.821C248.252 232.679 247.977 231.806 247.426 231.202C246.881 230.599 246.09 230.297 245.053 230.297C244.326 230.297 243.696 230.458 243.163 230.78C242.63 231.103 242.24 231.56 241.994 232.151H241.871V226.72H240.43V240ZM255.573 231.571C256.347 231.571 256.95 231.829 257.384 232.345C257.823 232.86 258.043 233.575 258.043 234.489H253.024C253.024 233.575 253.25 232.86 253.701 232.345C254.152 231.829 254.776 231.571 255.573 231.571ZM258.043 237.539C257.914 237.955 257.639 238.283 257.217 238.523C256.795 238.764 256.285 238.884 255.688 238.884C254.879 238.884 254.231 238.626 253.745 238.11C253.265 237.589 253.024 236.889 253.024 236.01V235.623H259.52V234.691C259.52 233.771 259.361 232.983 259.045 232.327C258.734 231.671 258.286 231.167 257.7 230.815C257.114 230.464 256.408 230.288 255.582 230.288C254.773 230.288 254.064 230.461 253.455 230.807C252.852 231.152 252.383 231.639 252.049 232.266C251.715 232.887 251.548 233.616 251.548 234.454V235.887C251.548 237.24 251.911 238.295 252.638 239.051C253.364 239.801 254.381 240.176 255.688 240.176C256.361 240.176 256.965 240.067 257.498 239.851C258.037 239.628 258.479 239.32 258.825 238.928C259.177 238.529 259.399 238.066 259.493 237.539H258.043ZM265.628 240.167C266.325 240.167 266.923 240.029 267.421 239.754C267.919 239.479 268.282 239.086 268.511 238.576H268.66V240.009H270.084V233.479C270.084 232.488 269.776 231.721 269.161 231.176C268.546 230.625 267.679 230.35 266.56 230.35C265.909 230.35 265.323 230.458 264.802 230.675C264.28 230.892 263.855 231.193 263.527 231.58C263.205 231.967 263.015 232.415 262.956 232.925H264.424C264.553 232.515 264.799 232.198 265.162 231.976C265.531 231.753 265.991 231.642 266.542 231.642C267.204 231.642 267.711 231.803 268.062 232.125C268.42 232.441 268.599 232.898 268.599 233.496V234.357L265.979 234.489C264.896 234.548 264.061 234.82 263.475 235.307C262.889 235.787 262.596 236.449 262.596 237.293C262.596 238.16 262.874 238.857 263.431 239.385C263.987 239.906 264.72 240.167 265.628 240.167ZM266.059 238.857C265.455 238.857 264.978 238.714 264.626 238.427C264.28 238.134 264.107 237.738 264.107 237.24C264.107 236.227 264.787 235.685 266.146 235.614L268.599 235.5V236.625C268.599 237.047 268.487 237.428 268.265 237.768C268.042 238.102 267.737 238.368 267.351 238.567C266.97 238.761 266.539 238.857 266.059 238.857ZM277.124 240.158C276.386 240.158 275.744 239.991 275.199 239.657C274.654 239.323 274.229 238.854 273.925 238.251C273.626 237.642 273.477 236.93 273.477 236.115V234.34C273.477 233.525 273.626 232.816 273.925 232.213C274.229 231.604 274.654 231.135 275.199 230.807C275.744 230.473 276.386 230.306 277.124 230.306C277.81 230.306 278.396 230.446 278.882 230.728C279.374 231.009 279.726 231.413 279.937 231.94H280.095V226.72H281.615V240H280.147V238.541H279.98C279.734 239.068 279.365 239.47 278.873 239.745C278.387 240.021 277.804 240.158 277.124 240.158ZM277.563 238.796C278.343 238.796 278.964 238.535 279.427 238.014C279.896 237.492 280.13 236.789 280.13 235.904V234.533C280.13 233.654 279.896 232.954 279.427 232.433C278.964 231.911 278.343 231.65 277.563 231.65C276.772 231.65 276.143 231.911 275.674 232.433C275.211 232.954 274.979 233.654 274.979 234.533V235.904C274.979 236.783 275.211 237.486 275.674 238.014C276.143 238.535 276.772 238.796 277.563 238.796ZM289.016 228.126C289.367 228.126 289.66 228.009 289.895 227.774C290.135 227.54 290.255 227.247 290.255 226.896C290.255 226.55 290.135 226.26 289.895 226.025C289.66 225.791 289.367 225.674 289.016 225.674C288.664 225.674 288.368 225.791 288.128 226.025C287.894 226.26 287.776 226.55 287.776 226.896C287.776 227.247 287.894 227.54 288.128 227.774C288.368 228.009 288.664 228.126 289.016 228.126ZM293.015 240V238.761H289.859V230.464H285.14V231.703H288.383V238.761H285.113V240H293.015ZM296.073 240H297.567V234.384C297.567 233.569 297.808 232.913 298.288 232.415C298.769 231.911 299.404 231.659 300.195 231.659C300.939 231.659 301.49 231.867 301.848 232.283C302.205 232.693 302.384 233.329 302.384 234.19V240H303.878V233.812C303.878 232.67 303.603 231.797 303.052 231.193C302.507 230.59 301.716 230.288 300.679 230.288C299.958 230.288 299.331 230.449 298.798 230.771C298.271 231.094 297.881 231.551 297.629 232.143H297.506V230.464H296.073V240ZM308.264 235.843V234.533C308.264 233.66 308.498 232.963 308.967 232.441C309.441 231.914 310.074 231.65 310.865 231.65C311.65 231.65 312.277 231.914 312.746 232.441C313.215 232.963 313.449 233.66 313.449 234.533V235.843C313.449 236.722 313.215 237.425 312.746 237.952C312.277 238.474 311.65 238.734 310.865 238.734C310.074 238.734 309.441 238.471 308.967 237.943C308.498 237.416 308.264 236.716 308.264 235.843ZM310.821 243.577C311.688 243.577 312.427 243.434 313.036 243.146C313.651 242.865 314.12 242.455 314.442 241.916C314.771 241.383 314.935 240.744 314.935 240V230.464H313.458V231.94H313.291C313.086 231.425 312.734 231.023 312.236 230.736C311.738 230.449 311.144 230.306 310.452 230.306C309.708 230.306 309.058 230.473 308.501 230.807C307.95 231.135 307.522 231.604 307.218 232.213C306.913 232.816 306.761 233.525 306.761 234.34V236.054C306.761 236.862 306.913 237.571 307.218 238.181C307.522 238.79 307.947 239.262 308.492 239.596C309.043 239.924 309.685 240.088 310.417 240.088C311.108 240.088 311.706 239.944 312.21 239.657C312.714 239.37 313.071 238.978 313.282 238.479H313.44V239.965C313.44 240.727 313.218 241.312 312.772 241.723C312.327 242.133 311.686 242.338 310.848 242.338C310.209 242.338 309.67 242.218 309.23 241.978C308.791 241.737 308.521 241.421 308.422 241.028H306.945C307.045 241.819 307.44 242.44 308.132 242.892C308.823 243.349 309.72 243.577 310.821 243.577Z" fill="#666666"/>
<rect x="72.5" y="265.5" width="411" height="38" stroke="#BBBBBB"/>
<path d="M92.3428 281.947V280.269L84.7842 284.725V286.025L92.3428 290.481V288.803L86.2959 285.454V285.296L92.3428 281.947ZM100.288 281.306C99.6084 281.306 99.0225 281.443 98.5303 281.719C98.0439 281.994 97.6777 282.396 97.4316 282.923H97.2734V281.464H95.7969V294.217H97.3174V289.523H97.4844C97.6895 290.051 98.0352 290.455 98.5215 290.736C99.0137 291.018 99.6025 291.158 100.288 291.158C101.026 291.158 101.668 290.994 102.213 290.666C102.758 290.332 103.18 289.86 103.479 289.251C103.783 288.642 103.936 287.933 103.936 287.124V285.349C103.936 284.528 103.783 283.816 103.479 283.213C103.18 282.609 102.758 282.141 102.213 281.807C101.668 281.473 101.026 281.306 100.288 281.306ZM99.8574 282.677C100.643 282.677 101.267 282.938 101.729 283.459C102.198 283.98 102.433 284.681 102.433 285.56V286.931C102.433 287.81 102.198 288.513 101.729 289.04C101.267 289.562 100.643 289.822 99.8574 289.822C99.0723 289.822 98.4453 289.562 97.9766 289.04C97.5137 288.519 97.2822 287.815 97.2822 286.931V285.56C97.2822 284.681 97.5137 283.98 97.9766 283.459C98.4453 282.938 99.0723 282.677 99.8574 282.677ZM107.038 281.947V280.269L114.597 284.725V286.025L107.038 290.481V288.803L113.085 285.454V285.296L107.038 281.947ZM348.263 281.947V280.269L340.704 284.725V286.025L348.263 290.481V288.803L342.216 285.454V285.296L348.263 281.947ZM353.246 292.204L359.434 277.113H357.966L351.787 292.204H353.246ZM367.335 281.306C366.655 281.306 366.069 281.443 365.577 281.719C365.091 281.994 364.725 282.396 364.479 282.923H364.32V281.464H362.844V294.217H364.364V289.523H364.531C364.736 290.051 365.082 290.455 365.568 290.736C366.061 291.018 366.649 291.158 367.335 291.158C368.073 291.158 368.715 290.994 369.26 290.666C369.805 290.332 370.227 289.86 370.525 289.251C370.83 288.642 370.982 287.933 370.982 287.124V285.349C370.982 284.528 370.83 283.816 370.525 283.213C370.227 282.609 369.805 282.141 369.26 281.807C368.715 281.473 368.073 281.306 367.335 281.306ZM366.904 282.677C367.689 282.677 368.313 282.938 368.776 283.459C369.245 283.98 369.479 284.681 369.479 285.56V286.931C369.479 287.81 369.245 288.513 368.776 289.04C368.313 289.562 367.689 289.822 366.904 289.822C366.119 289.822 365.492 289.562 365.023 289.04C364.561 288.519 364.329 287.815 364.329 286.931V285.56C364.329 284.681 364.561 283.98 365.023 283.459C365.492 282.938 366.119 282.677 366.904 282.677ZM374.085 281.947V280.269L381.644 284.725V286.025L374.085 290.481V288.803L380.132 285.454V285.296L374.085 281.947Z" fill="#FFA11F"/>
<path d="M122.718 291V279.741H126.55V278.317H117.339V279.741H121.171V291H122.718ZM129.16 291H130.654V285.393C130.654 284.578 130.895 283.922 131.375 283.424C131.861 282.92 132.5 282.668 133.291 282.668C134.041 282.668 134.595 282.876 134.952 283.292C135.31 283.708 135.488 284.344 135.488 285.199V291H136.982V284.821C136.982 283.679 136.707 282.806 136.156 282.202C135.611 281.599 134.82 281.297 133.783 281.297C133.057 281.297 132.427 281.458 131.894 281.78C131.36 282.103 130.971 282.56 130.725 283.151H130.602V277.72H129.16V291ZM144.365 279.126C144.717 279.126 145.01 279.009 145.244 278.774C145.484 278.54 145.604 278.247 145.604 277.896C145.604 277.55 145.484 277.26 145.244 277.025C145.01 276.791 144.717 276.674 144.365 276.674C144.014 276.674 143.718 276.791 143.478 277.025C143.243 277.26 143.126 277.55 143.126 277.896C143.126 278.247 143.243 278.54 143.478 278.774C143.718 279.009 144.014 279.126 144.365 279.126ZM148.364 291V289.761H145.209V281.464H140.489V282.703H143.732V289.761H140.463V291H148.364ZM151.854 284.039C151.854 285.387 152.712 286.26 154.429 286.658L155.844 286.983C156.447 287.118 156.878 287.297 157.136 287.52C157.394 287.736 157.522 288.035 157.522 288.416C157.522 288.873 157.329 289.239 156.942 289.515C156.562 289.784 156.046 289.919 155.396 289.919C154.78 289.919 154.271 289.799 153.866 289.559C153.468 289.312 153.213 288.97 153.102 288.53H151.581C151.663 289.351 152.041 289.998 152.715 290.473C153.389 290.941 154.265 291.176 155.343 291.176C156.474 291.176 157.376 290.912 158.05 290.385C158.729 289.857 159.069 289.154 159.069 288.275C159.069 287.584 158.85 287.03 158.41 286.614C157.977 286.192 157.297 285.876 156.371 285.665L155.026 285.357C154.429 285.223 153.998 285.047 153.734 284.83C153.471 284.607 153.339 284.314 153.339 283.951C153.339 283.518 153.521 283.172 153.884 282.914C154.247 282.65 154.73 282.519 155.334 282.519C155.891 282.519 156.356 282.639 156.731 282.879C157.106 283.119 157.338 283.447 157.426 283.863H158.867C158.779 283.066 158.422 282.437 157.795 281.974C157.168 281.511 156.356 281.279 155.36 281.279C154.312 281.279 153.465 281.531 152.82 282.035C152.176 282.539 151.854 283.207 151.854 284.039ZM177.746 279.126C178.098 279.126 178.391 279.009 178.625 278.774C178.865 278.54 178.985 278.247 178.985 277.896C178.985 277.55 178.865 277.26 178.625 277.025C178.391 276.791 178.098 276.674 177.746 276.674C177.395 276.674 177.099 276.791 176.858 277.025C176.624 277.26 176.507 277.55 176.507 277.896C176.507 278.247 176.624 278.54 176.858 278.774C177.099 279.009 177.395 279.126 177.746 279.126ZM181.745 291V289.761H178.59V281.464H173.87V282.703H177.113V289.761H173.844V291H181.745ZM185.234 284.039C185.234 285.387 186.093 286.26 187.81 286.658L189.225 286.983C189.828 287.118 190.259 287.297 190.517 287.52C190.774 287.736 190.903 288.035 190.903 288.416C190.903 288.873 190.71 289.239 190.323 289.515C189.942 289.784 189.427 289.919 188.776 289.919C188.161 289.919 187.651 289.799 187.247 289.559C186.849 289.312 186.594 288.97 186.482 288.53H184.962C185.044 289.351 185.422 289.998 186.096 290.473C186.77 290.941 187.646 291.176 188.724 291.176C189.854 291.176 190.757 290.912 191.431 290.385C192.11 289.857 192.45 289.154 192.45 288.275C192.45 287.584 192.23 287.03 191.791 286.614C191.357 286.192 190.678 285.876 189.752 285.665L188.407 285.357C187.81 285.223 187.379 285.047 187.115 284.83C186.852 284.607 186.72 284.314 186.72 283.951C186.72 283.518 186.901 283.172 187.265 282.914C187.628 282.65 188.111 282.519 188.715 282.519C189.271 282.519 189.737 282.639 190.112 282.879C190.487 283.119 190.719 283.447 190.807 283.863H192.248C192.16 283.066 191.803 282.437 191.176 281.974C190.549 281.511 189.737 281.279 188.741 281.279C187.692 281.279 186.846 281.531 186.201 282.035C185.557 282.539 185.234 283.207 185.234 284.039ZM209.993 291.167C210.69 291.167 211.288 291.029 211.786 290.754C212.284 290.479 212.647 290.086 212.876 289.576H213.025V291.009H214.449V284.479C214.449 283.488 214.142 282.721 213.526 282.176C212.911 281.625 212.044 281.35 210.925 281.35C210.274 281.35 209.688 281.458 209.167 281.675C208.646 281.892 208.221 282.193 207.893 282.58C207.57 282.967 207.38 283.415 207.321 283.925H208.789C208.918 283.515 209.164 283.198 209.527 282.976C209.896 282.753 210.356 282.642 210.907 282.642C211.569 282.642 212.076 282.803 212.428 283.125C212.785 283.441 212.964 283.898 212.964 284.496V285.357L210.345 285.489C209.261 285.548 208.426 285.82 207.84 286.307C207.254 286.787 206.961 287.449 206.961 288.293C206.961 289.16 207.239 289.857 207.796 290.385C208.353 290.906 209.085 291.167 209.993 291.167ZM210.424 289.857C209.82 289.857 209.343 289.714 208.991 289.427C208.646 289.134 208.473 288.738 208.473 288.24C208.473 287.227 209.152 286.685 210.512 286.614L212.964 286.5V287.625C212.964 288.047 212.853 288.428 212.63 288.768C212.407 289.102 212.103 289.368 211.716 289.567C211.335 289.761 210.904 289.857 210.424 289.857ZM233.812 281.306C233.132 281.306 232.546 281.443 232.054 281.719C231.567 281.994 231.201 282.396 230.955 282.923H230.797V281.464H229.32V294.217H230.841V289.523H231.008C231.213 290.051 231.559 290.455 232.045 290.736C232.537 291.018 233.126 291.158 233.812 291.158C234.55 291.158 235.191 290.994 235.736 290.666C236.281 290.332 236.703 289.86 237.002 289.251C237.307 288.642 237.459 287.933 237.459 287.124V285.349C237.459 284.528 237.307 283.816 237.002 283.213C236.703 282.609 236.281 282.141 235.736 281.807C235.191 281.473 234.55 281.306 233.812 281.306ZM233.381 282.677C234.166 282.677 234.79 282.938 235.253 283.459C235.722 283.98 235.956 284.681 235.956 285.56V286.931C235.956 287.81 235.722 288.513 235.253 289.04C234.79 289.562 234.166 289.822 233.381 289.822C232.596 289.822 231.969 289.562 231.5 289.04C231.037 288.519 230.806 287.815 230.806 286.931V285.56C230.806 284.681 231.037 283.98 231.5 283.459C231.969 282.938 232.596 282.677 233.381 282.677ZM243.374 291.167C244.071 291.167 244.669 291.029 245.167 290.754C245.665 290.479 246.028 290.086 246.257 289.576H246.406V291.009H247.83V284.479C247.83 283.488 247.522 282.721 246.907 282.176C246.292 281.625 245.425 281.35 244.306 281.35C243.655 281.35 243.069 281.458 242.548 281.675C242.026 281.892 241.602 282.193 241.273 282.58C240.951 282.967 240.761 283.415 240.702 283.925H242.17C242.299 283.515 242.545 283.198 242.908 282.976C243.277 282.753 243.737 282.642 244.288 282.642C244.95 282.642 245.457 282.803 245.809 283.125C246.166 283.441 246.345 283.898 246.345 284.496V285.357L243.726 285.489C242.642 285.548 241.807 285.82 241.221 286.307C240.635 286.787 240.342 287.449 240.342 288.293C240.342 289.16 240.62 289.857 241.177 290.385C241.733 290.906 242.466 291.167 243.374 291.167ZM243.805 289.857C243.201 289.857 242.724 289.714 242.372 289.427C242.026 289.134 241.854 288.738 241.854 288.24C241.854 287.227 242.533 286.685 243.893 286.614L246.345 286.5V287.625C246.345 288.047 246.233 288.428 246.011 288.768C245.788 289.102 245.483 289.368 245.097 289.567C244.716 289.761 244.285 289.857 243.805 289.857ZM255.09 286.729C255.09 285.516 255.386 284.566 255.978 283.881C256.569 283.189 257.393 282.844 258.447 282.844C258.711 282.844 258.983 282.867 259.265 282.914C259.552 282.961 259.804 283.025 260.021 283.107V281.429C259.868 281.364 259.669 281.314 259.423 281.279C259.177 281.238 258.916 281.218 258.641 281.218C257.721 281.218 256.971 281.443 256.391 281.895C255.816 282.346 255.441 283.014 255.266 283.898H255.072V281.464H251.513V282.659H253.631V291H255.09V286.729ZM258.043 291V289.805H251.706V291H258.043ZM265.628 291.167C266.325 291.167 266.923 291.029 267.421 290.754C267.919 290.479 268.282 290.086 268.511 289.576H268.66V291.009H270.084V284.479C270.084 283.488 269.776 282.721 269.161 282.176C268.546 281.625 267.679 281.35 266.56 281.35C265.909 281.35 265.323 281.458 264.802 281.675C264.28 281.892 263.855 282.193 263.527 282.58C263.205 282.967 263.015 283.415 262.956 283.925H264.424C264.553 283.515 264.799 283.198 265.162 282.976C265.531 282.753 265.991 282.642 266.542 282.642C267.204 282.642 267.711 282.803 268.062 283.125C268.42 283.441 268.599 283.898 268.599 284.496V285.357L265.979 285.489C264.896 285.548 264.061 285.82 263.475 286.307C262.889 286.787 262.596 287.449 262.596 288.293C262.596 289.16 262.874 289.857 263.431 290.385C263.987 290.906 264.72 291.167 265.628 291.167ZM266.059 289.857C265.455 289.857 264.978 289.714 264.626 289.427C264.28 289.134 264.107 288.738 264.107 288.24C264.107 287.227 264.787 286.685 266.146 286.614L268.599 286.5V287.625C268.599 288.047 268.487 288.428 268.265 288.768C268.042 289.102 267.737 289.368 267.351 289.567C266.97 289.761 266.539 289.857 266.059 289.857ZM274.883 286.843V285.533C274.883 284.66 275.117 283.963 275.586 283.441C276.061 282.914 276.693 282.65 277.484 282.65C278.27 282.65 278.896 282.914 279.365 283.441C279.834 283.963 280.068 284.66 280.068 285.533V286.843C280.068 287.722 279.834 288.425 279.365 288.952C278.896 289.474 278.27 289.734 277.484 289.734C276.693 289.734 276.061 289.471 275.586 288.943C275.117 288.416 274.883 287.716 274.883 286.843ZM277.44 294.577C278.308 294.577 279.046 294.434 279.655 294.146C280.271 293.865 280.739 293.455 281.062 292.916C281.39 292.383 281.554 291.744 281.554 291V281.464H280.077V282.94H279.91C279.705 282.425 279.354 282.023 278.855 281.736C278.357 281.449 277.763 281.306 277.071 281.306C276.327 281.306 275.677 281.473 275.12 281.807C274.569 282.135 274.142 282.604 273.837 283.213C273.532 283.816 273.38 284.525 273.38 285.34V287.054C273.38 287.862 273.532 288.571 273.837 289.181C274.142 289.79 274.566 290.262 275.111 290.596C275.662 290.924 276.304 291.088 277.036 291.088C277.728 291.088 278.325 290.944 278.829 290.657C279.333 290.37 279.69 289.978 279.901 289.479H280.06V290.965C280.06 291.727 279.837 292.312 279.392 292.723C278.946 293.133 278.305 293.338 277.467 293.338C276.828 293.338 276.289 293.218 275.85 292.978C275.41 292.737 275.141 292.421 275.041 292.028H273.564C273.664 292.819 274.06 293.44 274.751 293.892C275.442 294.349 276.339 294.577 277.44 294.577ZM288.471 286.729C288.471 285.516 288.767 284.566 289.358 283.881C289.95 283.189 290.773 282.844 291.828 282.844C292.092 282.844 292.364 282.867 292.646 282.914C292.933 282.961 293.185 283.025 293.401 283.107V281.429C293.249 281.364 293.05 281.314 292.804 281.279C292.558 281.238 292.297 281.218 292.021 281.218C291.102 281.218 290.352 281.443 289.771 281.895C289.197 282.346 288.822 283.014 288.646 283.898H288.453V281.464H284.894V282.659H287.012V291H288.471V286.729ZM291.424 291V289.805H285.087V291H291.424ZM299.009 291.167C299.706 291.167 300.304 291.029 300.802 290.754C301.3 290.479 301.663 290.086 301.892 289.576H302.041V291.009H303.465V284.479C303.465 283.488 303.157 282.721 302.542 282.176C301.927 281.625 301.06 281.35 299.94 281.35C299.29 281.35 298.704 281.458 298.183 281.675C297.661 281.892 297.236 282.193 296.908 282.58C296.586 282.967 296.396 283.415 296.337 283.925H297.805C297.934 283.515 298.18 283.198 298.543 282.976C298.912 282.753 299.372 282.642 299.923 282.642C300.585 282.642 301.092 282.803 301.443 283.125C301.801 283.441 301.979 283.898 301.979 284.496V285.357L299.36 285.489C298.276 285.548 297.441 285.82 296.855 286.307C296.27 286.787 295.977 287.449 295.977 288.293C295.977 289.16 296.255 289.857 296.812 290.385C297.368 290.906 298.101 291.167 299.009 291.167ZM299.439 289.857C298.836 289.857 298.358 289.714 298.007 289.427C297.661 289.134 297.488 288.738 297.488 288.24C297.488 287.227 298.168 286.685 299.527 286.614L301.979 286.5V287.625C301.979 288.047 301.868 288.428 301.646 288.768C301.423 289.102 301.118 289.368 300.731 289.567C300.351 289.761 299.92 289.857 299.439 289.857ZM311.7 281.306C311.021 281.306 310.435 281.443 309.942 281.719C309.456 281.994 309.09 282.396 308.844 282.923H308.686V281.464H307.209V294.217H308.729V289.523H308.896C309.102 290.051 309.447 290.455 309.934 290.736C310.426 291.018 311.015 291.158 311.7 291.158C312.438 291.158 313.08 290.994 313.625 290.666C314.17 290.332 314.592 289.86 314.891 289.251C315.195 288.642 315.348 287.933 315.348 287.124V285.349C315.348 284.528 315.195 283.816 314.891 283.213C314.592 282.609 314.17 282.141 313.625 281.807C313.08 281.473 312.438 281.306 311.7 281.306ZM311.27 282.677C312.055 282.677 312.679 282.938 313.142 283.459C313.61 283.98 313.845 284.681 313.845 285.56V286.931C313.845 287.81 313.61 288.513 313.142 289.04C312.679 289.562 312.055 289.822 311.27 289.822C310.484 289.822 309.857 289.562 309.389 289.04C308.926 288.519 308.694 287.815 308.694 286.931V285.56C308.694 284.681 308.926 283.98 309.389 283.459C309.857 282.938 310.484 282.677 311.27 282.677ZM318.318 291H319.812V285.393C319.812 284.578 320.053 283.922 320.533 283.424C321.02 282.92 321.658 282.668 322.449 282.668C323.199 282.668 323.753 282.876 324.11 283.292C324.468 283.708 324.646 284.344 324.646 285.199V291H326.141V284.821C326.141 283.679 325.865 282.806 325.314 282.202C324.77 281.599 323.979 281.297 322.941 281.297C322.215 281.297 321.585 281.458 321.052 281.78C320.519 282.103 320.129 282.56 319.883 283.151H319.76V277.72H318.318V291ZM333.356 291.053C333.649 291.053 333.916 290.979 334.156 290.833C334.396 290.687 334.587 290.49 334.728 290.244C334.874 289.998 334.947 289.726 334.947 289.427C334.947 289.128 334.874 288.858 334.728 288.618C334.587 288.372 334.396 288.176 334.156 288.029C333.916 287.883 333.649 287.81 333.356 287.81C333.069 287.81 332.803 287.883 332.557 288.029C332.316 288.176 332.123 288.372 331.977 288.618C331.836 288.858 331.766 289.128 331.766 289.427C331.766 289.726 331.836 289.998 331.977 290.244C332.123 290.49 332.316 290.687 332.557 290.833C332.803 290.979 333.069 291.053 333.356 291.053Z" fill="#666666"/>
<rect x="72.5" y="316.5" width="411" height="38" stroke="#BBBBBB"/>
<path d="M92.3428 332.947V331.269L84.7842 335.725V337.025L92.3428 341.481V339.803L86.2959 336.454V336.296L92.3428 332.947ZM100.288 332.306C99.6084 332.306 99.0225 332.443 98.5303 332.719C98.0439 332.994 97.6777 333.396 97.4316 333.923H97.2734V332.464H95.7969V345.217H97.3174V340.523H97.4844C97.6895 341.051 98.0352 341.455 98.5215 341.736C99.0137 342.018 99.6025 342.158 100.288 342.158C101.026 342.158 101.668 341.994 102.213 341.666C102.758 341.332 103.18 340.86 103.479 340.251C103.783 339.642 103.936 338.933 103.936 338.124V336.349C103.936 335.528 103.783 334.816 103.479 334.213C103.18 333.609 102.758 333.141 102.213 332.807C101.668 332.473 101.026 332.306 100.288 332.306ZM99.8574 333.677C100.643 333.677 101.267 333.938 101.729 334.459C102.198 334.98 102.433 335.681 102.433 336.56V337.931C102.433 338.81 102.198 339.513 101.729 340.04C101.267 340.562 100.643 340.822 99.8574 340.822C99.0723 340.822 98.4453 340.562 97.9766 340.04C97.5137 339.519 97.2822 338.815 97.2822 337.931V336.56C97.2822 335.681 97.5137 334.98 97.9766 334.459C98.4453 333.938 99.0723 333.677 99.8574 333.677ZM107.038 332.947V331.269L114.597 335.725V337.025L107.038 341.481V339.803L113.085 336.454V336.296L107.038 332.947ZM415.024 332.947V331.269L407.466 335.725V337.025L415.024 341.481V339.803L408.978 336.454V336.296L415.024 332.947ZM420.008 343.204L426.195 328.113H424.728L418.549 343.204H420.008ZM434.097 332.306C433.417 332.306 432.831 332.443 432.339 332.719C431.853 332.994 431.486 333.396 431.24 333.923H431.082V332.464H429.605V345.217H431.126V340.523H431.293C431.498 341.051 431.844 341.455 432.33 341.736C432.822 342.018 433.411 342.158 434.097 342.158C434.835 342.158 435.477 341.994 436.021 341.666C436.566 341.332 436.988 340.86 437.287 340.251C437.592 339.642 437.744 338.933 437.744 338.124V336.349C437.744 335.528 437.592 334.816 437.287 334.213C436.988 333.609 436.566 333.141 436.021 332.807C435.477 332.473 434.835 332.306 434.097 332.306ZM433.666 333.677C434.451 333.677 435.075 333.938 435.538 334.459C436.007 334.98 436.241 335.681 436.241 336.56V337.931C436.241 338.81 436.007 339.513 435.538 340.04C435.075 340.562 434.451 340.822 433.666 340.822C432.881 340.822 432.254 340.562 431.785 340.04C431.322 339.519 431.091 338.815 431.091 337.931V336.56C431.091 335.681 431.322 334.98 431.785 334.459C432.254 333.938 432.881 333.677 433.666 333.677ZM440.847 332.947V331.269L448.405 335.725V337.025L440.847 341.481V339.803L446.894 336.454V336.296L440.847 332.947Z" fill="#FFA11F"/>
<path d="M122.718 342V330.741H126.55V329.317H117.339V330.741H121.171V342H122.718ZM129.16 342H130.654V336.393C130.654 335.578 130.895 334.922 131.375 334.424C131.861 333.92 132.5 333.668 133.291 333.668C134.041 333.668 134.595 333.876 134.952 334.292C135.31 334.708 135.488 335.344 135.488 336.199V342H136.982V335.821C136.982 334.679 136.707 333.806 136.156 333.202C135.611 332.599 134.82 332.297 133.783 332.297C133.057 332.297 132.427 332.458 131.894 332.78C131.36 333.103 130.971 333.56 130.725 334.151H130.602V328.72H129.16V342ZM144.365 330.126C144.717 330.126 145.01 330.009 145.244 329.774C145.484 329.54 145.604 329.247 145.604 328.896C145.604 328.55 145.484 328.26 145.244 328.025C145.01 327.791 144.717 327.674 144.365 327.674C144.014 327.674 143.718 327.791 143.478 328.025C143.243 328.26 143.126 328.55 143.126 328.896C143.126 329.247 143.243 329.54 143.478 329.774C143.718 330.009 144.014 330.126 144.365 330.126ZM148.364 342V340.761H145.209V332.464H140.489V333.703H143.732V340.761H140.463V342H148.364ZM151.854 335.039C151.854 336.387 152.712 337.26 154.429 337.658L155.844 337.983C156.447 338.118 156.878 338.297 157.136 338.52C157.394 338.736 157.522 339.035 157.522 339.416C157.522 339.873 157.329 340.239 156.942 340.515C156.562 340.784 156.046 340.919 155.396 340.919C154.78 340.919 154.271 340.799 153.866 340.559C153.468 340.312 153.213 339.97 153.102 339.53H151.581C151.663 340.351 152.041 340.998 152.715 341.473C153.389 341.941 154.265 342.176 155.343 342.176C156.474 342.176 157.376 341.912 158.05 341.385C158.729 340.857 159.069 340.154 159.069 339.275C159.069 338.584 158.85 338.03 158.41 337.614C157.977 337.192 157.297 336.876 156.371 336.665L155.026 336.357C154.429 336.223 153.998 336.047 153.734 335.83C153.471 335.607 153.339 335.314 153.339 334.951C153.339 334.518 153.521 334.172 153.884 333.914C154.247 333.65 154.73 333.519 155.334 333.519C155.891 333.519 156.356 333.639 156.731 333.879C157.106 334.119 157.338 334.447 157.426 334.863H158.867C158.779 334.066 158.422 333.437 157.795 332.974C157.168 332.511 156.356 332.279 155.36 332.279C154.312 332.279 153.465 332.531 152.82 333.035C152.176 333.539 151.854 334.207 151.854 335.039ZM177.746 330.126C178.098 330.126 178.391 330.009 178.625 329.774C178.865 329.54 178.985 329.247 178.985 328.896C178.985 328.55 178.865 328.26 178.625 328.025C178.391 327.791 178.098 327.674 177.746 327.674C177.395 327.674 177.099 327.791 176.858 328.025C176.624 328.26 176.507 328.55 176.507 328.896C176.507 329.247 176.624 329.54 176.858 329.774C177.099 330.009 177.395 330.126 177.746 330.126ZM181.745 342V340.761H178.59V332.464H173.87V333.703H177.113V340.761H173.844V342H181.745ZM185.234 335.039C185.234 336.387 186.093 337.26 187.81 337.658L189.225 337.983C189.828 338.118 190.259 338.297 190.517 338.52C190.774 338.736 190.903 339.035 190.903 339.416C190.903 339.873 190.71 340.239 190.323 340.515C189.942 340.784 189.427 340.919 188.776 340.919C188.161 340.919 187.651 340.799 187.247 340.559C186.849 340.312 186.594 339.97 186.482 339.53H184.962C185.044 340.351 185.422 340.998 186.096 341.473C186.77 341.941 187.646 342.176 188.724 342.176C189.854 342.176 190.757 341.912 191.431 341.385C192.11 340.857 192.45 340.154 192.45 339.275C192.45 338.584 192.23 338.03 191.791 337.614C191.357 337.192 190.678 336.876 189.752 336.665L188.407 336.357C187.81 336.223 187.379 336.047 187.115 335.83C186.852 335.607 186.72 335.314 186.72 334.951C186.72 334.518 186.901 334.172 187.265 333.914C187.628 333.65 188.111 333.519 188.715 333.519C189.271 333.519 189.737 333.639 190.112 333.879C190.487 334.119 190.719 334.447 190.807 334.863H192.248C192.16 334.066 191.803 333.437 191.176 332.974C190.549 332.511 189.737 332.279 188.741 332.279C187.692 332.279 186.846 332.531 186.201 333.035C185.557 333.539 185.234 334.207 185.234 335.039ZM209.993 342.167C210.69 342.167 211.288 342.029 211.786 341.754C212.284 341.479 212.647 341.086 212.876 340.576H213.025V342.009H214.449V335.479C214.449 334.488 214.142 333.721 213.526 333.176C212.911 332.625 212.044 332.35 210.925 332.35C210.274 332.35 209.688 332.458 209.167 332.675C208.646 332.892 208.221 333.193 207.893 333.58C207.57 333.967 207.38 334.415 207.321 334.925H208.789C208.918 334.515 209.164 334.198 209.527 333.976C209.896 333.753 210.356 333.642 210.907 333.642C211.569 333.642 212.076 333.803 212.428 334.125C212.785 334.441 212.964 334.898 212.964 335.496V336.357L210.345 336.489C209.261 336.548 208.426 336.82 207.84 337.307C207.254 337.787 206.961 338.449 206.961 339.293C206.961 340.16 207.239 340.857 207.796 341.385C208.353 341.906 209.085 342.167 209.993 342.167ZM210.424 340.857C209.82 340.857 209.343 340.714 208.991 340.427C208.646 340.134 208.473 339.738 208.473 339.24C208.473 338.227 209.152 337.685 210.512 337.614L212.964 337.5V338.625C212.964 339.047 212.853 339.428 212.63 339.768C212.407 340.102 212.103 340.368 211.716 340.567C211.335 340.761 210.904 340.857 210.424 340.857ZM218.185 342H219.679V336.384C219.679 335.569 219.919 334.913 220.399 334.415C220.88 333.911 221.516 333.659 222.307 333.659C223.051 333.659 223.602 333.867 223.959 334.283C224.316 334.693 224.495 335.329 224.495 336.19V342H225.989V335.812C225.989 334.67 225.714 333.797 225.163 333.193C224.618 332.59 223.827 332.288 222.79 332.288C222.069 332.288 221.442 332.449 220.909 332.771C220.382 333.094 219.992 333.551 219.74 334.143H219.617V332.464H218.185V342ZM233.214 342.176C234.058 342.176 234.787 342.003 235.402 341.657C236.023 341.312 236.501 340.822 236.835 340.189C237.175 339.557 237.345 338.812 237.345 337.957V336.516C237.345 335.654 237.175 334.91 236.835 334.283C236.501 333.65 236.023 333.161 235.402 332.815C234.787 332.47 234.058 332.297 233.214 332.297C232.37 332.297 231.638 332.47 231.017 332.815C230.401 333.161 229.924 333.65 229.584 334.283C229.25 334.91 229.083 335.654 229.083 336.516V337.957C229.083 338.812 229.25 339.557 229.584 340.189C229.924 340.822 230.401 341.312 231.017 341.657C231.638 342.003 232.37 342.176 233.214 342.176ZM233.214 333.615C234.028 333.615 234.673 333.888 235.147 334.433C235.628 334.972 235.868 335.71 235.868 336.647V337.816C235.868 338.76 235.628 339.501 235.147 340.04C234.673 340.579 234.028 340.849 233.214 340.849C232.399 340.849 231.752 340.579 231.271 340.04C230.797 339.501 230.56 338.76 230.56 337.816V336.647C230.56 335.71 230.797 334.972 231.271 334.433C231.752 333.888 232.399 333.615 233.214 333.615ZM242.715 329.906V332.49H240.175V333.765H242.715V339.161C242.715 339.823 242.838 340.368 243.084 340.796C243.336 341.218 243.717 341.531 244.227 341.736C244.742 341.941 245.393 342.044 246.178 342.044C246.482 342.044 246.819 342.032 247.188 342.009C247.563 341.991 247.845 341.974 248.032 341.956V340.69C247.839 340.708 247.581 340.723 247.259 340.734C246.942 340.74 246.617 340.743 246.283 340.743C245.609 340.743 245.094 340.605 244.736 340.33C244.385 340.055 244.209 339.659 244.209 339.144V333.765H248.059V332.49H244.191V329.906H242.715ZM251.557 342H253.051V336.393C253.051 335.578 253.291 334.922 253.771 334.424C254.258 333.92 254.896 333.668 255.688 333.668C256.438 333.668 256.991 333.876 257.349 334.292C257.706 334.708 257.885 335.344 257.885 336.199V342H259.379V335.821C259.379 334.679 259.104 333.806 258.553 333.202C258.008 332.599 257.217 332.297 256.18 332.297C255.453 332.297 254.823 332.458 254.29 332.78C253.757 333.103 253.367 333.56 253.121 334.151H252.998V328.72H251.557V342ZM266.7 333.571C267.474 333.571 268.077 333.829 268.511 334.345C268.95 334.86 269.17 335.575 269.17 336.489H264.151C264.151 335.575 264.377 334.86 264.828 334.345C265.279 333.829 265.903 333.571 266.7 333.571ZM269.17 339.539C269.041 339.955 268.766 340.283 268.344 340.523C267.922 340.764 267.412 340.884 266.814 340.884C266.006 340.884 265.358 340.626 264.872 340.11C264.392 339.589 264.151 338.889 264.151 338.01V337.623H270.646V336.691C270.646 335.771 270.488 334.983 270.172 334.327C269.861 333.671 269.413 333.167 268.827 332.815C268.241 332.464 267.535 332.288 266.709 332.288C265.9 332.288 265.191 332.461 264.582 332.807C263.979 333.152 263.51 333.639 263.176 334.266C262.842 334.887 262.675 335.616 262.675 336.454V337.887C262.675 339.24 263.038 340.295 263.765 341.051C264.491 341.801 265.508 342.176 266.814 342.176C267.488 342.176 268.092 342.067 268.625 341.851C269.164 341.628 269.606 341.32 269.952 340.928C270.304 340.529 270.526 340.066 270.62 339.539H269.17ZM277.344 337.729C277.344 336.516 277.64 335.566 278.231 334.881C278.823 334.189 279.646 333.844 280.701 333.844C280.965 333.844 281.237 333.867 281.519 333.914C281.806 333.961 282.058 334.025 282.274 334.107V332.429C282.122 332.364 281.923 332.314 281.677 332.279C281.431 332.238 281.17 332.218 280.895 332.218C279.975 332.218 279.225 332.443 278.645 332.895C278.07 333.346 277.695 334.014 277.52 334.898H277.326V332.464H273.767V333.659H275.885V342H277.344V337.729ZM280.297 342V340.805H273.96V342H280.297ZM300.573 332.306C299.894 332.306 299.308 332.443 298.815 332.719C298.329 332.994 297.963 333.396 297.717 333.923H297.559V332.464H296.082V345.217H297.603V340.523H297.77C297.975 341.051 298.32 341.455 298.807 341.736C299.299 342.018 299.888 342.158 300.573 342.158C301.312 342.158 301.953 341.994 302.498 341.666C303.043 341.332 303.465 340.86 303.764 340.251C304.068 339.642 304.221 338.933 304.221 338.124V336.349C304.221 335.528 304.068 334.816 303.764 334.213C303.465 333.609 303.043 333.141 302.498 332.807C301.953 332.473 301.312 332.306 300.573 332.306ZM300.143 333.677C300.928 333.677 301.552 333.938 302.015 334.459C302.483 334.98 302.718 335.681 302.718 336.56V337.931C302.718 338.81 302.483 339.513 302.015 340.04C301.552 340.562 300.928 340.822 300.143 340.822C299.357 340.822 298.73 340.562 298.262 340.04C297.799 339.519 297.567 338.815 297.567 337.931V336.56C297.567 335.681 297.799 334.98 298.262 334.459C298.73 333.938 299.357 333.677 300.143 333.677ZM310.136 342.167C310.833 342.167 311.431 342.029 311.929 341.754C312.427 341.479 312.79 341.086 313.019 340.576H313.168V342.009H314.592V335.479C314.592 334.488 314.284 333.721 313.669 333.176C313.054 332.625 312.187 332.35 311.067 332.35C310.417 332.35 309.831 332.458 309.31 332.675C308.788 332.892 308.363 333.193 308.035 333.58C307.713 333.967 307.522 334.415 307.464 334.925H308.932C309.061 334.515 309.307 334.198 309.67 333.976C310.039 333.753 310.499 333.642 311.05 333.642C311.712 333.642 312.219 333.803 312.57 334.125C312.928 334.441 313.106 334.898 313.106 335.496V336.357L310.487 336.489C309.403 336.548 308.568 336.82 307.982 337.307C307.396 337.787 307.104 338.449 307.104 339.293C307.104 340.16 307.382 340.857 307.938 341.385C308.495 341.906 309.228 342.167 310.136 342.167ZM310.566 340.857C309.963 340.857 309.485 340.714 309.134 340.427C308.788 340.134 308.615 339.738 308.615 339.24C308.615 338.227 309.295 337.685 310.654 337.614L313.106 337.5V338.625C313.106 339.047 312.995 339.428 312.772 339.768C312.55 340.102 312.245 340.368 311.858 340.567C311.478 340.761 311.047 340.857 310.566 340.857ZM321.852 337.729C321.852 336.516 322.147 335.566 322.739 334.881C323.331 334.189 324.154 333.844 325.209 333.844C325.473 333.844 325.745 333.867 326.026 333.914C326.313 333.961 326.565 334.025 326.782 334.107V332.429C326.63 332.364 326.431 332.314 326.185 332.279C325.938 332.238 325.678 332.218 325.402 332.218C324.482 332.218 323.732 332.443 323.152 332.895C322.578 333.346 322.203 334.014 322.027 334.898H321.834V332.464H318.274V333.659H320.393V342H321.852V337.729ZM324.805 342V340.805H318.468V342H324.805ZM332.39 342.167C333.087 342.167 333.685 342.029 334.183 341.754C334.681 341.479 335.044 341.086 335.272 340.576H335.422V342.009H336.846V335.479C336.846 334.488 336.538 333.721 335.923 333.176C335.308 332.625 334.44 332.35 333.321 332.35C332.671 332.35 332.085 332.458 331.563 332.675C331.042 332.892 330.617 333.193 330.289 333.58C329.967 333.967 329.776 334.415 329.718 334.925H331.186C331.314 334.515 331.561 334.198 331.924 333.976C332.293 333.753 332.753 333.642 333.304 333.642C333.966 333.642 334.473 333.803 334.824 334.125C335.182 334.441 335.36 334.898 335.36 335.496V336.357L332.741 336.489C331.657 336.548 330.822 336.82 330.236 337.307C329.65 337.787 329.357 338.449 329.357 339.293C329.357 340.16 329.636 340.857 330.192 341.385C330.749 341.906 331.481 342.167 332.39 342.167ZM332.82 340.857C332.217 340.857 331.739 340.714 331.388 340.427C331.042 340.134 330.869 339.738 330.869 339.24C330.869 338.227 331.549 337.685 332.908 337.614L335.36 337.5V338.625C335.36 339.047 335.249 339.428 335.026 339.768C334.804 340.102 334.499 340.368 334.112 340.567C333.731 340.761 333.301 340.857 332.82 340.857ZM341.645 337.843V336.533C341.645 335.66 341.879 334.963 342.348 334.441C342.822 333.914 343.455 333.65 344.246 333.65C345.031 333.65 345.658 333.914 346.127 334.441C346.596 334.963 346.83 335.66 346.83 336.533V337.843C346.83 338.722 346.596 339.425 346.127 339.952C345.658 340.474 345.031 340.734 344.246 340.734C343.455 340.734 342.822 340.471 342.348 339.943C341.879 339.416 341.645 338.716 341.645 337.843ZM344.202 345.577C345.069 345.577 345.808 345.434 346.417 345.146C347.032 344.865 347.501 344.455 347.823 343.916C348.151 343.383 348.315 342.744 348.315 342V332.464H346.839V333.94H346.672C346.467 333.425 346.115 333.023 345.617 332.736C345.119 332.449 344.524 332.306 343.833 332.306C343.089 332.306 342.438 332.473 341.882 332.807C341.331 333.135 340.903 333.604 340.599 334.213C340.294 334.816 340.142 335.525 340.142 336.34V338.054C340.142 338.862 340.294 339.571 340.599 340.181C340.903 340.79 341.328 341.262 341.873 341.596C342.424 341.924 343.065 342.088 343.798 342.088C344.489 342.088 345.087 341.944 345.591 341.657C346.095 341.37 346.452 340.978 346.663 340.479H346.821V341.965C346.821 342.727 346.599 343.312 346.153 343.723C345.708 344.133 345.066 344.338 344.229 344.338C343.59 344.338 343.051 344.218 342.611 343.978C342.172 343.737 341.902 343.421 341.803 343.028H340.326C340.426 343.819 340.821 344.44 341.513 344.892C342.204 345.349 343.101 345.577 344.202 345.577ZM355.232 337.729C355.232 336.516 355.528 335.566 356.12 334.881C356.712 334.189 357.535 333.844 358.59 333.844C358.854 333.844 359.126 333.867 359.407 333.914C359.694 333.961 359.946 334.025 360.163 334.107V332.429C360.011 332.364 359.812 332.314 359.565 332.279C359.319 332.238 359.059 332.218 358.783 332.218C357.863 332.218 357.113 332.443 356.533 332.895C355.959 333.346 355.584 334.014 355.408 334.898H355.215V332.464H351.655V333.659H353.773V342H355.232V337.729ZM358.186 342V340.805H351.849V342H358.186ZM365.771 342.167C366.468 342.167 367.065 342.029 367.563 341.754C368.062 341.479 368.425 341.086 368.653 340.576H368.803V342.009H370.227V335.479C370.227 334.488 369.919 333.721 369.304 333.176C368.688 332.625 367.821 332.35 366.702 332.35C366.052 332.35 365.466 332.458 364.944 332.675C364.423 332.892 363.998 333.193 363.67 333.58C363.348 333.967 363.157 334.415 363.099 334.925H364.566C364.695 334.515 364.941 334.198 365.305 333.976C365.674 333.753 366.134 333.642 366.685 333.642C367.347 333.642 367.854 333.803 368.205 334.125C368.562 334.441 368.741 334.898 368.741 335.496V336.357L366.122 336.489C365.038 336.548 364.203 336.82 363.617 337.307C363.031 337.787 362.738 338.449 362.738 339.293C362.738 340.16 363.017 340.857 363.573 341.385C364.13 341.906 364.862 342.167 365.771 342.167ZM366.201 340.857C365.598 340.857 365.12 340.714 364.769 340.427C364.423 340.134 364.25 339.738 364.25 339.24C364.25 338.227 364.93 337.685 366.289 337.614L368.741 337.5V338.625C368.741 339.047 368.63 339.428 368.407 339.768C368.185 340.102 367.88 340.368 367.493 340.567C367.112 340.761 366.682 340.857 366.201 340.857ZM378.462 332.306C377.782 332.306 377.196 332.443 376.704 332.719C376.218 332.994 375.852 333.396 375.605 333.923H375.447V332.464H373.971V345.217H375.491V340.523H375.658C375.863 341.051 376.209 341.455 376.695 341.736C377.188 342.018 377.776 342.158 378.462 342.158C379.2 342.158 379.842 341.994 380.387 341.666C380.932 341.332 381.354 340.86 381.652 340.251C381.957 339.642 382.109 338.933 382.109 338.124V336.349C382.109 335.528 381.957 334.816 381.652 334.213C381.354 333.609 380.932 333.141 380.387 332.807C379.842 332.473 379.2 332.306 378.462 332.306ZM378.031 333.677C378.816 333.677 379.44 333.938 379.903 334.459C380.372 334.98 380.606 335.681 380.606 336.56V337.931C380.606 338.81 380.372 339.513 379.903 340.04C379.44 340.562 378.816 340.822 378.031 340.822C377.246 340.822 376.619 340.562 376.15 340.04C375.688 339.519 375.456 338.815 375.456 337.931V336.56C375.456 335.681 375.688 334.98 376.15 334.459C376.619 333.938 377.246 333.677 378.031 333.677ZM385.08 342H386.574V336.393C386.574 335.578 386.814 334.922 387.295 334.424C387.781 333.92 388.42 333.668 389.211 333.668C389.961 333.668 390.515 333.876 390.872 334.292C391.229 334.708 391.408 335.344 391.408 336.199V342H392.902V335.821C392.902 334.679 392.627 333.806 392.076 333.202C391.531 332.599 390.74 332.297 389.703 332.297C388.977 332.297 388.347 332.458 387.813 332.78C387.28 333.103 386.891 333.56 386.645 334.151H386.521V328.72H385.08V342ZM400.118 342.053C400.411 342.053 400.678 341.979 400.918 341.833C401.158 341.687 401.349 341.49 401.489 341.244C401.636 340.998 401.709 340.726 401.709 340.427C401.709 340.128 401.636 339.858 401.489 339.618C401.349 339.372 401.158 339.176 400.918 339.029C400.678 338.883 400.411 338.81 400.118 338.81C399.831 338.81 399.564 338.883 399.318 339.029C399.078 339.176 398.885 339.372 398.738 339.618C398.598 339.858 398.527 340.128 398.527 340.427C398.527 340.726 398.598 340.998 398.738 341.244C398.885 341.49 399.078 341.687 399.318 341.833C399.564 341.979 399.831 342.053 400.118 342.053Z" fill="#666666"/>
</svg>
