<svg width="796" height="225" viewBox="0 0 796 225" fill="none" xmlns="http://www.w3.org/2000/svg">
<path d="M22.9141 114.859V110.383L2.75781 122.266V125.734L22.9141 137.617V133.141L6.78906 124.211V123.789L22.9141 114.859ZM44.1016 113.148C40.4688 113.148 37.8203 114.648 36.4844 117.461H36.0625V113.57H32.125V147.578H36.1797V135.062H36.625C37.7266 137.852 40.4219 139.422 44.1016 139.422C49.9844 139.422 53.8281 135.18 53.8281 128.664V123.93C53.8281 117.391 49.9844 113.148 44.1016 113.148ZM42.9531 116.805C47.1484 116.805 49.8203 119.805 49.8203 124.492V128.148C49.8203 132.836 47.1484 135.859 42.9531 135.859C38.7578 135.859 36.0859 132.859 36.0859 128.148V124.492C36.0859 119.805 38.7578 116.805 42.9531 116.805ZM62.1016 114.859L78.2031 123.789V124.211L62.1016 133.141V137.617L82.2578 125.734V122.266L62.1016 110.383V114.859ZM705.367 114.859V110.383L685.211 122.266V125.734L705.367 137.617V133.141L689.242 124.211V123.789L705.367 114.859ZM718.656 142.211L735.156 101.969H731.242L714.766 142.211H718.656ZM756.227 113.148C752.594 113.148 749.945 114.648 748.609 117.461H748.188V113.57H744.25V147.578H748.305V135.062H748.75C749.852 137.852 752.547 139.422 756.227 139.422C762.109 139.422 765.953 135.18 765.953 128.664V123.93C765.953 117.391 762.109 113.148 756.227 113.148ZM755.078 116.805C759.273 116.805 761.945 119.805 761.945 124.492V128.148C761.945 132.836 759.273 135.859 755.078 135.859C750.883 135.859 748.211 132.859 748.211 128.148V124.492C748.211 119.805 750.883 116.805 755.078 116.805ZM774.227 114.859L790.328 123.789V124.211L774.227 133.141V137.617L794.383 125.734V122.266L774.227 110.383V114.859Z" fill="#FFA11F"/>
<path d="M103.914 139V108.977H114.133V105.18H89.5703V108.977H99.7891V139H103.914ZM121.094 139H125.078V124.047C125.078 119.711 127.914 116.781 132.109 116.781C136.094 116.781 137.969 118.961 137.969 123.531V139H141.953V122.523C141.953 116.453 138.953 113.125 133.422 113.125C129.531 113.125 126.602 114.906 125.266 118.07H124.938V103.586H121.094V139ZM161.641 107.336C163.516 107.336 164.945 105.93 164.945 104.055C164.945 102.203 163.516 100.797 161.641 100.797C159.766 100.797 158.336 102.203 158.336 104.055C158.336 105.93 159.766 107.336 161.641 107.336ZM172.305 139V135.695H163.891V113.57H151.305V116.875H159.953V135.695H151.234V139H172.305ZM181.609 120.438C181.609 124.047 183.883 126.367 188.477 127.422L192.25 128.289C195.484 129.016 196.727 130.094 196.727 132.109C196.727 134.547 194.523 136.117 191.055 136.117C187.773 136.117 185.523 134.758 184.938 132.414H180.883C181.328 136.773 185.148 139.469 190.914 139.469C196.938 139.469 200.852 136.422 200.852 131.734C200.852 128.055 198.602 125.898 193.656 124.773L190.07 123.953C186.883 123.25 185.57 122.148 185.57 120.203C185.57 117.883 187.656 116.383 190.891 116.383C193.867 116.383 196 117.742 196.469 119.969H200.312C199.844 115.727 196.258 113.078 190.961 113.078C185.359 113.078 181.609 116.031 181.609 120.438ZM250.656 107.336C252.531 107.336 253.961 105.93 253.961 104.055C253.961 102.203 252.531 100.797 250.656 100.797C248.781 100.797 247.352 102.203 247.352 104.055C247.352 105.93 248.781 107.336 250.656 107.336ZM261.32 139V135.695H252.906V113.57H240.32V116.875H248.969V135.695H240.25V139H261.32ZM270.625 120.438C270.625 124.047 272.898 126.367 277.492 127.422L281.266 128.289C284.5 129.016 285.742 130.094 285.742 132.109C285.742 134.547 283.539 136.117 280.07 136.117C276.789 136.117 274.539 134.758 273.953 132.414H269.898C270.344 136.773 274.164 139.469 279.93 139.469C285.953 139.469 289.867 136.422 289.867 131.734C289.867 128.055 287.617 125.898 282.672 124.773L279.086 123.953C275.898 123.25 274.586 122.148 274.586 120.203C274.586 117.883 276.672 116.383 279.906 116.383C282.883 116.383 285.016 117.742 285.484 119.969H289.328C288.859 115.727 285.273 113.078 279.977 113.078C274.375 113.078 270.625 116.031 270.625 120.438ZM336.648 139.445C340.352 139.445 343.117 137.922 344.336 135.203H344.734V139.023H348.531V121.609C348.531 116.312 345.109 113.266 339.133 113.266C333.93 113.266 329.992 116.055 329.523 120.133H333.438C334.094 117.953 336.156 116.711 339.086 116.711C342.625 116.711 344.57 118.469 344.57 121.656V123.953L337.586 124.305C331.797 124.609 328.562 127.281 328.562 131.781C328.562 136.398 331.797 139.445 336.648 139.445ZM337.797 135.953C334.586 135.953 332.594 134.312 332.594 131.641C332.594 128.992 334.469 127.469 338.031 127.305L344.57 127V130C344.57 133.398 341.641 135.953 337.797 135.953ZM400.164 113.148C396.531 113.148 393.883 114.648 392.547 117.461H392.125V113.57H388.188V147.578H392.242V135.062H392.688C393.789 137.852 396.484 139.422 400.164 139.422C406.047 139.422 409.891 135.18 409.891 128.664V123.93C409.891 117.391 406.047 113.148 400.164 113.148ZM399.016 116.805C403.211 116.805 405.883 119.805 405.883 124.492V128.148C405.883 132.836 403.211 135.859 399.016 135.859C394.82 135.859 392.148 132.859 392.148 128.148V124.492C392.148 119.805 394.82 116.805 399.016 116.805ZM425.664 139.445C429.367 139.445 432.133 137.922 433.352 135.203H433.75V139.023H437.547V121.609C437.547 116.312 434.125 113.266 428.148 113.266C422.945 113.266 419.008 116.055 418.539 120.133H422.453C423.109 117.953 425.172 116.711 428.102 116.711C431.641 116.711 433.586 118.469 433.586 121.656V123.953L426.602 124.305C420.812 124.609 417.578 127.281 417.578 131.781C417.578 136.398 420.812 139.445 425.664 139.445ZM426.812 135.953C423.602 135.953 421.609 134.312 421.609 131.641C421.609 128.992 423.484 127.469 427.047 127.305L433.586 127V130C433.586 133.398 430.656 135.953 426.812 135.953ZM456.906 127.609C456.906 121.141 460.234 117.25 465.859 117.25C467.242 117.25 468.883 117.531 470.055 117.953V113.477C469.211 113.125 467.828 112.914 466.375 112.914C461.477 112.914 458.312 115.352 457.375 120.062H456.859V113.57H447.367V116.758H453.016V135.812H447.883V139H464.781V135.812H456.906V127.609ZM485.008 139.445C488.711 139.445 491.477 137.922 492.695 135.203H493.094V139.023H496.891V121.609C496.891 116.312 493.469 113.266 487.492 113.266C482.289 113.266 478.352 116.055 477.883 120.133H481.797C482.453 117.953 484.516 116.711 487.445 116.711C490.984 116.711 492.93 118.469 492.93 121.656V123.953L485.945 124.305C480.156 124.609 476.922 127.281 476.922 131.781C476.922 136.398 480.156 139.445 485.008 139.445ZM486.156 135.953C482.945 135.953 480.953 134.312 480.953 131.641C480.953 128.992 482.828 127.469 486.391 127.305L492.93 127V130C492.93 133.398 490 135.953 486.156 135.953ZM516.508 148.539C523.398 148.539 527.477 144.977 527.477 139V113.57H523.539V117.508H523.094C521.992 114.766 519.203 113.148 515.523 113.148C509.57 113.148 505.68 117.367 505.68 123.906V128.477C505.68 134.992 509.547 139.234 515.43 139.234C519.133 139.234 521.945 137.617 523.07 134.945H523.492V138.906C523.492 142.984 521.031 145.234 516.578 145.234C513.18 145.234 510.625 143.852 510.109 141.742H506.172C506.688 145.961 510.625 148.539 516.508 148.539ZM509.688 127.914V124.422C509.688 119.758 512.406 116.734 516.625 116.734C520.82 116.734 523.516 119.734 523.516 124.422V127.914C523.516 132.602 520.82 135.625 516.625 135.625C512.406 135.625 509.688 132.578 509.688 127.914ZM545.922 127.609C545.922 121.141 549.25 117.25 554.875 117.25C556.258 117.25 557.898 117.531 559.07 117.953V113.477C558.227 113.125 556.844 112.914 555.391 112.914C550.492 112.914 547.328 115.352 546.391 120.062H545.875V113.57H536.383V116.758H542.031V135.812H536.898V139H553.797V135.812H545.922V127.609ZM574.023 139.445C577.727 139.445 580.492 137.922 581.711 135.203H582.109V139.023H585.906V121.609C585.906 116.312 582.484 113.266 576.508 113.266C571.305 113.266 567.367 116.055 566.898 120.133H570.812C571.469 117.953 573.531 116.711 576.461 116.711C580 116.711 581.945 118.469 581.945 121.656V123.953L574.961 124.305C569.172 124.609 565.938 127.281 565.938 131.781C565.938 136.398 569.172 139.445 574.023 139.445ZM575.172 135.953C571.961 135.953 569.969 134.312 569.969 131.641C569.969 128.992 571.844 127.469 575.406 127.305L581.945 127V130C581.945 133.398 579.016 135.953 575.172 135.953ZM607.867 113.148C604.234 113.148 601.586 114.648 600.25 117.461H599.828V113.57H595.891V147.578H599.945V135.062H600.391C601.492 137.852 604.188 139.422 607.867 139.422C613.75 139.422 617.594 135.18 617.594 128.664V123.93C617.594 117.391 613.75 113.148 607.867 113.148ZM606.719 116.805C610.914 116.805 613.586 119.805 613.586 124.492V128.148C613.586 132.836 610.914 135.859 606.719 135.859C602.523 135.859 599.852 132.859 599.852 128.148V124.492C599.852 119.805 602.523 116.805 606.719 116.805ZM625.516 139H629.5V124.047C629.5 119.711 632.336 116.781 636.531 116.781C640.516 116.781 642.391 118.961 642.391 123.531V139H646.375V122.523C646.375 116.453 643.375 113.125 637.844 113.125C633.953 113.125 631.023 114.906 629.688 118.07H629.359V103.586H625.516V139ZM665.617 139.141C667.938 139.141 669.859 137.195 669.859 134.805C669.859 132.438 667.938 130.492 665.617 130.492C663.297 130.492 661.375 132.438 661.375 134.805C661.375 137.195 663.297 139.141 665.617 139.141Z" fill="#666666"/>
<path d="M368.803 56.5762H362.87L363.661 52.2168H369.269L369.497 50.8545H363.89L364.637 46.7412H370.561L370.798 45.3174H363.31L361.077 58H368.565L368.803 56.5762ZM379.912 58L380.123 56.7607H376.977L379.104 44.7197H374.384L374.173 45.959H377.407L375.482 56.7607H372.222L372.011 58H379.912ZM388.279 49.5713C389.029 49.5713 389.612 49.8057 390.028 50.2744C390.444 50.7432 390.608 51.3438 390.521 52.0762C390.515 52.1465 390.506 52.2168 390.494 52.2871C390.488 52.3574 390.482 52.4248 390.477 52.4893H385.405C385.423 52.3896 385.44 52.29 385.458 52.1904C385.481 52.0908 385.502 51.9941 385.52 51.9004C385.654 51.1738 385.968 50.6055 386.46 50.1953C386.952 49.7793 387.559 49.5713 388.279 49.5713ZM391.338 55.5391H389.861C389.756 55.9258 389.483 56.248 389.044 56.5059C388.61 56.7578 388.112 56.8838 387.55 56.8838C386.765 56.8838 386.152 56.6436 385.713 56.1631C385.279 55.6826 385.104 55.0439 385.186 54.2471C385.191 54.1533 385.2 54.0537 385.212 53.9482C385.224 53.8369 385.238 53.7285 385.256 53.623H391.769L391.874 52.8584C391.892 52.7295 391.906 52.6006 391.918 52.4717C391.936 52.3369 391.95 52.1992 391.962 52.0586C392.038 51.3379 391.933 50.6934 391.646 50.125C391.364 49.5566 390.942 49.1084 390.38 48.7803C389.817 48.4521 389.155 48.2881 388.394 48.2881C387.614 48.2881 386.917 48.4375 386.302 48.7363C385.687 49.0293 385.186 49.4512 384.799 50.002C384.412 50.5469 384.157 51.1973 384.034 51.9531L383.85 53.1484C383.803 53.4707 383.768 53.7344 383.744 53.9395C383.727 54.1387 383.718 54.3262 383.718 54.502C383.718 55.6387 384.052 56.5352 384.72 57.1914C385.388 57.8477 386.305 58.1758 387.471 58.1758C388.127 58.1758 388.733 58.0615 389.29 57.833C389.847 57.6045 390.307 57.291 390.67 56.8926C391.039 56.4941 391.262 56.043 391.338 55.5391ZM395.882 51.5576C395.993 50.96 396.201 50.4941 396.506 50.1602C396.811 49.8203 397.174 49.6504 397.596 49.6504C397.918 49.6504 398.161 49.7441 398.325 49.9316C398.489 50.1191 398.571 50.4004 398.571 50.7754C398.571 50.8809 398.565 50.9893 398.554 51.1006C398.548 51.2061 398.533 51.3145 398.51 51.4258L397.35 58H398.686L399.819 51.5488C399.931 50.9512 400.136 50.4854 400.435 50.1514C400.739 49.8174 401.097 49.6504 401.507 49.6504C401.823 49.6504 402.063 49.7441 402.228 49.9316C402.392 50.1191 402.474 50.4004 402.474 50.7754C402.474 50.8809 402.468 50.9893 402.456 51.1006C402.444 51.2061 402.43 51.3174 402.412 51.4346L401.252 58H402.597L403.801 51.1357C403.859 50.8193 403.889 50.5234 403.889 50.248C403.889 49.6328 403.728 49.1523 403.405 48.8066C403.083 48.4609 402.629 48.2881 402.043 48.2881C401.604 48.2881 401.211 48.417 400.865 48.6748C400.525 48.9326 400.25 49.3105 400.039 49.8086H399.881C399.852 49.3398 399.693 48.9707 399.406 48.7012C399.125 48.4258 398.753 48.2881 398.29 48.2881C397.862 48.2881 397.479 48.4229 397.139 48.6924C396.799 48.9561 396.529 49.3281 396.33 49.8086H396.172L396.4 48.4639H395.082L393.403 58H394.748L395.882 51.5576ZM410.533 49.5713C411.283 49.5713 411.866 49.8057 412.282 50.2744C412.698 50.7432 412.862 51.3438 412.774 52.0762C412.769 52.1465 412.76 52.2168 412.748 52.2871C412.742 52.3574 412.736 52.4248 412.73 52.4893H407.659C407.677 52.3896 407.694 52.29 407.712 52.1904C407.735 52.0908 407.756 51.9941 407.773 51.9004C407.908 51.1738 408.222 50.6055 408.714 50.1953C409.206 49.7793 409.812 49.5713 410.533 49.5713ZM413.592 55.5391H412.115C412.01 55.9258 411.737 56.248 411.298 56.5059C410.864 56.7578 410.366 56.8838 409.804 56.8838C409.019 56.8838 408.406 56.6436 407.967 56.1631C407.533 55.6826 407.357 55.0439 407.439 54.2471C407.445 54.1533 407.454 54.0537 407.466 53.9482C407.478 53.8369 407.492 53.7285 407.51 53.623H414.022L414.128 52.8584C414.146 52.7295 414.16 52.6006 414.172 52.4717C414.189 52.3369 414.204 52.1992 414.216 52.0586C414.292 51.3379 414.187 50.6934 413.899 50.125C413.618 49.5566 413.196 49.1084 412.634 48.7803C412.071 48.4521 411.409 48.2881 410.647 48.2881C409.868 48.2881 409.171 48.4375 408.556 48.7363C407.94 49.0293 407.439 49.4512 407.053 50.002C406.666 50.5469 406.411 51.1973 406.288 51.9531L406.104 53.1484C406.057 53.4707 406.021 53.7344 405.998 53.9395C405.98 54.1387 405.972 54.3262 405.972 54.502C405.972 55.6387 406.306 56.5352 406.974 57.1914C407.642 57.8477 408.559 58.1758 409.725 58.1758C410.381 58.1758 410.987 58.0615 411.544 57.833C412.101 57.6045 412.561 57.291 412.924 56.8926C413.293 56.4941 413.516 56.043 413.592 55.5391ZM416.352 58H417.846L418.839 52.3662C418.985 51.54 419.319 50.8838 419.841 50.3975C420.362 49.9053 420.975 49.6592 421.678 49.6592C422.299 49.6592 422.791 49.8438 423.154 50.2129C423.523 50.5762 423.708 51.0625 423.708 51.6719C423.708 51.7949 423.699 51.9414 423.682 52.1113C423.664 52.2812 423.641 52.46 423.611 52.6475L422.662 58H424.156L425.097 52.6299C425.149 52.3018 425.185 52.041 425.202 51.8477C425.226 51.6543 425.237 51.4785 425.237 51.3203C425.237 50.418 424.962 49.6885 424.411 49.1318C423.866 48.5693 423.14 48.2881 422.231 48.2881C421.552 48.2881 420.951 48.4521 420.43 48.7803C419.908 49.1025 419.524 49.542 419.278 50.0986H419.182L419.463 48.4639H418.03L416.352 58ZM431.882 45.9062L431.434 48.4902H428.885L428.674 49.7646H431.214L430.247 55.0029C430.218 55.1494 430.197 55.2871 430.186 55.416C430.174 55.5391 430.168 55.6562 430.168 55.7676C430.168 56.5059 430.417 57.0713 430.915 57.4639C431.419 57.8506 432.148 58.0439 433.104 58.0439C433.432 58.0439 433.792 58.0322 434.185 58.0088C434.577 57.9912 434.876 57.9736 435.081 57.9561L435.292 56.6904C435.104 56.708 434.853 56.7227 434.536 56.7344C434.22 56.7402 433.883 56.7432 433.525 56.7432C432.307 56.7432 431.697 56.3096 431.697 55.4424C431.697 55.3721 431.7 55.3018 431.706 55.2314C431.712 55.1553 431.724 55.0762 431.741 54.9941L432.708 49.7646H436.558L436.777 48.4902H432.91L433.358 45.9062H431.882Z" fill="#AAAAAA"/>
<path d="M355.928 196.493C355.928 196.476 355.928 196.455 355.928 196.432C355.934 196.408 355.937 196.388 355.937 196.37H354.372C354.372 196.376 354.372 196.382 354.372 196.388C354.372 196.394 354.369 196.402 354.363 196.414C354.211 197.164 353.877 197.747 353.361 198.163C352.852 198.573 352.21 198.778 351.437 198.778C350.534 198.778 349.831 198.512 349.327 197.979C348.823 197.439 348.571 196.687 348.571 195.72C348.571 195.479 348.58 195.242 348.598 195.008C348.621 194.768 348.65 194.557 348.686 194.375L349.072 192.169C349.289 191.003 349.696 190.109 350.294 189.488C350.897 188.861 351.653 188.548 352.562 188.548C353.376 188.548 354.023 188.771 354.504 189.216C354.99 189.661 355.233 190.256 355.233 191C355.233 191.088 355.23 191.17 355.225 191.246C355.225 191.316 355.219 191.401 355.207 191.501H356.736C356.754 191.384 356.766 191.272 356.771 191.167C356.783 191.056 356.789 190.95 356.789 190.851C356.789 190.101 356.613 189.441 356.262 188.873C355.916 188.305 355.43 187.859 354.803 187.537C354.182 187.215 353.464 187.054 352.649 187.054C351.255 187.054 350.112 187.502 349.222 188.398C348.337 189.295 347.751 190.59 347.464 192.283L347.112 194.296C347.077 194.489 347.048 194.715 347.024 194.973C347.001 195.225 346.989 195.468 346.989 195.702C346.989 196.64 347.162 197.451 347.508 198.137C347.859 198.822 348.357 199.35 349.002 199.719C349.646 200.088 350.408 200.272 351.287 200.272C352.113 200.272 352.863 200.114 353.537 199.798C354.211 199.476 354.756 199.03 355.172 198.462C355.594 197.894 355.846 197.237 355.928 196.493ZM362.212 200.167C363.36 200.167 364.304 199.845 365.042 199.2C365.786 198.556 366.264 197.645 366.475 196.467L366.712 195.14C366.741 194.94 366.762 194.753 366.773 194.577C366.791 194.401 366.8 194.249 366.8 194.12C366.8 193.358 366.639 192.69 366.316 192.116C365.994 191.542 365.54 191.097 364.954 190.78C364.368 190.458 363.677 190.297 362.88 190.297C361.796 190.297 360.879 190.628 360.129 191.29C359.379 191.946 358.904 192.846 358.705 193.988L358.477 195.307C358.447 195.488 358.424 195.67 358.406 195.852C358.395 196.033 358.389 196.215 358.389 196.396C358.389 197.141 358.547 197.797 358.863 198.365C359.186 198.928 359.634 199.37 360.208 199.692C360.782 200.009 361.45 200.167 362.212 200.167ZM362.854 191.615C363.598 191.615 364.195 191.844 364.646 192.301C365.104 192.758 365.332 193.361 365.332 194.111C365.332 194.24 365.326 194.375 365.314 194.516C365.309 194.656 365.297 194.791 365.279 194.92L365.06 196.159C364.901 197.021 364.588 197.686 364.119 198.154C363.65 198.617 363.056 198.849 362.335 198.849C361.585 198.849 360.981 198.62 360.524 198.163C360.073 197.7 359.848 197.088 359.848 196.326C359.848 196.191 359.854 196.054 359.865 195.913C359.877 195.767 359.897 195.605 359.927 195.43L360.138 194.226C360.284 193.411 360.598 192.772 361.078 192.31C361.559 191.847 362.15 191.615 362.854 191.615ZM368.971 200H370.465L371.458 194.366C371.604 193.54 371.938 192.884 372.46 192.397C372.981 191.905 373.594 191.659 374.297 191.659C374.918 191.659 375.41 191.844 375.773 192.213C376.143 192.576 376.327 193.062 376.327 193.672C376.327 193.795 376.318 193.941 376.301 194.111C376.283 194.281 376.26 194.46 376.23 194.647L375.281 200H376.775L377.716 194.63C377.769 194.302 377.804 194.041 377.821 193.848C377.845 193.654 377.856 193.479 377.856 193.32C377.856 192.418 377.581 191.688 377.03 191.132C376.485 190.569 375.759 190.288 374.851 190.288C374.171 190.288 373.57 190.452 373.049 190.78C372.527 191.103 372.144 191.542 371.897 192.099H371.801L372.082 190.464H370.649L368.971 200ZM384.501 187.906L384.053 190.49H381.504L381.293 191.765H383.833L382.866 197.003C382.837 197.149 382.816 197.287 382.805 197.416C382.793 197.539 382.787 197.656 382.787 197.768C382.787 198.506 383.036 199.071 383.534 199.464C384.038 199.851 384.768 200.044 385.723 200.044C386.051 200.044 386.411 200.032 386.804 200.009C387.196 199.991 387.495 199.974 387.7 199.956L387.911 198.69C387.724 198.708 387.472 198.723 387.155 198.734C386.839 198.74 386.502 198.743 386.145 198.743C384.926 198.743 384.316 198.31 384.316 197.442C384.316 197.372 384.319 197.302 384.325 197.231C384.331 197.155 384.343 197.076 384.36 196.994L385.327 191.765H389.177L389.396 190.49H385.529L385.978 187.906H384.501ZM396.533 191.571C397.283 191.571 397.866 191.806 398.282 192.274C398.698 192.743 398.862 193.344 398.774 194.076C398.769 194.146 398.76 194.217 398.748 194.287C398.742 194.357 398.736 194.425 398.73 194.489H393.659C393.677 194.39 393.694 194.29 393.712 194.19C393.735 194.091 393.756 193.994 393.773 193.9C393.908 193.174 394.222 192.605 394.714 192.195C395.206 191.779 395.812 191.571 396.533 191.571ZM399.592 197.539H398.115C398.01 197.926 397.737 198.248 397.298 198.506C396.864 198.758 396.366 198.884 395.804 198.884C395.019 198.884 394.406 198.644 393.967 198.163C393.533 197.683 393.357 197.044 393.439 196.247C393.445 196.153 393.454 196.054 393.466 195.948C393.478 195.837 393.492 195.729 393.51 195.623H400.022L400.128 194.858C400.146 194.729 400.16 194.601 400.172 194.472C400.189 194.337 400.204 194.199 400.216 194.059C400.292 193.338 400.187 192.693 399.899 192.125C399.618 191.557 399.196 191.108 398.634 190.78C398.071 190.452 397.409 190.288 396.647 190.288C395.868 190.288 395.171 190.438 394.556 190.736C393.94 191.029 393.439 191.451 393.053 192.002C392.666 192.547 392.411 193.197 392.288 193.953L392.104 195.148C392.057 195.471 392.021 195.734 391.998 195.939C391.98 196.139 391.972 196.326 391.972 196.502C391.972 197.639 392.306 198.535 392.974 199.191C393.642 199.848 394.559 200.176 395.725 200.176C396.381 200.176 396.987 200.062 397.544 199.833C398.101 199.604 398.561 199.291 398.924 198.893C399.293 198.494 399.516 198.043 399.592 197.539ZM402.352 200H403.846L404.839 194.366C404.985 193.54 405.319 192.884 405.841 192.397C406.362 191.905 406.975 191.659 407.678 191.659C408.299 191.659 408.791 191.844 409.154 192.213C409.523 192.576 409.708 193.062 409.708 193.672C409.708 193.795 409.699 193.941 409.682 194.111C409.664 194.281 409.641 194.46 409.611 194.647L408.662 200H410.156L411.097 194.63C411.149 194.302 411.185 194.041 411.202 193.848C411.226 193.654 411.237 193.479 411.237 193.32C411.237 192.418 410.962 191.688 410.411 191.132C409.866 190.569 409.14 190.288 408.231 190.288C407.552 190.288 406.951 190.452 406.43 190.78C405.908 191.103 405.524 191.542 405.278 192.099H405.182L405.463 190.464H404.03L402.352 200ZM417.882 187.906L417.434 190.49H414.885L414.674 191.765H417.214L416.247 197.003C416.218 197.149 416.197 197.287 416.186 197.416C416.174 197.539 416.168 197.656 416.168 197.768C416.168 198.506 416.417 199.071 416.915 199.464C417.419 199.851 418.148 200.044 419.104 200.044C419.432 200.044 419.792 200.032 420.185 200.009C420.577 199.991 420.876 199.974 421.081 199.956L421.292 198.69C421.104 198.708 420.853 198.723 420.536 198.734C420.22 198.74 419.883 198.743 419.525 198.743C418.307 198.743 417.697 198.31 417.697 197.442C417.697 197.372 417.7 197.302 417.706 197.231C417.712 197.155 417.724 197.076 417.741 196.994L418.708 191.765H422.558L422.777 190.49H418.91L419.358 187.906H417.882Z" fill="#AAAAAA"/>
<path d="M14.1123 195.395L14.4902 193.355C14.5312 193.074 14.5605 192.796 14.5781 192.521C14.6016 192.245 14.6133 191.973 14.6133 191.703C14.6133 190.766 14.4346 189.951 14.0771 189.26C13.7197 188.562 13.2158 188.021 12.5654 187.634C11.915 187.247 11.1475 187.054 10.2627 187.054C8.98535 187.054 7.91309 187.479 7.0459 188.328C6.18457 189.172 5.62207 190.353 5.3584 191.87L4.98926 193.909C4.94238 194.144 4.90723 194.407 4.88379 194.7C4.86621 194.987 4.85742 195.324 4.85742 195.711C4.85742 196.613 5.03613 197.407 5.39355 198.093C5.75098 198.772 6.25195 199.306 6.89648 199.692C7.54102 200.073 8.28516 200.264 9.12891 200.264C10.4707 200.264 11.5635 199.851 12.4072 199.024C13.2568 198.192 13.8252 196.982 14.1123 195.395ZM9.25195 198.796C8.38477 198.796 7.69629 198.506 7.18652 197.926C6.67676 197.34 6.42188 196.543 6.42188 195.535C6.42188 195.289 6.43066 195.055 6.44824 194.832C6.47168 194.604 6.50391 194.357 6.54492 194.094L6.90527 192.116C7.11621 190.933 7.50293 190.039 8.06543 189.436C8.62793 188.826 9.33691 188.521 10.1924 188.521C11.0596 188.521 11.7539 188.814 12.2754 189.4C12.7969 189.98 13.0576 190.751 13.0576 191.712C13.0576 191.899 13.0459 192.119 13.0225 192.371C13.0049 192.623 12.9814 192.843 12.9521 193.03L12.583 195.087C12.3721 196.288 11.9795 197.208 11.4053 197.847C10.8369 198.479 10.1191 198.796 9.25195 198.796ZM20.6689 200.158C21.6885 200.158 22.5469 199.836 23.2441 199.191C23.9414 198.547 24.3896 197.653 24.5889 196.511L24.8613 194.981C24.8965 194.8 24.9229 194.598 24.9404 194.375C24.958 194.146 24.9668 193.944 24.9668 193.769C24.9668 193.048 24.8291 192.43 24.5537 191.914C24.2783 191.398 23.8887 191.003 23.3848 190.728C22.8867 190.446 22.3037 190.306 21.6357 190.306C21.0088 190.306 20.4346 190.473 19.9131 190.807C19.3916 191.135 19.0225 191.58 18.8057 192.143H18.7002L18.999 190.464H17.5312L15.29 203.217H16.7842L17.6895 198.084H17.7598C17.8652 198.688 18.1875 199.186 18.7266 199.578C19.2715 199.965 19.9189 200.158 20.6689 200.158ZM20.4756 198.761C19.7607 198.761 19.1777 198.532 18.7266 198.075C18.2754 197.618 18.0498 197.035 18.0498 196.326C18.0498 196.191 18.0527 196.074 18.0586 195.975C18.0645 195.875 18.0732 195.781 18.085 195.693L18.3398 194.278C18.4863 193.464 18.8174 192.831 19.333 192.38C19.8486 191.923 20.4814 191.694 21.2314 191.694C21.9111 191.694 22.4473 191.908 22.8398 192.336C23.2383 192.764 23.4375 193.335 23.4375 194.05C23.4375 194.185 23.4287 194.334 23.4111 194.498C23.3994 194.662 23.3848 194.803 23.3672 194.92L23.1475 196.194C22.9951 197.038 22.6904 197.677 22.2334 198.11C21.7822 198.544 21.1963 198.761 20.4756 198.761ZM32.2793 191.571C33.0293 191.571 33.6123 191.806 34.0283 192.274C34.4443 192.743 34.6084 193.344 34.5205 194.076C34.5146 194.146 34.5059 194.217 34.4941 194.287C34.4883 194.357 34.4824 194.425 34.4766 194.489H29.4053C29.4229 194.39 29.4404 194.29 29.458 194.19C29.4814 194.091 29.502 193.994 29.5195 193.9C29.6543 193.174 29.9678 192.605 30.46 192.195C30.9521 191.779 31.5586 191.571 32.2793 191.571ZM35.3379 197.539H33.8613C33.7559 197.926 33.4834 198.248 33.0439 198.506C32.6104 198.758 32.1123 198.884 31.5498 198.884C30.7646 198.884 30.1523 198.644 29.7129 198.163C29.2793 197.683 29.1035 197.044 29.1855 196.247C29.1914 196.153 29.2002 196.054 29.2119 195.948C29.2236 195.837 29.2383 195.729 29.2559 195.623H35.7686L35.874 194.858C35.8916 194.729 35.9062 194.601 35.918 194.472C35.9355 194.337 35.9502 194.199 35.9619 194.059C36.0381 193.338 35.9326 192.693 35.6455 192.125C35.3643 191.557 34.9424 191.108 34.3799 190.78C33.8174 190.452 33.1553 190.288 32.3936 190.288C31.6143 190.288 30.917 190.438 30.3018 190.736C29.6865 191.029 29.1855 191.451 28.7988 192.002C28.4121 192.547 28.1572 193.197 28.0342 193.953L27.8496 195.148C27.8027 195.471 27.7676 195.734 27.7441 195.939C27.7266 196.139 27.7178 196.326 27.7178 196.502C27.7178 197.639 28.0518 198.535 28.7197 199.191C29.3877 199.848 30.3047 200.176 31.4707 200.176C32.127 200.176 32.7334 200.062 33.29 199.833C33.8467 199.604 34.3066 199.291 34.6699 198.893C35.0391 198.494 35.2617 198.043 35.3379 197.539ZM38.0977 200H39.5918L40.585 194.366C40.7314 193.54 41.0654 192.884 41.5869 192.397C42.1084 191.905 42.7207 191.659 43.4238 191.659C44.0449 191.659 44.5371 191.844 44.9004 192.213C45.2695 192.576 45.4541 193.062 45.4541 193.672C45.4541 193.795 45.4453 193.941 45.4277 194.111C45.4102 194.281 45.3867 194.46 45.3574 194.647L44.4082 200H45.9023L46.8428 194.63C46.8955 194.302 46.9307 194.041 46.9482 193.848C46.9717 193.654 46.9834 193.479 46.9834 193.32C46.9834 192.418 46.708 191.688 46.1572 191.132C45.6123 190.569 44.8857 190.288 43.9775 190.288C43.2979 190.288 42.6973 190.452 42.1758 190.78C41.6543 191.103 41.2705 191.542 41.0244 192.099H40.9277L41.209 190.464H39.7764L38.0977 200ZM55.5967 188.126C55.9482 188.126 56.2412 188.009 56.4756 187.774C56.7158 187.54 56.8359 187.247 56.8359 186.896C56.8359 186.55 56.7158 186.26 56.4756 186.025C56.2412 185.791 55.9482 185.674 55.5967 185.674C55.2451 185.674 54.9492 185.791 54.709 186.025C54.4746 186.26 54.3574 186.55 54.3574 186.896C54.3574 187.247 54.4746 187.54 54.709 187.774C54.9492 188.009 55.2451 188.126 55.5967 188.126ZM57.293 200L57.5039 198.761H54.3398L55.8164 190.464H51.0967L50.8945 191.703H54.1289L52.8721 198.761H49.6025L49.3916 200H57.293ZM60.3516 200H61.8457L62.8389 194.366C62.9854 193.54 63.3193 192.884 63.8408 192.397C64.3623 191.905 64.9746 191.659 65.6777 191.659C66.2988 191.659 66.791 191.844 67.1543 192.213C67.5234 192.576 67.708 193.062 67.708 193.672C67.708 193.795 67.6992 193.941 67.6816 194.111C67.6641 194.281 67.6406 194.46 67.6113 194.647L66.6621 200H68.1562L69.0967 194.63C69.1494 194.302 69.1846 194.041 69.2021 193.848C69.2256 193.654 69.2373 193.479 69.2373 193.32C69.2373 192.418 68.9619 191.688 68.4111 191.132C67.8662 190.569 67.1396 190.288 66.2314 190.288C65.5518 190.288 64.9512 190.452 64.4297 190.78C63.9082 191.103 63.5244 191.542 63.2783 192.099H63.1816L63.4629 190.464H62.0303L60.3516 200ZM76.2334 191.668C76.9482 191.668 77.5312 191.899 77.9824 192.362C78.4336 192.819 78.6592 193.414 78.6592 194.146C78.6592 194.246 78.6533 194.366 78.6416 194.507C78.6299 194.642 78.6094 194.785 78.5801 194.938L78.3867 196.062C78.2461 196.818 77.9268 197.431 77.4287 197.899C76.9307 198.368 76.3477 198.603 75.6797 198.603C74.9531 198.603 74.376 198.38 73.9482 197.935C73.5205 197.483 73.3066 196.871 73.3066 196.098C73.3066 195.986 73.3154 195.834 73.333 195.641C73.3564 195.447 73.3799 195.274 73.4033 195.122L73.5527 194.287C73.7051 193.479 74.0186 192.84 74.4932 192.371C74.9736 191.902 75.5537 191.668 76.2334 191.668ZM74.8447 203.577C76.0811 203.577 77.0684 203.27 77.8066 202.654C78.5508 202.039 79.0283 201.134 79.2393 199.938L80.9004 190.464H79.4062L79.0723 192.389H78.9668C78.8262 191.727 78.4951 191.214 77.9736 190.851C77.458 190.487 76.8047 190.306 76.0137 190.306C75 190.306 74.1416 190.64 73.4385 191.308C72.7354 191.976 72.2842 192.884 72.085 194.032L71.9004 195.104C71.8711 195.28 71.8447 195.494 71.8213 195.746C71.7979 195.992 71.7861 196.212 71.7861 196.405C71.7861 197.091 71.9297 197.703 72.2168 198.242C72.5039 198.775 72.8965 199.197 73.3945 199.508C73.8926 199.812 74.4609 199.965 75.0996 199.965C75.7559 199.965 76.3418 199.81 76.8574 199.499C77.3789 199.183 77.7451 198.761 77.9561 198.233H78.0615L77.7803 199.833C77.6338 200.665 77.3232 201.289 76.8486 201.705C76.3799 202.121 75.7529 202.329 74.9678 202.329C74.3115 202.329 73.7637 202.183 73.3242 201.89C72.8848 201.603 72.6621 201.236 72.6562 200.791C72.6562 200.773 72.6562 200.753 72.6562 200.729C72.6562 200.712 72.6562 200.694 72.6562 200.677H71.1797C71.1797 200.694 71.1797 200.715 71.1797 200.738C71.1797 200.762 71.1797 200.794 71.1797 200.835C71.1797 201.362 71.335 201.831 71.6455 202.241C71.9619 202.657 72.3955 202.982 72.9463 203.217C73.5029 203.457 74.1357 203.577 74.8447 203.577ZM31.374 208.906L30.9258 211.49H28.377L28.166 212.765H30.7061L29.7393 218.003C29.71 218.149 29.6895 218.287 29.6777 218.416C29.666 218.539 29.6602 218.656 29.6602 218.768C29.6602 219.506 29.9092 220.071 30.4072 220.464C30.9111 220.851 31.6406 221.044 32.5957 221.044C32.9238 221.044 33.2842 221.032 33.6768 221.009C34.0693 220.991 34.3682 220.974 34.5732 220.956L34.7842 219.69C34.5967 219.708 34.3447 219.723 34.0283 219.734C33.7119 219.74 33.375 219.743 33.0176 219.743C31.7988 219.743 31.1895 219.31 31.1895 218.442C31.1895 218.372 31.1924 218.302 31.1982 218.231C31.2041 218.155 31.2158 218.076 31.2334 217.994L32.2002 212.765H36.0498L36.2695 211.49H32.4023L32.8506 208.906H31.374ZM41.4111 221.158C42.0381 221.158 42.6035 221.023 43.1074 220.754C43.6113 220.479 43.9805 220.104 44.2148 219.629H44.3027L44.0654 221H45.4893L46.4561 215.498C46.5146 215.217 46.5557 214.994 46.5791 214.83C46.6025 214.66 46.6172 214.517 46.623 214.399C46.6348 214.276 46.6406 214.147 46.6406 214.013C46.6406 213.21 46.3389 212.565 45.7354 212.079C45.1318 211.587 44.332 211.341 43.3359 211.341C42.6914 211.341 42.0996 211.452 41.5605 211.675C41.0215 211.892 40.5762 212.193 40.2246 212.58C39.873 212.967 39.6475 213.412 39.5479 213.916H41.042C41.165 213.535 41.4258 213.228 41.8242 212.993C42.2227 212.753 42.6797 212.633 43.1953 212.633C43.793 212.633 44.2676 212.779 44.6191 213.072C44.9707 213.359 45.1465 213.746 45.1465 214.232C45.1465 214.326 45.1406 214.42 45.1289 214.514C45.1172 214.602 45.0996 214.719 45.0762 214.865L44.9883 215.349L42.6152 215.366C41.2969 215.378 40.2861 215.65 39.583 216.184C38.8799 216.717 38.5312 217.481 38.5371 218.478C38.543 219.005 38.666 219.471 38.9062 219.875C39.1523 220.279 39.4893 220.596 39.917 220.824C40.3506 221.047 40.8486 221.158 41.4111 221.158ZM41.9297 219.849C41.3613 219.849 40.9102 219.705 40.5762 219.418C40.2422 219.131 40.0781 218.747 40.084 218.267C40.0898 217.716 40.3096 217.288 40.7432 216.983C41.1826 216.679 41.8037 216.523 42.6064 216.518L44.7949 216.509L44.584 217.634C44.5078 218.062 44.3408 218.442 44.083 218.776C43.8252 219.104 43.5088 219.365 43.1338 219.559C42.7646 219.752 42.3633 219.849 41.9297 219.849ZM53.9795 212.668C54.6943 212.668 55.2773 212.899 55.7285 213.362C56.1797 213.819 56.4053 214.414 56.4053 215.146C56.4053 215.246 56.3994 215.366 56.3877 215.507C56.376 215.642 56.3555 215.785 56.3262 215.938L56.1328 217.062C55.9922 217.818 55.6729 218.431 55.1748 218.899C54.6768 219.368 54.0938 219.603 53.4258 219.603C52.6992 219.603 52.1221 219.38 51.6943 218.935C51.2666 218.483 51.0527 217.871 51.0527 217.098C51.0527 216.986 51.0615 216.834 51.0791 216.641C51.1025 216.447 51.126 216.274 51.1494 216.122L51.2988 215.287C51.4512 214.479 51.7646 213.84 52.2393 213.371C52.7197 212.902 53.2998 212.668 53.9795 212.668ZM52.5908 224.577C53.8271 224.577 54.8145 224.27 55.5527 223.654C56.2969 223.039 56.7744 222.134 56.9854 220.938L58.6465 211.464H57.1523L56.8184 213.389H56.7129C56.5723 212.727 56.2412 212.214 55.7197 211.851C55.2041 211.487 54.5508 211.306 53.7598 211.306C52.7461 211.306 51.8877 211.64 51.1846 212.308C50.4814 212.976 50.0303 213.884 49.8311 215.032L49.6465 216.104C49.6172 216.28 49.5908 216.494 49.5674 216.746C49.5439 216.992 49.5322 217.212 49.5322 217.405C49.5322 218.091 49.6758 218.703 49.9629 219.242C50.25 219.775 50.6426 220.197 51.1406 220.508C51.6387 220.812 52.207 220.965 52.8457 220.965C53.502 220.965 54.0879 220.81 54.6035 220.499C55.125 220.183 55.4912 219.761 55.7021 219.233H55.8076L55.5264 220.833C55.3799 221.665 55.0693 222.289 54.5947 222.705C54.126 223.121 53.499 223.329 52.7139 223.329C52.0576 223.329 51.5098 223.183 51.0703 222.89C50.6309 222.603 50.4082 222.236 50.4023 221.791C50.4023 221.773 50.4023 221.753 50.4023 221.729C50.4023 221.712 50.4023 221.694 50.4023 221.677H48.9258C48.9258 221.694 48.9258 221.715 48.9258 221.738C48.9258 221.762 48.9258 221.794 48.9258 221.835C48.9258 222.362 49.0811 222.831 49.3916 223.241C49.708 223.657 50.1416 223.982 50.6924 224.217C51.249 224.457 51.8818 224.577 52.5908 224.577Z" fill="#AAAAAA"/>
<path d="M706.364 196.493C706.364 196.476 706.364 196.455 706.364 196.432C706.37 196.408 706.373 196.388 706.373 196.37H704.809C704.809 196.376 704.809 196.382 704.809 196.388C704.809 196.394 704.806 196.402 704.8 196.414C704.647 197.164 704.313 197.747 703.798 198.163C703.288 198.573 702.646 198.778 701.873 198.778C700.971 198.778 700.268 198.512 699.764 197.979C699.26 197.439 699.008 196.687 699.008 195.72C699.008 195.479 699.017 195.242 699.034 195.008C699.058 194.768 699.087 194.557 699.122 194.375L699.509 192.169C699.726 191.003 700.133 190.109 700.73 189.488C701.334 188.861 702.09 188.548 702.998 188.548C703.812 188.548 704.46 188.771 704.94 189.216C705.427 189.661 705.67 190.256 705.67 191C705.67 191.088 705.667 191.17 705.661 191.246C705.661 191.316 705.655 191.401 705.644 191.501H707.173C707.19 191.384 707.202 191.272 707.208 191.167C707.22 191.056 707.226 190.95 707.226 190.851C707.226 190.101 707.05 189.441 706.698 188.873C706.353 188.305 705.866 187.859 705.239 187.537C704.618 187.215 703.9 187.054 703.086 187.054C701.691 187.054 700.549 187.502 699.658 188.398C698.773 189.295 698.188 190.59 697.9 192.283L697.549 194.296C697.514 194.489 697.484 194.715 697.461 194.973C697.438 195.225 697.426 195.468 697.426 195.702C697.426 196.64 697.599 197.451 697.944 198.137C698.296 198.822 698.794 199.35 699.438 199.719C700.083 200.088 700.845 200.272 701.724 200.272C702.55 200.272 703.3 200.114 703.974 199.798C704.647 199.476 705.192 199.03 705.608 198.462C706.03 197.894 706.282 197.237 706.364 196.493ZM716.349 200L716.56 198.761H713.413L715.54 186.72H710.82L710.609 187.959H713.844L711.919 198.761H708.658L708.447 200H716.349ZM723.775 200.167C724.924 200.167 725.867 199.845 726.605 199.2C727.35 198.556 727.827 197.645 728.038 196.467L728.275 195.14C728.305 194.94 728.325 194.753 728.337 194.577C728.354 194.401 728.363 194.249 728.363 194.12C728.363 193.358 728.202 192.69 727.88 192.116C727.558 191.542 727.104 191.097 726.518 190.78C725.932 190.458 725.24 190.297 724.443 190.297C723.359 190.297 722.442 190.628 721.692 191.29C720.942 191.946 720.468 192.846 720.269 193.988L720.04 195.307C720.011 195.488 719.987 195.67 719.97 195.852C719.958 196.033 719.952 196.215 719.952 196.396C719.952 197.141 720.11 197.797 720.427 198.365C720.749 198.928 721.197 199.37 721.771 199.692C722.346 200.009 723.014 200.167 723.775 200.167ZM724.417 191.615C725.161 191.615 725.759 191.844 726.21 192.301C726.667 192.758 726.896 193.361 726.896 194.111C726.896 194.24 726.89 194.375 726.878 194.516C726.872 194.656 726.86 194.791 726.843 194.92L726.623 196.159C726.465 197.021 726.151 197.686 725.683 198.154C725.214 198.617 724.619 198.849 723.898 198.849C723.148 198.849 722.545 198.62 722.088 198.163C721.637 197.7 721.411 197.088 721.411 196.326C721.411 196.191 721.417 196.054 721.429 195.913C721.44 195.767 721.461 195.605 721.49 195.43L721.701 194.226C721.848 193.411 722.161 192.772 722.642 192.31C723.122 191.847 723.714 191.615 724.417 191.615ZM732.187 193.18C732.187 193.754 732.359 194.234 732.705 194.621C733.057 195.008 733.607 195.327 734.357 195.579L735.676 196.01C736.191 196.174 736.561 196.364 736.783 196.581C737.006 196.798 737.117 197.067 737.117 197.39C737.117 197.853 736.912 198.225 736.502 198.506C736.098 198.787 735.564 198.928 734.902 198.928C734.24 198.928 733.71 198.793 733.312 198.523C732.919 198.254 732.69 197.87 732.626 197.372C732.626 197.366 732.626 197.36 732.626 197.354H731.149C731.149 197.372 731.149 197.387 731.149 197.398C731.149 197.41 731.149 197.425 731.149 197.442C731.173 197.999 731.34 198.482 731.65 198.893C731.961 199.303 732.392 199.622 732.942 199.851C733.493 200.073 734.135 200.185 734.867 200.185C735.629 200.185 736.294 200.059 736.862 199.807C737.437 199.555 737.882 199.2 738.198 198.743C738.521 198.286 738.682 197.759 738.682 197.161C738.682 196.575 738.503 196.095 738.146 195.72C737.788 195.339 737.211 195.017 736.414 194.753L735.157 194.34C734.636 194.17 734.261 193.979 734.032 193.769C733.81 193.558 733.698 193.297 733.698 192.986C733.698 192.553 733.892 192.198 734.278 191.923C734.671 191.647 735.178 191.51 735.799 191.51C736.391 191.51 736.859 191.639 737.205 191.896C737.551 192.154 737.75 192.526 737.803 193.013C737.803 193.019 737.803 193.024 737.803 193.03C737.803 193.03 737.803 193.033 737.803 193.039H739.253C739.253 193.021 739.253 193.004 739.253 192.986C739.259 192.969 739.262 192.945 739.262 192.916C739.238 192.371 739.083 191.902 738.796 191.51C738.509 191.111 738.113 190.807 737.609 190.596C737.111 190.385 736.52 190.279 735.834 190.279C735.119 190.279 734.486 190.402 733.936 190.648C733.385 190.889 732.954 191.229 732.644 191.668C732.339 192.102 732.187 192.605 732.187 193.18ZM748.033 188.126C748.385 188.126 748.678 188.009 748.912 187.774C749.152 187.54 749.272 187.247 749.272 186.896C749.272 186.55 749.152 186.26 748.912 186.025C748.678 185.791 748.385 185.674 748.033 185.674C747.682 185.674 747.386 185.791 747.146 186.025C746.911 186.26 746.794 186.55 746.794 186.896C746.794 187.247 746.911 187.54 747.146 187.774C747.386 188.009 747.682 188.126 748.033 188.126ZM749.729 200L749.94 198.761H746.776L748.253 190.464H743.533L743.331 191.703H746.565L745.309 198.761H742.039L741.828 200H749.729ZM752.788 200H754.282L755.275 194.366C755.422 193.54 755.756 192.884 756.277 192.397C756.799 191.905 757.411 191.659 758.114 191.659C758.735 191.659 759.228 191.844 759.591 192.213C759.96 192.576 760.145 193.062 760.145 193.672C760.145 193.795 760.136 193.941 760.118 194.111C760.101 194.281 760.077 194.46 760.048 194.647L759.099 200H760.593L761.533 194.63C761.586 194.302 761.621 194.041 761.639 193.848C761.662 193.654 761.674 193.479 761.674 193.32C761.674 192.418 761.398 191.688 760.848 191.132C760.303 190.569 759.576 190.288 758.668 190.288C757.988 190.288 757.388 190.452 756.866 190.78C756.345 191.103 755.961 191.542 755.715 192.099H755.618L755.899 190.464H754.467L752.788 200ZM768.67 191.668C769.385 191.668 769.968 191.899 770.419 192.362C770.87 192.819 771.096 193.414 771.096 194.146C771.096 194.246 771.09 194.366 771.078 194.507C771.066 194.642 771.046 194.785 771.017 194.938L770.823 196.062C770.683 196.818 770.363 197.431 769.865 197.899C769.367 198.368 768.784 198.603 768.116 198.603C767.39 198.603 766.812 198.38 766.385 197.935C765.957 197.483 765.743 196.871 765.743 196.098C765.743 195.986 765.752 195.834 765.77 195.641C765.793 195.447 765.816 195.274 765.84 195.122L765.989 194.287C766.142 193.479 766.455 192.84 766.93 192.371C767.41 191.902 767.99 191.668 768.67 191.668ZM767.281 203.577C768.518 203.577 769.505 203.27 770.243 202.654C770.987 202.039 771.465 201.134 771.676 199.938L773.337 190.464H771.843L771.509 192.389H771.403C771.263 191.727 770.932 191.214 770.41 190.851C769.895 190.487 769.241 190.306 768.45 190.306C767.437 190.306 766.578 190.64 765.875 191.308C765.172 191.976 764.721 192.884 764.521 194.032L764.337 195.104C764.308 195.28 764.281 195.494 764.258 195.746C764.234 195.992 764.223 196.212 764.223 196.405C764.223 197.091 764.366 197.703 764.653 198.242C764.94 198.775 765.333 199.197 765.831 199.508C766.329 199.812 766.897 199.965 767.536 199.965C768.192 199.965 768.778 199.81 769.294 199.499C769.815 199.183 770.182 198.761 770.393 198.233H770.498L770.217 199.833C770.07 200.665 769.76 201.289 769.285 201.705C768.816 202.121 768.189 202.329 767.404 202.329C766.748 202.329 766.2 202.183 765.761 201.89C765.321 201.603 765.099 201.236 765.093 200.791C765.093 200.773 765.093 200.753 765.093 200.729C765.093 200.712 765.093 200.694 765.093 200.677H763.616C763.616 200.694 763.616 200.715 763.616 200.738C763.616 200.762 763.616 200.794 763.616 200.835C763.616 201.362 763.771 201.831 764.082 202.241C764.398 202.657 764.832 202.982 765.383 203.217C765.939 203.457 766.572 203.577 767.281 203.577ZM729.374 208.906L728.926 211.49H726.377L726.166 212.765H728.706L727.739 218.003C727.71 218.149 727.689 218.287 727.678 218.416C727.666 218.539 727.66 218.656 727.66 218.768C727.66 219.506 727.909 220.071 728.407 220.464C728.911 220.851 729.641 221.044 730.596 221.044C730.924 221.044 731.284 221.032 731.677 221.009C732.069 220.991 732.368 220.974 732.573 220.956L732.784 219.69C732.597 219.708 732.345 219.723 732.028 219.734C731.712 219.74 731.375 219.743 731.018 219.743C729.799 219.743 729.189 219.31 729.189 218.442C729.189 218.372 729.192 218.302 729.198 218.231C729.204 218.155 729.216 218.076 729.233 217.994L730.2 212.765H734.05L734.27 211.49H730.402L730.851 208.906H729.374ZM739.411 221.158C740.038 221.158 740.604 221.023 741.107 220.754C741.611 220.479 741.98 220.104 742.215 219.629H742.303L742.065 221H743.489L744.456 215.498C744.515 215.217 744.556 214.994 744.579 214.83C744.603 214.66 744.617 214.517 744.623 214.399C744.635 214.276 744.641 214.147 744.641 214.013C744.641 213.21 744.339 212.565 743.735 212.079C743.132 211.587 742.332 211.341 741.336 211.341C740.691 211.341 740.1 211.452 739.561 211.675C739.021 211.892 738.576 212.193 738.225 212.58C737.873 212.967 737.647 213.412 737.548 213.916H739.042C739.165 213.535 739.426 213.228 739.824 212.993C740.223 212.753 740.68 212.633 741.195 212.633C741.793 212.633 742.268 212.779 742.619 213.072C742.971 213.359 743.146 213.746 743.146 214.232C743.146 214.326 743.141 214.42 743.129 214.514C743.117 214.602 743.1 214.719 743.076 214.865L742.988 215.349L740.615 215.366C739.297 215.378 738.286 215.65 737.583 216.184C736.88 216.717 736.531 217.481 736.537 218.478C736.543 219.005 736.666 219.471 736.906 219.875C737.152 220.279 737.489 220.596 737.917 220.824C738.351 221.047 738.849 221.158 739.411 221.158ZM739.93 219.849C739.361 219.849 738.91 219.705 738.576 219.418C738.242 219.131 738.078 218.747 738.084 218.267C738.09 217.716 738.31 217.288 738.743 216.983C739.183 216.679 739.804 216.523 740.606 216.518L742.795 216.509L742.584 217.634C742.508 218.062 742.341 218.442 742.083 218.776C741.825 219.104 741.509 219.365 741.134 219.559C740.765 219.752 740.363 219.849 739.93 219.849ZM751.979 212.668C752.694 212.668 753.277 212.899 753.729 213.362C754.18 213.819 754.405 214.414 754.405 215.146C754.405 215.246 754.399 215.366 754.388 215.507C754.376 215.642 754.355 215.785 754.326 215.938L754.133 217.062C753.992 217.818 753.673 218.431 753.175 218.899C752.677 219.368 752.094 219.603 751.426 219.603C750.699 219.603 750.122 219.38 749.694 218.935C749.267 218.483 749.053 217.871 749.053 217.098C749.053 216.986 749.062 216.834 749.079 216.641C749.103 216.447 749.126 216.274 749.149 216.122L749.299 215.287C749.451 214.479 749.765 213.84 750.239 213.371C750.72 212.902 751.3 212.668 751.979 212.668ZM750.591 224.577C751.827 224.577 752.814 224.27 753.553 223.654C754.297 223.039 754.774 222.134 754.985 220.938L756.646 211.464H755.152L754.818 213.389H754.713C754.572 212.727 754.241 212.214 753.72 211.851C753.204 211.487 752.551 211.306 751.76 211.306C750.746 211.306 749.888 211.64 749.185 212.308C748.481 212.976 748.03 213.884 747.831 215.032L747.646 216.104C747.617 216.28 747.591 216.494 747.567 216.746C747.544 216.992 747.532 217.212 747.532 217.405C747.532 218.091 747.676 218.703 747.963 219.242C748.25 219.775 748.643 220.197 749.141 220.508C749.639 220.812 750.207 220.965 750.846 220.965C751.502 220.965 752.088 220.81 752.604 220.499C753.125 220.183 753.491 219.761 753.702 219.233H753.808L753.526 220.833C753.38 221.665 753.069 222.289 752.595 222.705C752.126 223.121 751.499 223.329 750.714 223.329C750.058 223.329 749.51 223.183 749.07 222.89C748.631 222.603 748.408 222.236 748.402 221.791C748.402 221.773 748.402 221.753 748.402 221.729C748.402 221.712 748.402 221.694 748.402 221.677H746.926C746.926 221.694 746.926 221.715 746.926 221.738C746.926 221.762 746.926 221.794 746.926 221.835C746.926 222.362 747.081 222.831 747.392 223.241C747.708 223.657 748.142 223.982 748.692 224.217C749.249 224.457 749.882 224.577 750.591 224.577Z" fill="#AAAAAA"/>
<path d="M1 82V70H794V82" stroke="#AAAAAA"/>
<path d="M91 163V175H677V163" stroke="#AAAAAA"/>
<path d="M1 163V175H83V163" stroke="#AAAAAA"/>
<path d="M91 163V175H677V163" stroke="#AAAAAA"/>
<path d="M685 163V175H794V163" stroke="#AAAAAA"/>
</svg>
