<svg width="796" height="224" viewBox="0 0 796 224" fill="none" xmlns="http://www.w3.org/2000/svg">
<path d="M22.9141 114.859V110.383L2.75781 122.266V125.734L22.9141 137.617V133.141L6.78906 124.211V123.789L22.9141 114.859ZM44.1016 113.148C42.2891 113.148 40.7266 113.516 39.4141 114.25C38.1172 114.984 37.1406 116.055 36.4844 117.461H36.0625V113.57H32.125V147.578H36.1797V135.062H36.625C37.1719 136.469 38.0938 137.547 39.3906 138.297C40.7031 139.047 42.2734 139.422 44.1016 139.422C46.0703 139.422 47.7812 138.984 49.2344 138.109C50.6875 137.219 51.8125 135.961 52.6094 134.336C53.4219 132.711 53.8281 130.82 53.8281 128.664V123.93C53.8281 121.742 53.4219 119.844 52.6094 118.234C51.8125 116.625 50.6875 115.375 49.2344 114.484C47.7812 113.594 46.0703 113.148 44.1016 113.148ZM42.9531 116.805C45.0469 116.805 46.7109 117.5 47.9453 118.891C49.1953 120.281 49.8203 122.148 49.8203 124.492V128.148C49.8203 130.492 49.1953 132.367 47.9453 133.773C46.7109 135.164 45.0469 135.859 42.9531 135.859C40.8594 135.859 39.1875 135.164 37.9375 133.773C36.7031 132.383 36.0859 130.508 36.0859 128.148V124.492C36.0859 122.148 36.7031 120.281 37.9375 118.891C39.1875 117.5 40.8594 116.805 42.9531 116.805ZM62.1016 114.859V110.383L82.2578 122.266V125.734L62.1016 137.617V133.141L78.2266 124.211V123.789L62.1016 114.859ZM705.367 114.859V110.383L685.211 122.266V125.734L705.367 137.617V133.141L689.242 124.211V123.789L705.367 114.859ZM718.656 142.211L735.156 101.969H731.242L714.766 142.211H718.656ZM756.227 113.148C754.414 113.148 752.852 113.516 751.539 114.25C750.242 114.984 749.266 116.055 748.609 117.461H748.188V113.57H744.25V147.578H748.305V135.062H748.75C749.297 136.469 750.219 137.547 751.516 138.297C752.828 139.047 754.398 139.422 756.227 139.422C758.195 139.422 759.906 138.984 761.359 138.109C762.812 137.219 763.938 135.961 764.734 134.336C765.547 132.711 765.953 130.82 765.953 128.664V123.93C765.953 121.742 765.547 119.844 764.734 118.234C763.938 116.625 762.812 115.375 761.359 114.484C759.906 113.594 758.195 113.148 756.227 113.148ZM755.078 116.805C757.172 116.805 758.836 117.5 760.07 118.891C761.32 120.281 761.945 122.148 761.945 124.492V128.148C761.945 130.492 761.32 132.367 760.07 133.773C758.836 135.164 757.172 135.859 755.078 135.859C752.984 135.859 751.312 135.164 750.062 133.773C748.828 132.383 748.211 130.508 748.211 128.148V124.492C748.211 122.148 748.828 120.281 750.062 118.891C751.312 117.5 752.984 116.805 755.078 116.805ZM774.227 114.859V110.383L794.383 122.266V125.734L774.227 137.617V133.141L790.352 124.211V123.789L774.227 114.859Z" fill="#FFA11F"/>
<path d="M103.914 139V108.977H114.133V105.18H89.5703V108.977H99.7891V139H103.914ZM121.094 139H125.078V124.047C125.078 121.875 125.719 120.125 127 118.797C128.297 117.453 130 116.781 132.109 116.781C134.109 116.781 135.586 117.336 136.539 118.445C137.492 119.555 137.969 121.25 137.969 123.531V139H141.953V122.523C141.953 119.477 141.219 117.148 139.75 115.539C138.297 113.93 136.188 113.125 133.422 113.125C131.484 113.125 129.805 113.555 128.383 114.414C126.961 115.273 125.922 116.492 125.266 118.07H124.938V103.586H121.094V139ZM161.641 107.336C162.578 107.336 163.359 107.023 163.984 106.398C164.625 105.773 164.945 104.992 164.945 104.055C164.945 103.133 164.625 102.359 163.984 101.734C163.359 101.109 162.578 100.797 161.641 100.797C160.703 100.797 159.914 101.109 159.273 101.734C158.648 102.359 158.336 103.133 158.336 104.055C158.336 104.992 158.648 105.773 159.273 106.398C159.914 107.023 160.703 107.336 161.641 107.336ZM172.305 139V135.695H163.891V113.57H151.305V116.875H159.953V135.695H151.234V139H172.305ZM181.609 120.438C181.609 124.031 183.898 126.359 188.477 127.422L192.25 128.289C193.859 128.648 195.008 129.125 195.695 129.719C196.383 130.297 196.727 131.094 196.727 132.109C196.727 133.328 196.211 134.305 195.18 135.039C194.164 135.758 192.789 136.117 191.055 136.117C189.414 136.117 188.055 135.797 186.977 135.156C185.914 134.5 185.234 133.586 184.938 132.414H180.883C181.102 134.602 182.109 136.328 183.906 137.594C185.703 138.844 188.039 139.469 190.914 139.469C193.93 139.469 196.336 138.766 198.133 137.359C199.945 135.953 200.852 134.078 200.852 131.734C200.852 129.891 200.266 128.414 199.094 127.305C197.938 126.18 196.125 125.336 193.656 124.773L190.07 123.953C188.477 123.594 187.328 123.125 186.625 122.547C185.922 121.953 185.57 121.172 185.57 120.203C185.57 119.047 186.055 118.125 187.023 117.438C187.992 116.734 189.281 116.383 190.891 116.383C192.375 116.383 193.617 116.703 194.617 117.344C195.617 117.984 196.234 118.859 196.469 119.969H200.312C200.078 117.844 199.125 116.164 197.453 114.93C195.781 113.695 193.617 113.078 190.961 113.078C188.164 113.078 185.906 113.75 184.188 115.094C182.469 116.438 181.609 118.219 181.609 120.438ZM250.656 107.336C251.594 107.336 252.375 107.023 253 106.398C253.641 105.773 253.961 104.992 253.961 104.055C253.961 103.133 253.641 102.359 253 101.734C252.375 101.109 251.594 100.797 250.656 100.797C249.719 100.797 248.93 101.109 248.289 101.734C247.664 102.359 247.352 103.133 247.352 104.055C247.352 104.992 247.664 105.773 248.289 106.398C248.93 107.023 249.719 107.336 250.656 107.336ZM261.32 139V135.695H252.906V113.57H240.32V116.875H248.969V135.695H240.25V139H261.32ZM270.625 120.438C270.625 124.031 272.914 126.359 277.492 127.422L281.266 128.289C282.875 128.648 284.023 129.125 284.711 129.719C285.398 130.297 285.742 131.094 285.742 132.109C285.742 133.328 285.227 134.305 284.195 135.039C283.18 135.758 281.805 136.117 280.07 136.117C278.43 136.117 277.07 135.797 275.992 135.156C274.93 134.5 274.25 133.586 273.953 132.414H269.898C270.117 134.602 271.125 136.328 272.922 137.594C274.719 138.844 277.055 139.469 279.93 139.469C282.945 139.469 285.352 138.766 287.148 137.359C288.961 135.953 289.867 134.078 289.867 131.734C289.867 129.891 289.281 128.414 288.109 127.305C286.953 126.18 285.141 125.336 282.672 124.773L279.086 123.953C277.492 123.594 276.344 123.125 275.641 122.547C274.938 121.953 274.586 121.172 274.586 120.203C274.586 119.047 275.07 118.125 276.039 117.438C277.008 116.734 278.297 116.383 279.906 116.383C281.391 116.383 282.633 116.703 283.633 117.344C284.633 117.984 285.25 118.859 285.484 119.969H289.328C289.094 117.844 288.141 116.164 286.469 114.93C284.797 113.695 282.633 113.078 279.977 113.078C277.18 113.078 274.922 113.75 273.203 115.094C271.484 116.438 270.625 118.219 270.625 120.438ZM336.648 139.445C338.508 139.445 340.102 139.078 341.43 138.344C342.758 137.609 343.727 136.562 344.336 135.203H344.734V139.023H348.531V121.609C348.531 118.969 347.711 116.922 346.07 115.469C344.43 114 342.117 113.266 339.133 113.266C337.398 113.266 335.836 113.555 334.445 114.133C333.055 114.711 331.922 115.516 331.047 116.547C330.188 117.578 329.68 118.773 329.523 120.133H333.438C333.781 119.039 334.438 118.195 335.406 117.602C336.391 117.008 337.617 116.711 339.086 116.711C340.852 116.711 342.203 117.141 343.141 118C344.094 118.844 344.57 120.062 344.57 121.656V123.953L337.586 124.305C334.695 124.461 332.469 125.188 330.906 126.484C329.344 127.766 328.562 129.531 328.562 131.781C328.562 134.094 329.305 135.953 330.789 137.359C332.273 138.75 334.227 139.445 336.648 139.445ZM337.797 135.953C336.188 135.953 334.914 135.57 333.977 134.805C333.055 134.023 332.594 132.969 332.594 131.641C332.594 128.938 334.406 127.492 338.031 127.305L344.57 127V130C344.57 131.125 344.273 132.141 343.68 133.047C343.086 133.938 342.273 134.648 341.242 135.18C340.227 135.695 339.078 135.953 337.797 135.953ZM400.164 113.148C398.352 113.148 396.789 113.516 395.477 114.25C394.18 114.984 393.203 116.055 392.547 117.461H392.125V113.57H388.188V147.578H392.242V135.062H392.688C393.234 136.469 394.156 137.547 395.453 138.297C396.766 139.047 398.336 139.422 400.164 139.422C402.133 139.422 403.844 138.984 405.297 138.109C406.75 137.219 407.875 135.961 408.672 134.336C409.484 132.711 409.891 130.82 409.891 128.664V123.93C409.891 121.742 409.484 119.844 408.672 118.234C407.875 116.625 406.75 115.375 405.297 114.484C403.844 113.594 402.133 113.148 400.164 113.148ZM399.016 116.805C401.109 116.805 402.773 117.5 404.008 118.891C405.258 120.281 405.883 122.148 405.883 124.492V128.148C405.883 130.492 405.258 132.367 404.008 133.773C402.773 135.164 401.109 135.859 399.016 135.859C396.922 135.859 395.25 135.164 394 133.773C392.766 132.383 392.148 130.508 392.148 128.148V124.492C392.148 122.148 392.766 120.281 394 118.891C395.25 117.5 396.922 116.805 399.016 116.805ZM425.664 139.445C427.523 139.445 429.117 139.078 430.445 138.344C431.773 137.609 432.742 136.562 433.352 135.203H433.75V139.023H437.547V121.609C437.547 118.969 436.727 116.922 435.086 115.469C433.445 114 431.133 113.266 428.148 113.266C426.414 113.266 424.852 113.555 423.461 114.133C422.07 114.711 420.938 115.516 420.062 116.547C419.203 117.578 418.695 118.773 418.539 120.133H422.453C422.797 119.039 423.453 118.195 424.422 117.602C425.406 117.008 426.633 116.711 428.102 116.711C429.867 116.711 431.219 117.141 432.156 118C433.109 118.844 433.586 120.062 433.586 121.656V123.953L426.602 124.305C423.711 124.461 421.484 125.188 419.922 126.484C418.359 127.766 417.578 129.531 417.578 131.781C417.578 134.094 418.32 135.953 419.805 137.359C421.289 138.75 423.242 139.445 425.664 139.445ZM426.812 135.953C425.203 135.953 423.93 135.57 422.992 134.805C422.07 134.023 421.609 132.969 421.609 131.641C421.609 128.938 423.422 127.492 427.047 127.305L433.586 127V130C433.586 131.125 433.289 132.141 432.695 133.047C432.102 133.938 431.289 134.648 430.258 135.18C429.242 135.695 428.094 135.953 426.812 135.953ZM456.906 127.609C456.906 124.375 457.695 121.844 459.273 120.016C460.852 118.172 463.047 117.25 465.859 117.25C466.562 117.25 467.289 117.312 468.039 117.438C468.805 117.562 469.477 117.734 470.055 117.953V113.477C469.648 113.305 469.117 113.172 468.461 113.078C467.805 112.969 467.109 112.914 466.375 112.914C463.922 112.914 461.922 113.516 460.375 114.719C458.844 115.922 457.844 117.703 457.375 120.062H456.859V113.57H447.367V116.758H453.016V139H456.906V127.609ZM464.781 139V135.812H447.883V139H464.781ZM485.008 139.445C486.867 139.445 488.461 139.078 489.789 138.344C491.117 137.609 492.086 136.562 492.695 135.203H493.094V139.023H496.891V121.609C496.891 118.969 496.07 116.922 494.43 115.469C492.789 114 490.477 113.266 487.492 113.266C485.758 113.266 484.195 113.555 482.805 114.133C481.414 114.711 480.281 115.516 479.406 116.547C478.547 117.578 478.039 118.773 477.883 120.133H481.797C482.141 119.039 482.797 118.195 483.766 117.602C484.75 117.008 485.977 116.711 487.445 116.711C489.211 116.711 490.562 117.141 491.5 118C492.453 118.844 492.93 120.062 492.93 121.656V123.953L485.945 124.305C483.055 124.461 480.828 125.188 479.266 126.484C477.703 127.766 476.922 129.531 476.922 131.781C476.922 134.094 477.664 135.953 479.148 137.359C480.633 138.75 482.586 139.445 485.008 139.445ZM486.156 135.953C484.547 135.953 483.273 135.57 482.336 134.805C481.414 134.023 480.953 132.969 480.953 131.641C480.953 128.938 482.766 127.492 486.391 127.305L492.93 127V130C492.93 131.125 492.633 132.141 492.039 133.047C491.445 133.938 490.633 134.648 489.602 135.18C488.586 135.695 487.438 135.953 486.156 135.953ZM509.688 127.914V124.422C509.688 122.094 510.312 120.234 511.562 118.844C512.828 117.438 514.516 116.734 516.625 116.734C518.719 116.734 520.391 117.438 521.641 118.844C522.891 120.234 523.516 122.094 523.516 124.422V127.914C523.516 130.258 522.891 132.133 521.641 133.539C520.391 134.93 518.719 135.625 516.625 135.625C514.516 135.625 512.828 134.922 511.562 133.516C510.312 132.109 509.688 130.242 509.688 127.914ZM516.508 148.539C518.82 148.539 520.789 148.156 522.414 147.391C524.055 146.641 525.305 145.547 526.164 144.109C527.039 142.688 527.477 140.984 527.477 139V113.57H523.539V117.508H523.094C522.547 116.133 521.609 115.062 520.281 114.297C518.953 113.531 517.367 113.148 515.523 113.148C513.539 113.148 511.805 113.594 510.32 114.484C508.852 115.359 507.711 116.609 506.898 118.234C506.086 119.844 505.68 121.734 505.68 123.906V128.477C505.68 130.633 506.086 132.523 506.898 134.148C507.711 135.773 508.844 137.031 510.297 137.922C511.766 138.797 513.477 139.234 515.43 139.234C517.273 139.234 518.867 138.852 520.211 138.086C521.555 137.32 522.508 136.273 523.07 134.945H523.492V138.906C523.492 140.938 522.898 142.5 521.711 143.594C520.523 144.688 518.812 145.234 516.578 145.234C514.875 145.234 513.438 144.914 512.266 144.273C511.094 143.633 510.375 142.789 510.109 141.742H506.172C506.438 143.852 507.492 145.508 509.336 146.711C511.18 147.93 513.57 148.539 516.508 148.539ZM545.922 127.609C545.922 124.375 546.711 121.844 548.289 120.016C549.867 118.172 552.062 117.25 554.875 117.25C555.578 117.25 556.305 117.312 557.055 117.438C557.82 117.562 558.492 117.734 559.07 117.953V113.477C558.664 113.305 558.133 113.172 557.477 113.078C556.82 112.969 556.125 112.914 555.391 112.914C552.938 112.914 550.938 113.516 549.391 114.719C547.859 115.922 546.859 117.703 546.391 120.062H545.875V113.57H536.383V116.758H542.031V139H545.922V127.609ZM553.797 139V135.812H536.898V139H553.797ZM574.023 139.445C575.883 139.445 577.477 139.078 578.805 138.344C580.133 137.609 581.102 136.562 581.711 135.203H582.109V139.023H585.906V121.609C585.906 118.969 585.086 116.922 583.445 115.469C581.805 114 579.492 113.266 576.508 113.266C574.773 113.266 573.211 113.555 571.82 114.133C570.43 114.711 569.297 115.516 568.422 116.547C567.562 117.578 567.055 118.773 566.898 120.133H570.812C571.156 119.039 571.812 118.195 572.781 117.602C573.766 117.008 574.992 116.711 576.461 116.711C578.227 116.711 579.578 117.141 580.516 118C581.469 118.844 581.945 120.062 581.945 121.656V123.953L574.961 124.305C572.07 124.461 569.844 125.188 568.281 126.484C566.719 127.766 565.938 129.531 565.938 131.781C565.938 134.094 566.68 135.953 568.164 137.359C569.648 138.75 571.602 139.445 574.023 139.445ZM575.172 135.953C573.562 135.953 572.289 135.57 571.352 134.805C570.43 134.023 569.969 132.969 569.969 131.641C569.969 128.938 571.781 127.492 575.406 127.305L581.945 127V130C581.945 131.125 581.648 132.141 581.055 133.047C580.461 133.938 579.648 134.648 578.617 135.18C577.602 135.695 576.453 135.953 575.172 135.953ZM607.867 113.148C606.055 113.148 604.492 113.516 603.18 114.25C601.883 114.984 600.906 116.055 600.25 117.461H599.828V113.57H595.891V147.578H599.945V135.062H600.391C600.938 136.469 601.859 137.547 603.156 138.297C604.469 139.047 606.039 139.422 607.867 139.422C609.836 139.422 611.547 138.984 613 138.109C614.453 137.219 615.578 135.961 616.375 134.336C617.188 132.711 617.594 130.82 617.594 128.664V123.93C617.594 121.742 617.188 119.844 616.375 118.234C615.578 116.625 614.453 115.375 613 114.484C611.547 113.594 609.836 113.148 607.867 113.148ZM606.719 116.805C608.812 116.805 610.477 117.5 611.711 118.891C612.961 120.281 613.586 122.148 613.586 124.492V128.148C613.586 130.492 612.961 132.367 611.711 133.773C610.477 135.164 608.812 135.859 606.719 135.859C604.625 135.859 602.953 135.164 601.703 133.773C600.469 132.383 599.852 130.508 599.852 128.148V124.492C599.852 122.148 600.469 120.281 601.703 118.891C602.953 117.5 604.625 116.805 606.719 116.805ZM625.516 139H629.5V124.047C629.5 121.875 630.141 120.125 631.422 118.797C632.719 117.453 634.422 116.781 636.531 116.781C638.531 116.781 640.008 117.336 640.961 118.445C641.914 119.555 642.391 121.25 642.391 123.531V139H646.375V122.523C646.375 119.477 645.641 117.148 644.172 115.539C642.719 113.93 640.609 113.125 637.844 113.125C635.906 113.125 634.227 113.555 632.805 114.414C631.383 115.273 630.344 116.492 629.688 118.07H629.359V103.586H625.516V139ZM665.617 139.141C666.398 139.141 667.109 138.945 667.75 138.555C668.391 138.164 668.898 137.641 669.273 136.984C669.664 136.328 669.859 135.602 669.859 134.805C669.859 134.008 669.664 133.289 669.273 132.648C668.898 131.992 668.391 131.469 667.75 131.078C667.109 130.688 666.398 130.492 665.617 130.492C664.852 130.492 664.141 130.688 663.484 131.078C662.844 131.469 662.328 131.992 661.938 132.648C661.562 133.289 661.375 134.008 661.375 134.805C661.375 135.602 661.562 136.328 661.938 136.984C662.328 137.641 662.844 138.164 663.484 138.555C664.141 138.945 664.852 139.141 665.617 139.141Z" fill="#666666"/>
<path d="M14.1123 32.3945L14.4902 30.3555C14.5693 29.793 14.6133 29.2393 14.6133 28.7031C14.6133 25.8906 12.8994 24.0537 10.2627 24.0537C7.71387 24.0537 5.88574 25.8379 5.3584 28.8701L4.98926 30.9092C4.89258 31.3838 4.85742 31.9375 4.85742 32.7109C4.85742 35.418 6.58887 37.2637 9.12891 37.2637C11.8096 37.2637 13.541 35.5674 14.1123 32.3945ZM9.25195 35.7959C7.51172 35.7959 6.42188 34.5479 6.42188 32.5352C6.42188 32.043 6.45703 31.6211 6.54492 31.0938L6.90527 29.1162C7.31836 26.752 8.4873 25.5215 10.1924 25.5215C11.9238 25.5215 13.0576 26.7871 13.0576 28.7119C13.0576 29.0898 13.0137 29.6611 12.9521 30.0303L12.583 32.0869C12.1523 34.4951 10.9746 35.7959 9.25195 35.7959ZM20.6689 37.1582C22.708 37.1582 24.1846 35.7959 24.5889 33.5107L24.8613 31.9814C24.9229 31.6211 24.9668 31.1289 24.9668 30.7686C24.9668 28.6064 23.6484 27.3057 21.6357 27.3057C20.3701 27.3057 19.2363 28.0176 18.8057 29.1426H18.7002L18.999 27.4639H17.5312L15.29 40.2168H16.7842L17.6895 35.084H17.7598C17.9795 36.2881 19.166 37.1582 20.6689 37.1582ZM20.4756 35.7607C19.0342 35.7607 18.0498 34.7412 18.0498 33.3262C18.0498 33.0537 18.0586 32.8604 18.085 32.6934L18.3398 31.2783C18.6299 29.6436 19.7285 28.6943 21.2314 28.6943C22.5938 28.6943 23.4375 29.6172 23.4375 31.0498C23.4375 31.3223 23.4023 31.6914 23.3672 31.9199L23.1475 33.1943C22.8486 34.8818 21.917 35.7607 20.4756 35.7607ZM35.3379 34.5391H33.8613C33.6504 35.3213 32.6748 35.8838 31.5498 35.8838C29.9766 35.8838 29.0273 34.8379 29.1855 33.2471C29.1855 33.2119 29.2383 32.6846 29.2559 32.623H35.7686L35.874 31.8584C35.8828 31.7793 35.9619 31.1641 35.9619 31.0586C36.1904 28.8965 34.6699 27.2881 32.3936 27.2881C30.0469 27.2881 28.3857 28.6943 28.0342 30.9531L27.8496 32.1484C27.7529 32.79 27.7178 33.1504 27.7178 33.502C27.7178 35.7783 29.1416 37.1758 31.4707 37.1758C33.4307 37.1758 35.0918 36.0508 35.3379 34.5391ZM32.2793 28.5713C33.7734 28.5713 34.6963 29.6084 34.5205 31.0762C34.5205 31.1289 34.4766 31.4541 34.4766 31.4893H29.4053C29.4141 31.4629 29.5107 30.918 29.5195 30.9004C29.792 29.4502 30.8467 28.5713 32.2793 28.5713ZM38.0977 37H39.5918L40.585 31.3662C40.8838 29.7139 42.0176 28.6592 43.4238 28.6592C44.6719 28.6592 45.4541 29.459 45.4541 30.6719C45.4541 30.9268 45.4189 31.2783 45.3574 31.6475L44.4082 37H45.9023L46.8428 31.6299C46.9482 30.9795 46.9834 30.6455 46.9834 30.3203C46.9834 28.5098 45.7969 27.2881 43.9775 27.2881C42.6152 27.2881 41.5166 27.9824 41.0244 29.0986H40.9277L41.209 27.4639H39.7764L38.0977 37ZM55.5967 25.126C56.2998 25.126 56.8359 24.5986 56.8359 23.8955C56.8359 23.2012 56.2998 22.6738 55.5967 22.6738C54.8936 22.6738 54.3574 23.2012 54.3574 23.8955C54.3574 24.5986 54.8936 25.126 55.5967 25.126ZM57.293 37L57.5039 35.7607H54.3398L55.8164 27.4639H51.0967L50.8945 28.7031H54.1289L52.8721 35.7607H49.6025L49.3916 37H57.293ZM60.3516 37H61.8457L62.8389 31.3662C63.1377 29.7139 64.2715 28.6592 65.6777 28.6592C66.9258 28.6592 67.708 29.459 67.708 30.6719C67.708 30.9268 67.6729 31.2783 67.6113 31.6475L66.6621 37H68.1562L69.0967 31.6299C69.2021 30.9795 69.2373 30.6455 69.2373 30.3203C69.2373 28.5098 68.0508 27.2881 66.2314 27.2881C64.8691 27.2881 63.7705 27.9824 63.2783 29.0986H63.1816L63.4629 27.4639H62.0303L60.3516 37ZM74.8447 40.5771C77.3232 40.5771 78.8174 39.3291 79.2393 36.9385L80.9004 27.4639H79.4062L79.0723 29.3887H78.9668C78.6855 28.0615 77.6045 27.3057 76.0137 27.3057C73.9922 27.3057 72.4805 28.7383 72.085 31.0322L71.9004 32.1045C71.8389 32.4561 71.7861 33.0186 71.7861 33.4053C71.7861 35.4707 73.1836 36.9648 75.0996 36.9648C76.4092 36.9648 77.5254 36.2793 77.9561 35.2334H78.0615L77.7803 36.833C77.4727 38.4941 76.541 39.3291 74.9678 39.3291C73.6582 39.3291 72.6738 38.6699 72.6562 37.791V37.6768H71.1797C71.1797 37.6855 71.1797 37.791 71.1797 37.835C71.1797 39.4258 72.7178 40.5771 74.8447 40.5771ZM76.2334 28.668C77.666 28.668 78.6592 29.6875 78.6592 31.1465C78.6592 31.3486 78.6328 31.6387 78.5801 31.9375L78.3867 33.0625C78.1143 34.5742 77.0156 35.6025 75.6797 35.6025C74.2207 35.6025 73.3066 34.6445 73.3066 33.0977C73.3066 32.8779 73.3506 32.4297 73.4033 32.1221L73.5527 31.2871C73.8516 29.6699 74.8799 28.668 76.2334 28.668ZM31.374 45.9062L30.9258 48.4902H28.377L28.166 49.7646H30.7061L29.7393 55.0029C29.6865 55.293 29.6602 55.5566 29.6602 55.7676C29.6602 57.2529 30.6885 58.0439 32.5957 58.0439C33.0703 58.0439 34.3447 58 34.5732 57.9561L34.7842 56.6904C34.5469 56.7168 33.6064 56.7432 33.0176 56.7432C31.7695 56.7432 31.1895 56.3213 31.1895 55.4424C31.1895 55.3105 31.1982 55.1699 31.2334 54.9941L32.2002 49.7646H36.0498L36.2695 48.4902H32.4023L32.8506 45.9062H31.374ZM41.4111 58.1582C42.668 58.1582 43.7402 57.5693 44.2148 56.6289H44.3027L44.0654 58H45.4893L46.4561 52.498C46.6143 51.6543 46.6406 51.417 46.6406 51.0127C46.6406 49.4043 45.3223 48.3408 43.3359 48.3408C41.3936 48.3408 39.8467 49.3955 39.5479 50.916H41.042C41.2881 50.1514 42.167 49.6328 43.1953 49.6328C44.3818 49.6328 45.1465 50.2568 45.1465 51.2324C45.1465 51.4258 45.1289 51.5752 45.0762 51.8652L44.9883 52.3486L42.6152 52.3662C39.9785 52.3926 38.5195 53.5 38.5371 55.4775C38.5547 57.0684 39.7236 58.1582 41.4111 58.1582ZM41.9297 56.8486C40.7959 56.8486 40.0752 56.2334 40.084 55.2666C40.0928 54.1592 40.998 53.5264 42.6064 53.5176L44.7949 53.5088L44.584 54.6338C44.3555 55.9082 43.2217 56.8486 41.9297 56.8486ZM52.5908 61.5771C55.0693 61.5771 56.5635 60.3291 56.9854 57.9385L58.6465 48.4639H57.1523L56.8184 50.3887H56.7129C56.4316 49.0615 55.3506 48.3057 53.7598 48.3057C51.7383 48.3057 50.2266 49.7383 49.8311 52.0322L49.6465 53.1045C49.585 53.4561 49.5322 54.0186 49.5322 54.4053C49.5322 56.4707 50.9297 57.9648 52.8457 57.9648C54.1553 57.9648 55.2715 57.2793 55.7021 56.2334H55.8076L55.5264 57.833C55.2188 59.4941 54.2871 60.3291 52.7139 60.3291C51.4043 60.3291 50.4199 59.6699 50.4023 58.791V58.6768H48.9258C48.9258 58.6855 48.9258 58.791 48.9258 58.835C48.9258 60.4258 50.4639 61.5771 52.5908 61.5771ZM53.9795 49.668C55.4121 49.668 56.4053 50.6875 56.4053 52.1465C56.4053 52.3486 56.3789 52.6387 56.3262 52.9375L56.1328 54.0625C55.8604 55.5742 54.7617 56.6025 53.4258 56.6025C51.9668 56.6025 51.0527 55.6445 51.0527 54.0977C51.0527 53.8779 51.0967 53.4297 51.1494 53.1221L51.2988 52.2871C51.5977 50.6699 52.626 49.668 53.9795 49.668Z" fill="#aaaaaa"/>
<path d="M355.928 54.4932C355.937 54.458 355.937 54.4141 355.937 54.3701H354.372C354.372 54.3789 354.372 54.3877 354.363 54.4141C354.056 55.917 352.975 56.7783 351.437 56.7783C349.635 56.7783 348.571 55.6533 348.571 53.7197C348.571 53.2451 348.615 52.7441 348.686 52.375L349.072 50.1689C349.503 47.8311 350.751 46.5479 352.562 46.5479C354.188 46.5479 355.233 47.5146 355.233 49C355.233 49.1758 355.225 49.2988 355.207 49.501H356.736C356.771 49.2637 356.789 49.0439 356.789 48.8506C356.789 46.6094 355.102 45.0537 352.649 45.0537C349.863 45.0537 348.044 46.8994 347.464 50.2832L347.112 52.2959C347.042 52.6826 346.989 53.2363 346.989 53.7021C346.989 56.5234 348.633 58.2725 351.287 58.2725C353.766 58.2725 355.69 56.7256 355.928 54.4932ZM362.212 58.167C364.506 58.167 366.053 56.8311 366.475 54.4668L366.712 53.1396C366.773 52.7441 366.8 52.3838 366.8 52.1201C366.8 49.835 365.271 48.2969 362.88 48.2969C360.709 48.2969 359.101 49.7119 358.705 51.9883L358.477 53.3066C358.415 53.667 358.389 54.0361 358.389 54.3965C358.389 56.6289 359.918 58.167 362.212 58.167ZM362.854 49.6152C364.348 49.6152 365.332 50.6172 365.332 52.1113C365.332 52.3662 365.314 52.6562 365.279 52.9199L365.06 54.1592C364.752 55.8906 363.776 56.8486 362.335 56.8486C360.832 56.8486 359.848 55.8467 359.848 54.3262C359.848 54.0537 359.874 53.7725 359.927 53.4297L360.138 52.2256C360.428 50.5908 361.438 49.6152 362.854 49.6152ZM368.971 58H370.465L371.458 52.3662C371.757 50.7139 372.891 49.6592 374.297 49.6592C375.545 49.6592 376.327 50.459 376.327 51.6719C376.327 51.9268 376.292 52.2783 376.23 52.6475L375.281 58H376.775L377.716 52.6299C377.821 51.9795 377.856 51.6455 377.856 51.3203C377.856 49.5098 376.67 48.2881 374.851 48.2881C373.488 48.2881 372.39 48.9824 371.897 50.0986H371.801L372.082 48.4639H370.649L368.971 58ZM384.501 45.9062L384.053 48.4902H381.504L381.293 49.7646H383.833L382.866 55.0029C382.813 55.293 382.787 55.5566 382.787 55.7676C382.787 57.2529 383.815 58.0439 385.723 58.0439C386.197 58.0439 387.472 58 387.7 57.9561L387.911 56.6904C387.674 56.7168 386.733 56.7432 386.145 56.7432C384.896 56.7432 384.316 56.3213 384.316 55.4424C384.316 55.3105 384.325 55.1699 384.36 54.9941L385.327 49.7646H389.177L389.396 48.4902H385.529L385.978 45.9062H384.501ZM399.592 55.5391H398.115C397.904 56.3213 396.929 56.8838 395.804 56.8838C394.23 56.8838 393.281 55.8379 393.439 54.2471C393.439 54.2119 393.492 53.6846 393.51 53.623H400.022L400.128 52.8584C400.137 52.7793 400.216 52.1641 400.216 52.0586C400.444 49.8965 398.924 48.2881 396.647 48.2881C394.301 48.2881 392.64 49.6943 392.288 51.9531L392.104 53.1484C392.007 53.79 391.972 54.1504 391.972 54.502C391.972 56.7783 393.396 58.1758 395.725 58.1758C397.685 58.1758 399.346 57.0508 399.592 55.5391ZM396.533 49.5713C398.027 49.5713 398.95 50.6084 398.774 52.0762C398.774 52.1289 398.73 52.4541 398.73 52.4893H393.659C393.668 52.4629 393.765 51.918 393.773 51.9004C394.046 50.4502 395.101 49.5713 396.533 49.5713ZM402.352 58H403.846L404.839 52.3662C405.138 50.7139 406.271 49.6592 407.678 49.6592C408.926 49.6592 409.708 50.459 409.708 51.6719C409.708 51.9268 409.673 52.2783 409.611 52.6475L408.662 58H410.156L411.097 52.6299C411.202 51.9795 411.237 51.6455 411.237 51.3203C411.237 49.5098 410.051 48.2881 408.231 48.2881C406.869 48.2881 405.771 48.9824 405.278 50.0986H405.182L405.463 48.4639H404.03L402.352 58ZM417.882 45.9062L417.434 48.4902H414.885L414.674 49.7646H417.214L416.247 55.0029C416.194 55.293 416.168 55.5566 416.168 55.7676C416.168 57.2529 417.196 58.0439 419.104 58.0439C419.578 58.0439 420.853 58 421.081 57.9561L421.292 56.6904C421.055 56.7168 420.114 56.7432 419.525 56.7432C418.277 56.7432 417.697 56.3213 417.697 55.4424C417.697 55.3105 417.706 55.1699 417.741 54.9941L418.708 49.7646H422.558L422.777 48.4902H418.91L419.358 45.9062H417.882Z" fill="#aaaaaa"/>
<path d="M368.803 198.576H362.87L363.661 194.217H369.269L369.497 192.854H363.89L364.637 188.741H370.561L370.798 187.317H363.31L361.077 200H368.565L368.803 198.576ZM379.912 200L380.123 198.761H376.977L379.104 186.72H374.384L374.173 187.959H377.407L375.482 198.761H372.222L372.011 200H379.912ZM391.338 197.539H389.861C389.65 198.321 388.675 198.884 387.55 198.884C385.977 198.884 385.027 197.838 385.186 196.247C385.186 196.212 385.238 195.685 385.256 195.623H391.769L391.874 194.858C391.883 194.779 391.962 194.164 391.962 194.059C392.19 191.896 390.67 190.288 388.394 190.288C386.047 190.288 384.386 191.694 384.034 193.953L383.85 195.148C383.753 195.79 383.718 196.15 383.718 196.502C383.718 198.778 385.142 200.176 387.471 200.176C389.431 200.176 391.092 199.051 391.338 197.539ZM388.279 191.571C389.773 191.571 390.696 192.608 390.521 194.076C390.521 194.129 390.477 194.454 390.477 194.489H385.405C385.414 194.463 385.511 193.918 385.52 193.9C385.792 192.45 386.847 191.571 388.279 191.571ZM395.882 193.558C396.102 192.362 396.752 191.65 397.596 191.65C398.237 191.65 398.571 192.037 398.571 192.775C398.571 192.986 398.554 193.197 398.51 193.426L397.35 200H398.686L399.819 193.549C400.039 192.354 400.681 191.65 401.507 191.65C402.14 191.65 402.474 192.037 402.474 192.775C402.474 192.986 402.447 193.197 402.412 193.435L401.252 200H402.597L403.801 193.136C403.854 192.819 403.889 192.512 403.889 192.248C403.889 191.018 403.212 190.288 402.043 190.288C401.155 190.288 400.461 190.815 400.039 191.809H399.881C399.819 190.877 399.213 190.288 398.29 190.288C397.438 190.288 396.726 190.842 396.33 191.809H396.172L396.4 190.464H395.082L393.403 200H394.748L395.882 193.558ZM413.592 197.539H412.115C411.904 198.321 410.929 198.884 409.804 198.884C408.23 198.884 407.281 197.838 407.439 196.247C407.439 196.212 407.492 195.685 407.51 195.623H414.022L414.128 194.858C414.137 194.779 414.216 194.164 414.216 194.059C414.444 191.896 412.924 190.288 410.647 190.288C408.301 190.288 406.64 191.694 406.288 193.953L406.104 195.148C406.007 195.79 405.972 196.15 405.972 196.502C405.972 198.778 407.396 200.176 409.725 200.176C411.685 200.176 413.346 199.051 413.592 197.539ZM410.533 191.571C412.027 191.571 412.95 192.608 412.774 194.076C412.774 194.129 412.73 194.454 412.73 194.489H407.659C407.668 194.463 407.765 193.918 407.773 193.9C408.046 192.45 409.101 191.571 410.533 191.571ZM416.352 200H417.846L418.839 194.366C419.138 192.714 420.271 191.659 421.678 191.659C422.926 191.659 423.708 192.459 423.708 193.672C423.708 193.927 423.673 194.278 423.611 194.647L422.662 200H424.156L425.097 194.63C425.202 193.979 425.237 193.646 425.237 193.32C425.237 191.51 424.051 190.288 422.231 190.288C420.869 190.288 419.771 190.982 419.278 192.099H419.182L419.463 190.464H418.03L416.352 200ZM431.882 187.906L431.434 190.49H428.885L428.674 191.765H431.214L430.247 197.003C430.194 197.293 430.168 197.557 430.168 197.768C430.168 199.253 431.196 200.044 433.104 200.044C433.578 200.044 434.853 200 435.081 199.956L435.292 198.69C435.055 198.717 434.114 198.743 433.525 198.743C432.277 198.743 431.697 198.321 431.697 197.442C431.697 197.311 431.706 197.17 431.741 196.994L432.708 191.765H436.558L436.777 190.49H432.91L433.358 187.906H431.882Z" fill="#aaaaaa"/>
<path d="M1 82V70H82.5V82" stroke="#aaaaaa"/>
<path d="M91 82V70H677V82" stroke="#aaaaaa"/>
<path d="M1 163V175H794V163" stroke="#aaaaaa"/>
<path d="M711.928 33.4932C711.937 33.458 711.937 33.4141 711.937 33.3701H710.372C710.372 33.3789 710.372 33.3877 710.363 33.4141C710.056 34.917 708.975 35.7783 707.437 35.7783C705.635 35.7783 704.571 34.6533 704.571 32.7197C704.571 32.2451 704.615 31.7441 704.686 31.375L705.072 29.1689C705.503 26.8311 706.751 25.5479 708.562 25.5479C710.188 25.5479 711.233 26.5146 711.233 28C711.233 28.1758 711.225 28.2988 711.207 28.501H712.736C712.771 28.2637 712.789 28.0439 712.789 27.8506C712.789 25.6094 711.102 24.0537 708.649 24.0537C705.863 24.0537 704.044 25.8994 703.464 29.2832L703.112 31.2959C703.042 31.6826 702.989 32.2363 702.989 32.7021C702.989 35.5234 704.633 37.2725 707.287 37.2725C709.766 37.2725 711.69 35.7256 711.928 33.4932ZM721.912 37L722.123 35.7607H718.977L721.104 23.7197H716.384L716.173 24.959H719.407L717.482 35.7607H714.222L714.011 37H721.912ZM729.339 37.167C731.633 37.167 733.18 35.8311 733.602 33.4668L733.839 32.1396C733.9 31.7441 733.927 31.3838 733.927 31.1201C733.927 28.835 732.397 27.2969 730.007 27.2969C727.836 27.2969 726.228 28.7119 725.832 30.9883L725.604 32.3066C725.542 32.667 725.516 33.0361 725.516 33.3965C725.516 35.6289 727.045 37.167 729.339 37.167ZM729.98 28.6152C731.475 28.6152 732.459 29.6172 732.459 31.1113C732.459 31.3662 732.441 31.6562 732.406 31.9199L732.187 33.1592C731.879 34.8906 730.903 35.8486 729.462 35.8486C727.959 35.8486 726.975 34.8467 726.975 33.3262C726.975 33.0537 727.001 32.7725 727.054 32.4297L727.265 31.2256C727.555 29.5908 728.565 28.6152 729.98 28.6152ZM737.75 30.1797C737.75 31.3311 738.427 32.0781 739.921 32.5791L741.239 33.0098C742.268 33.3438 742.681 33.7393 742.681 34.3896C742.681 35.3125 741.793 35.9277 740.466 35.9277C739.147 35.9277 738.321 35.3652 738.189 34.3721V34.3545H736.713C736.713 34.3809 736.713 34.4072 736.713 34.4424C736.774 36.1211 738.225 37.1846 740.431 37.1846C742.707 37.1846 744.245 35.9629 744.245 34.1611C744.245 33.001 743.577 32.2803 741.978 31.7529L740.721 31.3398C739.675 30.9971 739.262 30.6104 739.262 29.9863C739.262 29.1162 740.123 28.5098 741.362 28.5098C742.549 28.5098 743.261 29.0459 743.366 30.0127V30.0391H744.816C744.816 30.0039 744.825 29.9688 744.825 29.916C744.746 28.2812 743.445 27.2793 741.397 27.2793C739.244 27.2793 737.75 28.457 737.75 30.1797ZM753.597 25.126C754.3 25.126 754.836 24.5986 754.836 23.8955C754.836 23.2012 754.3 22.6738 753.597 22.6738C752.894 22.6738 752.357 23.2012 752.357 23.8955C752.357 24.5986 752.894 25.126 753.597 25.126ZM755.293 37L755.504 35.7607H752.34L753.816 27.4639H749.097L748.895 28.7031H752.129L750.872 35.7607H747.603L747.392 37H755.293ZM758.352 37H759.846L760.839 31.3662C761.138 29.7139 762.271 28.6592 763.678 28.6592C764.926 28.6592 765.708 29.459 765.708 30.6719C765.708 30.9268 765.673 31.2783 765.611 31.6475L764.662 37H766.156L767.097 31.6299C767.202 30.9795 767.237 30.6455 767.237 30.3203C767.237 28.5098 766.051 27.2881 764.231 27.2881C762.869 27.2881 761.771 27.9824 761.278 29.0986H761.182L761.463 27.4639H760.03L758.352 37ZM772.845 40.5771C775.323 40.5771 776.817 39.3291 777.239 36.9385L778.9 27.4639H777.406L777.072 29.3887H776.967C776.686 28.0615 775.604 27.3057 774.014 27.3057C771.992 27.3057 770.48 28.7383 770.085 31.0322L769.9 32.1045C769.839 32.4561 769.786 33.0186 769.786 33.4053C769.786 35.4707 771.184 36.9648 773.1 36.9648C774.409 36.9648 775.525 36.2793 775.956 35.2334H776.062L775.78 36.833C775.473 38.4941 774.541 39.3291 772.968 39.3291C771.658 39.3291 770.674 38.6699 770.656 37.791V37.6768H769.18C769.18 37.6855 769.18 37.791 769.18 37.835C769.18 39.4258 770.718 40.5771 772.845 40.5771ZM774.233 28.668C775.666 28.668 776.659 29.6875 776.659 31.1465C776.659 31.3486 776.633 31.6387 776.58 31.9375L776.387 33.0625C776.114 34.5742 775.016 35.6025 773.68 35.6025C772.221 35.6025 771.307 34.6445 771.307 33.0977C771.307 32.8779 771.351 32.4297 771.403 32.1221L771.553 31.2871C771.852 29.6699 772.88 28.668 774.233 28.668ZM729.374 45.9062L728.926 48.4902H726.377L726.166 49.7646H728.706L727.739 55.0029C727.687 55.293 727.66 55.5566 727.66 55.7676C727.66 57.2529 728.688 58.0439 730.596 58.0439C731.07 58.0439 732.345 58 732.573 57.9561L732.784 56.6904C732.547 56.7168 731.606 56.7432 731.018 56.7432C729.77 56.7432 729.189 56.3213 729.189 55.4424C729.189 55.3105 729.198 55.1699 729.233 54.9941L730.2 49.7646H734.05L734.27 48.4902H730.402L730.851 45.9062H729.374ZM739.411 58.1582C740.668 58.1582 741.74 57.5693 742.215 56.6289H742.303L742.065 58H743.489L744.456 52.498C744.614 51.6543 744.641 51.417 744.641 51.0127C744.641 49.4043 743.322 48.3408 741.336 48.3408C739.394 48.3408 737.847 49.3955 737.548 50.916H739.042C739.288 50.1514 740.167 49.6328 741.195 49.6328C742.382 49.6328 743.146 50.2568 743.146 51.2324C743.146 51.4258 743.129 51.5752 743.076 51.8652L742.988 52.3486L740.615 52.3662C737.979 52.3926 736.52 53.5 736.537 55.4775C736.555 57.0684 737.724 58.1582 739.411 58.1582ZM739.93 56.8486C738.796 56.8486 738.075 56.2334 738.084 55.2666C738.093 54.1592 738.998 53.5264 740.606 53.5176L742.795 53.5088L742.584 54.6338C742.355 55.9082 741.222 56.8486 739.93 56.8486ZM750.591 61.5771C753.069 61.5771 754.563 60.3291 754.985 57.9385L756.646 48.4639H755.152L754.818 50.3887H754.713C754.432 49.0615 753.351 48.3057 751.76 48.3057C749.738 48.3057 748.227 49.7383 747.831 52.0322L747.646 53.1045C747.585 53.4561 747.532 54.0186 747.532 54.4053C747.532 56.4707 748.93 57.9648 750.846 57.9648C752.155 57.9648 753.271 57.2793 753.702 56.2334H753.808L753.526 57.833C753.219 59.4941 752.287 60.3291 750.714 60.3291C749.404 60.3291 748.42 59.6699 748.402 58.791V58.6768H746.926C746.926 58.6855 746.926 58.791 746.926 58.835C746.926 60.4258 748.464 61.5771 750.591 61.5771ZM751.979 49.668C753.412 49.668 754.405 50.6875 754.405 52.1465C754.405 52.3486 754.379 52.6387 754.326 52.9375L754.133 54.0625C753.86 55.5742 752.762 56.6025 751.426 56.6025C749.967 56.6025 749.053 55.6445 749.053 54.0977C749.053 53.8779 749.097 53.4297 749.149 53.1221L749.299 52.2871C749.598 50.6699 750.626 49.668 751.979 49.668Z" fill="#aaaaaa"/>
<path d="M685 82V70H794V82" stroke="#aaaaaa"/>
</svg>
