<svg width="605" height="438" viewBox="0 0 605 438" fill="none" xmlns="http://www.w3.org/2000/svg">
<path d="M506 156L518 156L518 221L506 221" stroke="#AAAAAA"/>
<path d="M538.782 194L541.015 181.317H539.477L538.501 186.811H533.148L534.115 181.317H532.577L530.345 194H531.883L532.911 188.234H538.264L537.244 194H538.782ZM550.155 191.539H548.679C548.468 192.321 547.492 192.884 546.367 192.884C544.794 192.884 543.845 191.838 544.003 190.247C544.003 190.212 544.056 189.685 544.073 189.623H550.586L550.691 188.858C550.7 188.779 550.779 188.164 550.779 188.059C551.008 185.896 549.487 184.288 547.211 184.288C544.864 184.288 543.203 185.694 542.852 187.953L542.667 189.148C542.57 189.79 542.535 190.15 542.535 190.502C542.535 192.778 543.959 194.176 546.288 194.176C548.248 194.176 549.909 193.051 550.155 191.539ZM547.097 185.571C548.591 185.571 549.514 186.608 549.338 188.076C549.338 188.129 549.294 188.454 549.294 188.489H544.223C544.231 188.463 544.328 187.918 544.337 187.9C544.609 186.45 545.664 185.571 547.097 185.571ZM559.287 182.126C559.99 182.126 560.526 181.599 560.526 180.896C560.526 180.201 559.99 179.674 559.287 179.674C558.584 179.674 558.048 180.201 558.048 180.896C558.048 181.599 558.584 182.126 559.287 182.126ZM560.983 194L561.194 192.761H558.03L559.507 184.464H554.787L554.585 185.703H557.819L556.562 192.761H553.293L553.082 194H560.983ZM567.408 197.577C569.887 197.577 571.381 196.329 571.803 193.938L573.464 184.464H571.97L571.636 186.389H571.53C571.249 185.062 570.168 184.306 568.577 184.306C566.556 184.306 565.044 185.738 564.648 188.032L564.464 189.104C564.402 189.456 564.35 190.019 564.35 190.405C564.35 192.471 565.747 193.965 567.663 193.965C568.973 193.965 570.089 193.279 570.52 192.233H570.625L570.344 193.833C570.036 195.494 569.104 196.329 567.531 196.329C566.222 196.329 565.237 195.67 565.22 194.791V194.677H563.743C563.743 194.686 563.743 194.791 563.743 194.835C563.743 196.426 565.281 197.577 567.408 197.577ZM568.797 185.668C570.229 185.668 571.223 186.688 571.223 188.146C571.223 188.349 571.196 188.639 571.144 188.938L570.95 190.062C570.678 191.574 569.579 192.603 568.243 192.603C566.784 192.603 565.87 191.645 565.87 190.098C565.87 189.878 565.914 189.43 565.967 189.122L566.116 188.287C566.415 186.67 567.443 185.668 568.797 185.668ZM575.16 194H576.654L577.647 188.366C577.946 186.714 579.08 185.668 580.495 185.668C581.734 185.668 582.543 186.477 582.543 187.681C582.543 187.936 582.499 188.287 582.438 188.647L581.488 194H582.982L583.923 188.621C584.028 187.988 584.072 187.628 584.072 187.32C584.072 185.501 582.851 184.297 581.049 184.297C579.704 184.297 578.597 184.982 578.087 186.099H577.99L578.939 180.72H577.507L575.16 194ZM590.699 181.906L590.251 184.49H587.702L587.491 185.765H590.031L589.064 191.003C589.012 191.293 588.985 191.557 588.985 191.768C588.985 193.253 590.014 194.044 591.921 194.044C592.396 194.044 593.67 194 593.898 193.956L594.109 192.69C593.872 192.717 592.932 192.743 592.343 192.743C591.095 192.743 590.515 192.321 590.515 191.442C590.515 191.311 590.523 191.17 590.559 190.994L591.525 185.765H595.375L595.595 184.49H591.728L592.176 181.906H590.699Z" fill="#AAAAAA"/>
<path d="M215.24 406.134L215.671 414H217.2L221.542 401.317H220.074L218.352 406.512L216.682 411.82H216.585L216.163 404.218H214.818L211.725 411.82H211.637L211.733 406.336L211.795 401.317H210.424L210.345 414H211.909L215.144 406.134H215.24ZM227.343 402.126C228.046 402.126 228.582 401.599 228.582 400.896C228.582 400.201 228.046 399.674 227.343 399.674C226.64 399.674 226.104 400.201 226.104 400.896C226.104 401.599 226.64 402.126 227.343 402.126ZM229.039 414L229.25 412.761H226.086L227.562 404.464H222.843L222.641 405.703H225.875L224.618 412.761H221.349L221.138 414H229.039ZM236.756 404.306C234.699 404.306 233.196 405.694 232.818 407.944L232.563 409.482C232.511 409.764 232.467 410.247 232.467 410.695C232.467 412.813 233.75 414.158 235.789 414.158C237.072 414.158 238.188 413.429 238.619 412.321H238.725L238.426 414H239.894L242.24 400.72H240.746L239.744 406.38H239.665C239.437 405.123 238.188 404.306 236.756 404.306ZM236.949 405.677C238.364 405.677 239.401 406.731 239.401 408.182C239.401 408.322 239.384 408.489 239.349 408.744L239.094 410.159C238.804 411.768 237.723 412.743 236.202 412.743C234.849 412.743 233.996 411.829 233.996 410.388C233.996 410.08 234.022 409.72 234.058 409.518L234.277 408.243C234.585 406.564 235.499 405.677 236.949 405.677ZM247.628 401.906L247.18 404.49H244.631L244.42 405.765H246.96L245.993 411.003C245.94 411.293 245.914 411.557 245.914 411.768C245.914 413.253 246.942 414.044 248.85 414.044C249.324 414.044 250.599 414 250.827 413.956L251.038 412.69C250.801 412.717 249.86 412.743 249.271 412.743C248.023 412.743 247.443 412.321 247.443 411.442C247.443 411.311 247.452 411.17 247.487 410.994L248.454 405.765H252.304L252.523 404.49H248.656L249.104 401.906H247.628ZM254.343 414H255.837L256.83 408.366C257.129 406.714 258.263 405.668 259.678 405.668C260.917 405.668 261.726 406.477 261.726 407.681C261.726 407.936 261.682 408.287 261.62 408.647L260.671 414H262.165L263.105 408.621C263.211 407.988 263.255 407.628 263.255 407.32C263.255 405.501 262.033 404.297 260.231 404.297C258.887 404.297 257.779 404.982 257.27 406.099H257.173L258.122 400.72H256.689L254.343 414Z" fill="#AAAAAA"/>
<path d="M165 377V389H307V377" stroke="#AAAAAA"/>
<rect x="57.5" y="48.5" width="357" height="280" fill="#FACDA1"/>
<path d="M206.248 67.1309L207.074 61.998H207.188L208.612 69.0205H209.825L213.736 61.998H213.851L212.857 67.1309L211.987 72H213.376L215.608 59.3174H213.798L209.535 67.166H209.43L207.909 59.3174H206.222L203.989 72H205.378L206.248 67.1309ZM219.221 72.1582C220.478 72.1582 221.55 71.5693 222.024 70.6289H222.112L221.875 72H223.299L224.266 66.498C224.424 65.6543 224.45 65.417 224.45 65.0127C224.45 63.4043 223.132 62.3408 221.146 62.3408C219.203 62.3408 217.656 63.3955 217.357 64.916H218.852C219.098 64.1514 219.977 63.6328 221.005 63.6328C222.191 63.6328 222.956 64.2568 222.956 65.2324C222.956 65.4258 222.938 65.5752 222.886 65.8652L222.798 66.3486L220.425 66.3662C217.788 66.3926 216.329 67.5 216.347 69.4775C216.364 71.0684 217.533 72.1582 219.221 72.1582ZM219.739 70.8486C218.605 70.8486 217.885 70.2334 217.894 69.2666C217.902 68.1592 218.808 67.5264 220.416 67.5176L222.604 67.5088L222.394 68.6338C222.165 69.9082 221.031 70.8486 219.739 70.8486ZM231.314 67.7109C231.745 65.2939 233.204 63.8438 235.19 63.8438C235.823 63.8438 236.359 63.9492 236.737 64.1689L237.019 62.5078C236.658 62.3232 236.175 62.2178 235.612 62.2178C233.89 62.2178 232.615 63.1494 231.991 64.8984H231.798L232.22 62.4639H228.66L228.458 63.6592H230.567L229.311 70.8047H227.386L227.175 72H233.512L233.723 70.8047H230.761L231.314 67.7109ZM241.527 75.5771C244.006 75.5771 245.5 74.3291 245.922 71.9385L247.583 62.4639H246.089L245.755 64.3887H245.649C245.368 63.0615 244.287 62.3057 242.696 62.3057C240.675 62.3057 239.163 63.7383 238.768 66.0322L238.583 67.1045C238.521 67.4561 238.469 68.0186 238.469 68.4053C238.469 70.4707 239.866 71.9648 241.782 71.9648C243.092 71.9648 244.208 71.2793 244.639 70.2334H244.744L244.463 71.833C244.155 73.4941 243.224 74.3291 241.65 74.3291C240.341 74.3291 239.356 73.6699 239.339 72.791V72.6768H237.862C237.862 72.6855 237.862 72.791 237.862 72.835C237.862 74.4258 239.4 75.5771 241.527 75.5771ZM242.916 63.668C244.349 63.668 245.342 64.6875 245.342 66.1465C245.342 66.3486 245.315 66.6387 245.263 66.9375L245.069 68.0625C244.797 69.5742 243.698 70.6025 242.362 70.6025C240.903 70.6025 239.989 69.6445 239.989 68.0977C239.989 67.8779 240.033 67.4297 240.086 67.1221L240.235 66.2871C240.534 64.6699 241.562 63.668 242.916 63.668ZM255.66 60.126C256.363 60.126 256.899 59.5986 256.899 58.8955C256.899 58.2012 256.363 57.6738 255.66 57.6738C254.957 57.6738 254.421 58.2012 254.421 58.8955C254.421 59.5986 254.957 60.126 255.66 60.126ZM257.356 72L257.567 70.7607H254.403L255.88 62.4639H251.16L250.958 63.7031H254.192L252.936 70.7607H249.666L249.455 72H257.356ZM260.415 72H261.909L262.902 66.3662C263.201 64.7139 264.335 63.6592 265.741 63.6592C266.989 63.6592 267.771 64.459 267.771 65.6719C267.771 65.9268 267.736 66.2783 267.675 66.6475L266.726 72H268.22L269.16 66.6299C269.266 65.9795 269.301 65.6455 269.301 65.3203C269.301 63.5098 268.114 62.2881 266.295 62.2881C264.933 62.2881 263.834 62.9824 263.342 64.0986H263.245L263.526 62.4639H262.094L260.415 72Z" fill="#666666"/>
<rect x="93.5" y="84.5" width="285" height="208" fill="#FDDD9D"/>
<path d="M204.771 108H209.324C212.216 108 214.044 106.559 214.062 104.282C214.07 102.806 213.191 101.707 211.794 101.443L211.812 101.347C213.323 101.039 214.396 99.7471 214.413 98.209C214.422 96.4072 213.13 95.3174 210.968 95.3174H207.004L204.771 108ZM208.322 96.6533H210.555C212.022 96.6533 212.796 97.2861 212.787 98.4727C212.778 99.8525 211.645 100.793 209.966 100.793H207.575L208.322 96.6533ZM206.529 106.655L207.355 102.085H209.799C211.521 102.085 212.471 102.823 212.471 104.168C212.471 105.68 211.205 106.655 209.254 106.655H206.529ZM220.275 108.167C222.569 108.167 224.116 106.831 224.538 104.467L224.775 103.14C224.837 102.744 224.863 102.384 224.863 102.12C224.863 99.835 223.334 98.2969 220.943 98.2969C218.772 98.2969 217.164 99.7119 216.769 101.988L216.54 103.307C216.479 103.667 216.452 104.036 216.452 104.396C216.452 106.629 217.981 108.167 220.275 108.167ZM220.917 99.6152C222.411 99.6152 223.396 100.617 223.396 102.111C223.396 102.366 223.378 102.656 223.343 102.92L223.123 104.159C222.815 105.891 221.84 106.849 220.398 106.849C218.896 106.849 217.911 105.847 217.911 104.326C217.911 104.054 217.938 103.772 217.99 103.43L218.201 102.226C218.491 100.591 219.502 99.6152 220.917 99.6152ZM231.314 103.711C231.745 101.294 233.204 99.8438 235.19 99.8438C235.823 99.8438 236.359 99.9492 236.737 100.169L237.019 98.5078C236.658 98.3232 236.175 98.2178 235.612 98.2178C233.89 98.2178 232.615 99.1494 231.991 100.898H231.798L232.22 98.4639H228.66L228.458 99.6592H230.567L229.311 106.805H227.386L227.175 108H233.512L233.723 106.805H230.761L231.314 103.711ZM242.819 98.3057C240.763 98.3057 239.26 99.6943 238.882 101.944L238.627 103.482C238.574 103.764 238.53 104.247 238.53 104.695C238.53 106.813 239.813 108.158 241.853 108.158C243.136 108.158 244.252 107.429 244.683 106.321H244.788L244.489 108H245.957L248.304 94.7197H246.81L245.808 100.38H245.729C245.5 99.123 244.252 98.3057 242.819 98.3057ZM243.013 99.6768C244.428 99.6768 245.465 100.731 245.465 102.182C245.465 102.322 245.447 102.489 245.412 102.744L245.157 104.159C244.867 105.768 243.786 106.743 242.266 106.743C240.912 106.743 240.06 105.829 240.06 104.388C240.06 104.08 240.086 103.72 240.121 103.518L240.341 102.243C240.648 100.564 241.562 99.6768 243.013 99.6768ZM257.655 105.539H256.179C255.968 106.321 254.992 106.884 253.867 106.884C252.294 106.884 251.345 105.838 251.503 104.247C251.503 104.212 251.556 103.685 251.573 103.623H258.086L258.191 102.858C258.2 102.779 258.279 102.164 258.279 102.059C258.508 99.8965 256.987 98.2881 254.711 98.2881C252.364 98.2881 250.703 99.6943 250.352 101.953L250.167 103.148C250.07 103.79 250.035 104.15 250.035 104.502C250.035 106.778 251.459 108.176 253.788 108.176C255.748 108.176 257.409 107.051 257.655 105.539ZM254.597 99.5713C256.091 99.5713 257.014 100.608 256.838 102.076C256.838 102.129 256.794 102.454 256.794 102.489H251.723C251.731 102.463 251.828 101.918 251.837 101.9C252.109 100.45 253.164 99.5713 254.597 99.5713ZM264.695 103.711C265.126 101.294 266.585 99.8438 268.571 99.8438C269.204 99.8438 269.74 99.9492 270.118 100.169L270.399 98.5078C270.039 98.3232 269.556 98.2178 268.993 98.2178C267.271 98.2178 265.996 99.1494 265.372 100.898H265.179L265.601 98.4639H262.041L261.839 99.6592H263.948L262.691 106.805H260.767L260.556 108H266.893L267.104 106.805H264.142L264.695 103.711Z" fill="#666666"/>
<rect x="129.5" y="120.5" width="213" height="136" fill="#C4D08C"/>
<path d="M201.028 131.317L198.796 144H200.352L201.16 139.447H203.7C206.847 139.447 208.736 137.663 208.736 134.745C208.736 132.653 207.286 131.317 205.019 131.317H201.028ZM202.355 132.697H204.737C206.284 132.697 207.189 133.497 207.189 134.868C207.189 136.872 205.915 138.067 203.788 138.067H201.397L202.355 132.697ZM213.157 144.158C214.414 144.158 215.486 143.569 215.961 142.629H216.049L215.812 144H217.235L218.202 138.498C218.36 137.654 218.387 137.417 218.387 137.013C218.387 135.404 217.068 134.341 215.082 134.341C213.14 134.341 211.593 135.396 211.294 136.916H212.788C213.034 136.151 213.913 135.633 214.941 135.633C216.128 135.633 216.893 136.257 216.893 137.232C216.893 137.426 216.875 137.575 216.822 137.865L216.734 138.349L214.361 138.366C211.725 138.393 210.266 139.5 210.283 141.478C210.301 143.068 211.47 144.158 213.157 144.158ZM213.676 142.849C212.542 142.849 211.821 142.233 211.83 141.267C211.839 140.159 212.744 139.526 214.353 139.518L216.541 139.509L216.33 140.634C216.102 141.908 214.968 142.849 213.676 142.849ZM225.629 134.306C223.572 134.306 222.069 135.694 221.691 137.944L221.437 139.482C221.384 139.764 221.34 140.247 221.34 140.695C221.34 142.813 222.623 144.158 224.662 144.158C225.945 144.158 227.062 143.429 227.492 142.321H227.598L227.299 144H228.767L231.113 130.72H229.619L228.617 136.38H228.538C228.31 135.123 227.062 134.306 225.629 134.306ZM225.822 135.677C227.237 135.677 228.274 136.731 228.274 138.182C228.274 138.322 228.257 138.489 228.222 138.744L227.967 140.159C227.677 141.768 226.596 142.743 225.075 142.743C223.722 142.743 222.869 141.829 222.869 140.388C222.869 140.08 222.896 139.72 222.931 139.518L223.15 138.243C223.458 136.564 224.372 135.677 225.822 135.677ZM236.756 134.306C234.699 134.306 233.196 135.694 232.818 137.944L232.563 139.482C232.511 139.764 232.467 140.247 232.467 140.695C232.467 142.813 233.75 144.158 235.789 144.158C237.072 144.158 238.188 143.429 238.619 142.321H238.725L238.426 144H239.894L242.24 130.72H240.746L239.744 136.38H239.665C239.437 135.123 238.188 134.306 236.756 134.306ZM236.949 135.677C238.364 135.677 239.401 136.731 239.401 138.182C239.401 138.322 239.384 138.489 239.349 138.744L239.094 140.159C238.804 141.768 237.723 142.743 236.202 142.743C234.849 142.743 233.996 141.829 233.996 140.388C233.996 140.08 234.022 139.72 234.058 139.518L234.277 138.243C234.585 136.564 235.499 135.677 236.949 135.677ZM249.597 132.126C250.3 132.126 250.836 131.599 250.836 130.896C250.836 130.201 250.3 129.674 249.597 129.674C248.894 129.674 248.357 130.201 248.357 130.896C248.357 131.599 248.894 132.126 249.597 132.126ZM251.293 144L251.504 142.761H248.34L249.816 134.464H245.097L244.895 135.703H248.129L246.872 142.761H243.603L243.392 144H251.293ZM254.352 144H255.846L256.839 138.366C257.138 136.714 258.271 135.659 259.678 135.659C260.926 135.659 261.708 136.459 261.708 137.672C261.708 137.927 261.673 138.278 261.611 138.647L260.662 144H262.156L263.097 138.63C263.202 137.979 263.237 137.646 263.237 137.32C263.237 135.51 262.051 134.288 260.231 134.288C258.869 134.288 257.771 134.982 257.278 136.099H257.182L257.463 134.464H256.03L254.352 144ZM268.845 147.577C271.323 147.577 272.817 146.329 273.239 143.938L274.9 134.464H273.406L273.072 136.389H272.967C272.686 135.062 271.604 134.306 270.014 134.306C267.992 134.306 266.48 135.738 266.085 138.032L265.9 139.104C265.839 139.456 265.786 140.019 265.786 140.405C265.786 142.471 267.184 143.965 269.1 143.965C270.409 143.965 271.525 143.279 271.956 142.233H272.062L271.78 143.833C271.473 145.494 270.541 146.329 268.968 146.329C267.658 146.329 266.674 145.67 266.656 144.791V144.677H265.18C265.18 144.686 265.18 144.791 265.18 144.835C265.18 146.426 266.718 147.577 268.845 147.577ZM270.233 135.668C271.666 135.668 272.659 136.688 272.659 138.146C272.659 138.349 272.633 138.639 272.58 138.938L272.387 140.062C272.114 141.574 271.016 142.603 269.68 142.603C268.221 142.603 267.307 141.645 267.307 140.098C267.307 139.878 267.351 139.43 267.403 139.122L267.553 138.287C267.852 136.67 268.88 135.668 270.233 135.668Z" fill="#666666"/>
<rect x="165.5" y="156.5" width="141" height="64" fill="#9ABFE2"/>
<path d="M207.928 189.493C207.937 189.458 207.937 189.414 207.937 189.37H206.372C206.372 189.379 206.372 189.388 206.363 189.414C206.056 190.917 204.975 191.778 203.437 191.778C201.635 191.778 200.571 190.653 200.571 188.72C200.571 188.245 200.615 187.744 200.686 187.375L201.072 185.169C201.503 182.831 202.751 181.548 204.562 181.548C206.188 181.548 207.233 182.515 207.233 184C207.233 184.176 207.225 184.299 207.207 184.501H208.736C208.771 184.264 208.789 184.044 208.789 183.851C208.789 181.609 207.102 180.054 204.649 180.054C201.863 180.054 200.044 181.899 199.464 185.283L199.112 187.296C199.042 187.683 198.989 188.236 198.989 188.702C198.989 191.523 200.633 193.272 203.287 193.272C205.766 193.272 207.69 191.726 207.928 189.493ZM214.212 193.167C216.506 193.167 218.053 191.831 218.475 189.467L218.712 188.14C218.773 187.744 218.8 187.384 218.8 187.12C218.8 184.835 217.271 183.297 214.88 183.297C212.709 183.297 211.101 184.712 210.705 186.988L210.477 188.307C210.415 188.667 210.389 189.036 210.389 189.396C210.389 191.629 211.918 193.167 214.212 193.167ZM214.854 184.615C216.348 184.615 217.332 185.617 217.332 187.111C217.332 187.366 217.314 187.656 217.279 187.92L217.06 189.159C216.752 190.891 215.776 191.849 214.335 191.849C212.832 191.849 211.848 190.847 211.848 189.326C211.848 189.054 211.874 188.772 211.927 188.43L212.138 187.226C212.428 185.591 213.438 184.615 214.854 184.615ZM220.971 193H222.465L223.458 187.366C223.757 185.714 224.891 184.659 226.297 184.659C227.545 184.659 228.327 185.459 228.327 186.672C228.327 186.927 228.292 187.278 228.23 187.647L227.281 193H228.775L229.716 187.63C229.821 186.979 229.856 186.646 229.856 186.32C229.856 184.51 228.67 183.288 226.851 183.288C225.488 183.288 224.39 183.982 223.897 185.099H223.801L224.082 183.464H222.649L220.971 193ZM236.501 180.906L236.053 183.49H233.504L233.293 184.765H235.833L234.866 190.003C234.813 190.293 234.787 190.557 234.787 190.768C234.787 192.253 235.815 193.044 237.723 193.044C238.197 193.044 239.472 193 239.7 192.956L239.911 191.69C239.674 191.717 238.733 191.743 238.145 191.743C236.896 191.743 236.316 191.321 236.316 190.442C236.316 190.311 236.325 190.17 236.36 189.994L237.327 184.765H241.177L241.396 183.49H237.529L237.978 180.906H236.501ZM251.592 190.539H250.115C249.904 191.321 248.929 191.884 247.804 191.884C246.23 191.884 245.281 190.838 245.439 189.247C245.439 189.212 245.492 188.685 245.51 188.623H252.022L252.128 187.858C252.137 187.779 252.216 187.164 252.216 187.059C252.444 184.896 250.924 183.288 248.647 183.288C246.301 183.288 244.64 184.694 244.288 186.953L244.104 188.148C244.007 188.79 243.972 189.15 243.972 189.502C243.972 191.778 245.396 193.176 247.725 193.176C249.685 193.176 251.346 192.051 251.592 190.539ZM248.533 184.571C250.027 184.571 250.95 185.608 250.774 187.076C250.774 187.129 250.73 187.454 250.73 187.489H245.659C245.668 187.463 245.765 186.918 245.773 186.9C246.046 185.45 247.101 184.571 248.533 184.571ZM254.352 193H255.846L256.839 187.366C257.138 185.714 258.271 184.659 259.678 184.659C260.926 184.659 261.708 185.459 261.708 186.672C261.708 186.927 261.673 187.278 261.611 187.647L260.662 193H262.156L263.097 187.63C263.202 186.979 263.237 186.646 263.237 186.32C263.237 184.51 262.051 183.288 260.231 183.288C258.869 183.288 257.771 183.982 257.278 185.099H257.182L257.463 183.464H256.03L254.352 193ZM269.882 180.906L269.434 183.49H266.885L266.674 184.765H269.214L268.247 190.003C268.194 190.293 268.168 190.557 268.168 190.768C268.168 192.253 269.196 193.044 271.104 193.044C271.578 193.044 272.853 193 273.081 192.956L273.292 191.69C273.055 191.717 272.114 191.743 271.525 191.743C270.277 191.743 269.697 191.321 269.697 190.442C269.697 190.311 269.706 190.17 269.741 189.994L270.708 184.765H274.558L274.777 183.49H270.91L271.358 180.906H269.882Z" fill="#666666"/>
<rect x="165.5" y="156.5" width="141" height="64" stroke="#666666"/>
<rect x="129.5" y="120.5" width="213" height="136" stroke="#666666" stroke-dasharray="2 2"/>
<rect x="93.5" y="84.5" width="285" height="208" stroke="#666666"/>
<rect x="57.5" y="48.5" width="357" height="280" stroke="#666666" stroke-dasharray="2 2"/>
<path d="M429.129 193L430.025 187.946H432.284C432.486 187.946 432.776 187.938 432.926 187.929L434.508 193H436.16L434.455 187.709C436.072 187.305 437.171 186.109 437.435 184.466C437.479 184.176 437.496 183.895 437.496 183.631C437.505 181.574 436.134 180.317 433.963 180.317H429.832L427.6 193H429.129ZM431.133 181.697H433.629C435.07 181.697 435.888 182.453 435.879 183.701C435.879 183.912 435.853 184.149 435.826 184.299C435.589 185.731 434.455 186.637 432.636 186.637H430.254L431.133 181.697ZM445.16 181.126C445.863 181.126 446.399 180.599 446.399 179.896C446.399 179.201 445.863 178.674 445.16 178.674C444.457 178.674 443.921 179.201 443.921 179.896C443.921 180.599 444.457 181.126 445.16 181.126ZM446.856 193L447.067 191.761H443.903L445.38 183.464H440.66L440.458 184.703H443.692L442.436 191.761H439.166L438.955 193H446.856ZM453.281 196.577C455.76 196.577 457.254 195.329 457.676 192.938L459.337 183.464H457.843L457.509 185.389H457.403C457.122 184.062 456.041 183.306 454.45 183.306C452.429 183.306 450.917 184.738 450.521 187.032L450.337 188.104C450.275 188.456 450.223 189.019 450.223 189.405C450.223 191.471 451.62 192.965 453.536 192.965C454.846 192.965 455.962 192.279 456.393 191.233H456.498L456.217 192.833C455.909 194.494 454.978 195.329 453.404 195.329C452.095 195.329 451.11 194.67 451.093 193.791V193.677H449.616C449.616 193.686 449.616 193.791 449.616 193.835C449.616 195.426 451.154 196.577 453.281 196.577ZM454.67 184.668C456.103 184.668 457.096 185.688 457.096 187.146C457.096 187.349 457.069 187.639 457.017 187.938L456.823 189.062C456.551 190.574 455.452 191.603 454.116 191.603C452.657 191.603 451.743 190.645 451.743 189.098C451.743 188.878 451.787 188.43 451.84 188.122L451.989 187.287C452.288 185.67 453.316 184.668 454.67 184.668ZM461.033 193H462.527L463.521 187.366C463.819 185.714 464.953 184.668 466.368 184.668C467.607 184.668 468.416 185.477 468.416 186.681C468.416 186.936 468.372 187.287 468.311 187.647L467.361 193H468.855L469.796 187.621C469.901 186.988 469.945 186.628 469.945 186.32C469.945 184.501 468.724 183.297 466.922 183.297C465.577 183.297 464.47 183.982 463.96 185.099H463.863L464.812 179.72H463.38L461.033 193ZM476.572 180.906L476.124 183.49H473.575L473.364 184.765H475.904L474.938 190.003C474.885 190.293 474.858 190.557 474.858 190.768C474.858 192.253 475.887 193.044 477.794 193.044C478.269 193.044 479.543 193 479.771 192.956L479.982 191.69C479.745 191.717 478.805 191.743 478.216 191.743C476.968 191.743 476.388 191.321 476.388 190.442C476.388 190.311 476.396 190.17 476.432 189.994L477.398 184.765H481.248L481.468 183.49H477.601L478.049 180.906H476.572Z" fill="#AAAAAA"/>
<path d="M225.646 37L227.65 25.7412H231.474L231.711 24.3174H222.5L222.271 25.7412H226.104L224.1 37H225.646ZM236.466 37.167C238.76 37.167 240.307 35.8311 240.729 33.4668L240.966 32.1396C241.027 31.7441 241.054 31.3838 241.054 31.1201C241.054 28.835 239.524 27.2969 237.134 27.2969C234.963 27.2969 233.354 28.7119 232.959 30.9883L232.73 32.3066C232.669 32.667 232.643 33.0361 232.643 33.3965C232.643 35.6289 234.172 37.167 236.466 37.167ZM237.107 28.6152C238.602 28.6152 239.586 29.6172 239.586 31.1113C239.586 31.3662 239.568 31.6562 239.533 31.9199L239.313 33.1592C239.006 34.8906 238.03 35.8486 236.589 35.8486C235.086 35.8486 234.102 34.8467 234.102 33.3262C234.102 33.0537 234.128 32.7725 234.181 32.4297L234.392 31.2256C234.682 29.5908 235.692 28.6152 237.107 28.6152ZM248.05 37.1582C250.089 37.1582 251.565 35.7959 251.97 33.5107L252.242 31.9814C252.304 31.6211 252.348 31.1289 252.348 30.7686C252.348 28.6064 251.029 27.3057 249.017 27.3057C247.751 27.3057 246.617 28.0176 246.187 29.1426H246.081L246.38 27.4639H244.912L242.671 40.2168H244.165L245.07 35.084H245.141C245.36 36.2881 246.547 37.1582 248.05 37.1582ZM247.856 35.7607C246.415 35.7607 245.431 34.7412 245.431 33.3262C245.431 33.0537 245.439 32.8604 245.466 32.6934L245.721 31.2783C246.011 29.6436 247.109 28.6943 248.612 28.6943C249.975 28.6943 250.818 29.6172 250.818 31.0498C250.818 31.3223 250.783 31.6914 250.748 31.9199L250.528 33.1943C250.229 34.8818 249.298 35.7607 247.856 35.7607Z" fill="#AAAAAA"/>
<path d="M203.771 353H208.324C211.216 353 213.044 351.559 213.062 349.282C213.07 347.806 212.191 346.707 210.794 346.443L210.812 346.347C212.323 346.039 213.396 344.747 213.413 343.209C213.422 341.407 212.13 340.317 209.968 340.317H206.004L203.771 353ZM207.322 341.653H209.555C211.022 341.653 211.796 342.286 211.787 343.473C211.778 344.853 210.645 345.793 208.966 345.793H206.575L207.322 341.653ZM205.529 351.655L206.355 347.085H208.799C210.521 347.085 211.471 347.823 211.471 349.168C211.471 350.68 210.205 351.655 208.254 351.655H205.529ZM219.275 353.167C221.569 353.167 223.116 351.831 223.538 349.467L223.775 348.14C223.837 347.744 223.863 347.384 223.863 347.12C223.863 344.835 222.334 343.297 219.943 343.297C217.772 343.297 216.164 344.712 215.769 346.988L215.54 348.307C215.479 348.667 215.452 349.036 215.452 349.396C215.452 351.629 216.981 353.167 219.275 353.167ZM219.917 344.615C221.411 344.615 222.396 345.617 222.396 347.111C222.396 347.366 222.378 347.656 222.343 347.92L222.123 349.159C221.815 350.891 220.84 351.849 219.398 351.849C217.896 351.849 216.911 350.847 216.911 349.326C216.911 349.054 216.938 348.772 216.99 348.43L217.201 347.226C217.491 345.591 218.502 344.615 219.917 344.615ZM230.438 340.906L229.989 343.49H227.44L227.229 344.765H229.77L228.803 350.003C228.75 350.293 228.724 350.557 228.724 350.768C228.724 352.253 229.752 353.044 231.659 353.044C232.134 353.044 233.408 353 233.637 352.956L233.848 351.69C233.61 351.717 232.67 351.743 232.081 351.743C230.833 351.743 230.253 351.321 230.253 350.442C230.253 350.311 230.262 350.17 230.297 349.994L231.264 344.765H235.113L235.333 343.49H231.466L231.914 340.906H230.438ZM241.564 340.906L241.116 343.49H238.567L238.356 344.765H240.896L239.93 350.003C239.877 350.293 239.851 350.557 239.851 350.768C239.851 352.253 240.879 353.044 242.786 353.044C243.261 353.044 244.535 353 244.764 352.956L244.975 351.69C244.737 351.717 243.797 351.743 243.208 351.743C241.96 351.743 241.38 351.321 241.38 350.442C241.38 350.311 241.389 350.17 241.424 349.994L242.391 344.765H246.24L246.46 343.49H242.593L243.041 340.906H241.564ZM252.656 353.167C254.95 353.167 256.497 351.831 256.919 349.467L257.156 348.14C257.218 347.744 257.244 347.384 257.244 347.12C257.244 344.835 255.715 343.297 253.324 343.297C251.153 343.297 249.545 344.712 249.149 346.988L248.921 348.307C248.859 348.667 248.833 349.036 248.833 349.396C248.833 351.629 250.362 353.167 252.656 353.167ZM253.298 344.615C254.792 344.615 255.776 345.617 255.776 347.111C255.776 347.366 255.759 347.656 255.724 347.92L255.504 349.159C255.196 350.891 254.221 351.849 252.779 351.849C251.276 351.849 250.292 350.847 250.292 349.326C250.292 349.054 250.318 348.772 250.371 348.43L250.582 347.226C250.872 345.591 251.883 344.615 253.298 344.615ZM261.199 346.558C261.419 345.362 262.069 344.65 262.913 344.65C263.555 344.65 263.889 345.037 263.889 345.775C263.889 345.986 263.871 346.197 263.827 346.426L262.667 353H264.003L265.137 346.549C265.356 345.354 265.998 344.65 266.824 344.65C267.457 344.65 267.791 345.037 267.791 345.775C267.791 345.986 267.765 346.197 267.729 346.435L266.569 353H267.914L269.118 346.136C269.171 345.819 269.206 345.512 269.206 345.248C269.206 344.018 268.529 343.288 267.36 343.288C266.473 343.288 265.778 343.815 265.356 344.809H265.198C265.137 343.877 264.53 343.288 263.607 343.288C262.755 343.288 262.043 343.842 261.647 344.809H261.489L261.718 343.464H260.399L258.721 353H260.065L261.199 346.558Z" fill="#AAAAAA"/>
<path d="M11.5996 191.559H5.58789L7.57422 180.317H6.03613L3.80371 193H11.3535L11.5996 191.559ZM22.6475 190.539H21.1709C20.96 191.321 19.9844 191.884 18.8594 191.884C17.2861 191.884 16.3369 190.838 16.4951 189.247C16.4951 189.212 16.5479 188.685 16.5654 188.623H23.0781L23.1836 187.858C23.1924 187.779 23.2715 187.164 23.2715 187.059C23.5 184.896 21.9795 183.288 19.7031 183.288C17.3564 183.288 15.6953 184.694 15.3438 186.953L15.1592 188.148C15.0625 188.79 15.0273 189.15 15.0273 189.502C15.0273 191.778 16.4512 193.176 18.7803 193.176C20.7402 193.176 22.4014 192.051 22.6475 190.539ZM19.5889 184.571C21.083 184.571 22.0059 185.608 21.8301 187.076C21.8301 187.129 21.7861 187.454 21.7861 187.489H16.7148C16.7236 187.463 16.8203 186.918 16.8291 186.9C17.1016 185.45 18.1562 184.571 19.5889 184.571ZM27.9033 193H29.3975L30.8564 184.765H35.0488L35.2598 183.49H31.0586L31.2344 182.506C31.4102 181.504 32.1836 180.994 33.5283 180.994C34.0293 180.994 35.2773 181.091 35.6992 181.196L35.9102 179.948C35.4443 179.825 34.2402 179.746 33.7129 179.746C31.3662 179.746 30.0742 180.634 29.7578 182.532L29.582 183.49H27.0244L26.8047 184.765H29.3623L27.9033 193ZM40.9375 180.906L40.4893 183.49H37.9404L37.7295 184.765H40.2695L39.3027 190.003C39.25 190.293 39.2236 190.557 39.2236 190.768C39.2236 192.253 40.252 193.044 42.1592 193.044C42.6338 193.044 43.9082 193 44.1367 192.956L44.3477 191.69C44.1104 191.717 43.1699 191.743 42.5811 191.743C41.333 191.743 40.7529 191.321 40.7529 190.442C40.7529 190.311 40.7617 190.17 40.7969 189.994L41.7637 184.765H45.6133L45.833 183.49H41.9658L42.4141 180.906H40.9375Z" fill="#AAAAAA"/>
</svg>
