<svg width="796" height="295" viewBox="0 0 796 295" fill="none" xmlns="http://www.w3.org/2000/svg">
<path d="M258.465 238.317L256.232 251H257.788L258.597 246.447H261.137C262.186 246.447 263.085 246.26 263.835 245.885C264.591 245.504 265.168 244.962 265.566 244.259C265.971 243.556 266.173 242.718 266.173 241.745C266.173 240.696 265.836 239.864 265.162 239.249C264.494 238.628 263.592 238.317 262.455 238.317H258.465ZM259.792 239.697H262.174C262.947 239.697 263.548 239.888 263.976 240.269C264.409 240.649 264.626 241.183 264.626 241.868C264.626 242.87 264.324 243.655 263.721 244.224C263.123 244.786 262.291 245.067 261.225 245.067H258.834L259.792 239.697ZM271.561 246.711C271.777 245.504 272.229 244.558 272.914 243.872C273.6 243.187 274.44 242.844 275.437 242.844C276.093 242.844 276.608 242.952 276.983 243.169L277.265 241.508C276.896 241.314 276.427 241.218 275.858 241.218C274.997 241.218 274.256 241.446 273.635 241.903C273.02 242.36 272.554 243.025 272.237 243.898H272.044L272.466 241.464H268.906L268.704 242.659H270.813L269.346 251H270.796L271.561 246.711ZM273.758 251L273.969 249.805H267.632L267.421 251H273.758ZM282.775 251.167C283.924 251.167 284.867 250.845 285.605 250.2C286.35 249.556 286.827 248.645 287.038 247.467L287.275 246.14C287.305 245.94 287.325 245.753 287.337 245.577C287.354 245.401 287.363 245.249 287.363 245.12C287.363 244.358 287.202 243.69 286.88 243.116C286.558 242.542 286.104 242.097 285.518 241.78C284.932 241.458 284.24 241.297 283.443 241.297C282.359 241.297 281.442 241.628 280.692 242.29C279.942 242.946 279.468 243.846 279.269 244.988L279.04 246.307C279.011 246.488 278.987 246.67 278.97 246.852C278.958 247.033 278.952 247.215 278.952 247.396C278.952 248.141 279.11 248.797 279.427 249.365C279.749 249.928 280.197 250.37 280.771 250.692C281.346 251.009 282.014 251.167 282.775 251.167ZM283.417 242.615C284.161 242.615 284.759 242.844 285.21 243.301C285.667 243.758 285.896 244.361 285.896 245.111C285.896 245.24 285.89 245.375 285.878 245.516C285.872 245.656 285.86 245.791 285.843 245.92L285.623 247.159C285.465 248.021 285.151 248.686 284.683 249.154C284.214 249.617 283.619 249.849 282.898 249.849C282.148 249.849 281.545 249.62 281.088 249.163C280.637 248.7 280.411 248.088 280.411 247.326C280.411 247.191 280.417 247.054 280.429 246.913C280.44 246.767 280.461 246.605 280.49 246.43L280.701 245.226C280.848 244.411 281.161 243.772 281.642 243.31C282.122 242.847 282.714 242.615 283.417 242.615ZM294.359 251.158C295.379 251.158 296.237 250.836 296.935 250.191C297.632 249.547 298.08 248.653 298.279 247.511L298.552 245.981C298.587 245.8 298.613 245.598 298.631 245.375C298.648 245.146 298.657 244.944 298.657 244.769C298.657 244.048 298.52 243.43 298.244 242.914C297.969 242.398 297.579 242.003 297.075 241.728C296.577 241.446 295.994 241.306 295.326 241.306C294.699 241.306 294.125 241.473 293.604 241.807C293.082 242.135 292.713 242.58 292.496 243.143H292.391L292.689 241.464H291.222L288.98 254.217H290.475L291.38 249.084H291.45C291.556 249.688 291.878 250.186 292.417 250.578C292.962 250.965 293.609 251.158 294.359 251.158ZM294.166 249.761C293.451 249.761 292.868 249.532 292.417 249.075C291.966 248.618 291.74 248.035 291.74 247.326C291.74 247.191 291.743 247.074 291.749 246.975C291.755 246.875 291.764 246.781 291.775 246.693L292.03 245.278C292.177 244.464 292.508 243.831 293.023 243.38C293.539 242.923 294.172 242.694 294.922 242.694C295.602 242.694 296.138 242.908 296.53 243.336C296.929 243.764 297.128 244.335 297.128 245.05C297.128 245.185 297.119 245.334 297.102 245.498C297.09 245.662 297.075 245.803 297.058 245.92L296.838 247.194C296.686 248.038 296.381 248.677 295.924 249.11C295.473 249.544 294.887 249.761 294.166 249.761ZM305.97 242.571C306.72 242.571 307.303 242.806 307.719 243.274C308.135 243.743 308.299 244.344 308.211 245.076C308.205 245.146 308.196 245.217 308.185 245.287C308.179 245.357 308.173 245.425 308.167 245.489H303.096C303.113 245.39 303.131 245.29 303.148 245.19C303.172 245.091 303.192 244.994 303.21 244.9C303.345 244.174 303.658 243.605 304.15 243.195C304.643 242.779 305.249 242.571 305.97 242.571ZM309.028 248.539H307.552C307.446 248.926 307.174 249.248 306.734 249.506C306.301 249.758 305.803 249.884 305.24 249.884C304.455 249.884 303.843 249.644 303.403 249.163C302.97 248.683 302.794 248.044 302.876 247.247C302.882 247.153 302.891 247.054 302.902 246.948C302.914 246.837 302.929 246.729 302.946 246.623H309.459L309.564 245.858C309.582 245.729 309.597 245.601 309.608 245.472C309.626 245.337 309.641 245.199 309.652 245.059C309.729 244.338 309.623 243.693 309.336 243.125C309.055 242.557 308.633 242.108 308.07 241.78C307.508 241.452 306.846 241.288 306.084 241.288C305.305 241.288 304.607 241.438 303.992 241.736C303.377 242.029 302.876 242.451 302.489 243.002C302.103 243.547 301.848 244.197 301.725 244.953L301.54 246.148C301.493 246.471 301.458 246.734 301.435 246.939C301.417 247.139 301.408 247.326 301.408 247.502C301.408 248.639 301.742 249.535 302.41 250.191C303.078 250.848 303.995 251.176 305.161 251.176C305.817 251.176 306.424 251.062 306.98 250.833C307.537 250.604 307.997 250.291 308.36 249.893C308.729 249.494 308.952 249.043 309.028 248.539ZM316.068 246.711C316.285 245.504 316.736 244.558 317.422 243.872C318.107 243.187 318.948 242.844 319.944 242.844C320.601 242.844 321.116 242.952 321.491 243.169L321.772 241.508C321.403 241.314 320.935 241.218 320.366 241.218C319.505 241.218 318.764 241.446 318.143 241.903C317.527 242.36 317.062 243.025 316.745 243.898H316.552L316.974 241.464H313.414L313.212 242.659H315.321L313.854 251H315.304L316.068 246.711ZM318.266 251L318.477 249.805H312.14L311.929 251H318.266ZM327.318 238.906L326.87 241.49H324.321L324.11 242.765H326.65L325.684 248.003C325.654 248.149 325.634 248.287 325.622 248.416C325.61 248.539 325.604 248.656 325.604 248.768C325.604 249.506 325.854 250.071 326.352 250.464C326.855 250.851 327.585 251.044 328.54 251.044C328.868 251.044 329.229 251.032 329.621 251.009C330.014 250.991 330.312 250.974 330.518 250.956L330.729 249.69C330.541 249.708 330.289 249.723 329.973 249.734C329.656 249.74 329.319 249.743 328.962 249.743C327.743 249.743 327.134 249.31 327.134 248.442C327.134 248.372 327.137 248.302 327.143 248.231C327.148 248.155 327.16 248.076 327.178 247.994L328.145 242.765H331.994L332.214 241.49H328.347L328.795 238.906H327.318ZM334.815 254.393C335.396 254.393 335.885 254.308 336.283 254.138C336.688 253.968 337.068 253.663 337.426 253.224C337.783 252.784 338.179 252.16 338.612 251.352L343.947 241.464H342.277L338.226 249.444H338.111L336.828 241.464H335.281L337.109 251.062L336.846 251.58C336.629 251.973 336.427 252.277 336.239 252.494C336.058 252.717 335.861 252.872 335.65 252.96C335.445 253.048 335.202 253.092 334.921 253.092C334.804 253.092 334.687 253.086 334.569 253.074C334.452 253.068 334.373 253.062 334.332 253.057L334.112 254.366C334.171 254.372 334.273 254.378 334.42 254.384C334.572 254.39 334.704 254.393 334.815 254.393Z" fill="#AAAAAA"/>
<path d="M330.245 94.3174H326.94L324.708 107H328.312C330.093 107 331.502 106.555 332.539 105.664C333.576 104.773 334.25 103.438 334.561 101.656C334.596 101.439 334.634 101.226 334.675 101.015C334.716 100.804 334.751 100.59 334.78 100.373C334.81 100.191 334.83 99.9863 334.842 99.7578C334.854 99.5293 334.859 99.2979 334.859 99.0635C334.859 97.5342 334.461 96.3623 333.664 95.5479C332.873 94.7275 331.733 94.3174 330.245 94.3174ZM329.955 95.7324C331.062 95.7324 331.892 96.0225 332.442 96.6025C332.999 97.1826 333.277 98.0498 333.277 99.2041C333.277 99.4092 333.269 99.6172 333.251 99.8281C333.239 100.033 333.222 100.221 333.198 100.391C333.169 100.584 333.137 100.774 333.102 100.962C333.066 101.149 333.034 101.334 333.005 101.516C332.771 102.863 332.255 103.877 331.458 104.557C330.661 105.236 329.589 105.576 328.241 105.576H326.501L328.259 95.7324H329.955ZM341.398 98.5713C342.148 98.5713 342.731 98.8057 343.147 99.2744C343.563 99.7432 343.728 100.344 343.64 101.076C343.634 101.146 343.625 101.217 343.613 101.287C343.607 101.357 343.602 101.425 343.596 101.489H338.524C338.542 101.39 338.56 101.29 338.577 101.19C338.601 101.091 338.621 100.994 338.639 100.9C338.773 100.174 339.087 99.6055 339.579 99.1953C340.071 98.7793 340.678 98.5713 341.398 98.5713ZM344.457 104.539H342.98C342.875 104.926 342.603 105.248 342.163 105.506C341.729 105.758 341.231 105.884 340.669 105.884C339.884 105.884 339.271 105.644 338.832 105.163C338.398 104.683 338.223 104.044 338.305 103.247C338.311 103.153 338.319 103.054 338.331 102.948C338.343 102.837 338.357 102.729 338.375 102.623H344.888L344.993 101.858C345.011 101.729 345.025 101.601 345.037 101.472C345.055 101.337 345.069 101.199 345.081 101.059C345.157 100.338 345.052 99.6934 344.765 99.125C344.483 98.5566 344.062 98.1084 343.499 97.7803C342.937 97.4521 342.274 97.2881 341.513 97.2881C340.733 97.2881 340.036 97.4375 339.421 97.7363C338.806 98.0293 338.305 98.4512 337.918 99.002C337.531 99.5469 337.276 100.197 337.153 100.953L336.969 102.148C336.922 102.471 336.887 102.734 336.863 102.939C336.846 103.139 336.837 103.326 336.837 103.502C336.837 104.639 337.171 105.535 337.839 106.191C338.507 106.848 339.424 107.176 340.59 107.176C341.246 107.176 341.853 107.062 342.409 106.833C342.966 106.604 343.426 106.291 343.789 105.893C344.158 105.494 344.381 105.043 344.457 104.539ZM356.287 100.628C356.287 100.599 356.287 100.572 356.287 100.549C356.287 100.525 356.287 100.502 356.287 100.479C356.287 99.834 356.132 99.2744 355.821 98.7998C355.517 98.3193 355.086 97.9473 354.529 97.6836C353.979 97.4141 353.331 97.2793 352.587 97.2793C351.813 97.2793 351.122 97.4316 350.513 97.7363C349.909 98.0352 349.411 98.4688 349.019 99.0371C348.626 99.5996 348.359 100.279 348.219 101.076C348.189 101.223 348.163 101.363 348.14 101.498C348.122 101.627 348.102 101.753 348.078 101.876C348.061 101.993 348.043 102.104 348.025 102.21C348.008 102.315 347.993 102.412 347.981 102.5C347.958 102.705 347.938 102.893 347.92 103.062C347.908 103.232 347.902 103.391 347.902 103.537C347.902 104.287 348.055 104.935 348.359 105.479C348.67 106.024 349.112 106.446 349.687 106.745C350.267 107.038 350.952 107.185 351.743 107.185C352.417 107.185 353.026 107.064 353.571 106.824C354.116 106.578 354.573 106.235 354.942 105.796C355.312 105.351 355.563 104.829 355.698 104.231H354.213C354.049 104.735 353.75 105.131 353.316 105.418C352.889 105.699 352.385 105.84 351.805 105.84C351.037 105.84 350.442 105.623 350.021 105.189C349.604 104.756 349.396 104.135 349.396 103.326C349.396 103.162 349.408 102.975 349.432 102.764C349.455 102.553 349.481 102.359 349.511 102.184L349.616 101.604C349.979 99.6113 350.952 98.6152 352.534 98.6152C353.202 98.6152 353.747 98.7998 354.169 99.1689C354.591 99.5381 354.802 100.01 354.802 100.584C354.802 100.596 354.802 100.604 354.802 100.61C354.802 100.616 354.802 100.622 354.802 100.628H356.287ZM366.412 107L366.623 105.761H363.477L365.604 93.7197H360.884L360.673 94.959H363.907L361.982 105.761H358.722L358.511 107H366.412ZM372.784 107.158C373.411 107.158 373.977 107.023 374.48 106.754C374.984 106.479 375.354 106.104 375.588 105.629H375.676L375.438 107H376.862L377.829 101.498C377.888 101.217 377.929 100.994 377.952 100.83C377.976 100.66 377.99 100.517 377.996 100.399C378.008 100.276 378.014 100.147 378.014 100.013C378.014 99.21 377.712 98.5654 377.108 98.0791C376.505 97.5869 375.705 97.3408 374.709 97.3408C374.064 97.3408 373.473 97.4521 372.934 97.6748C372.395 97.8916 371.949 98.1934 371.598 98.5801C371.246 98.9668 371.021 99.4121 370.921 99.916H372.415C372.538 99.5352 372.799 99.2275 373.197 98.9932C373.596 98.7529 374.053 98.6328 374.568 98.6328C375.166 98.6328 375.641 98.7793 375.992 99.0723C376.344 99.3594 376.52 99.7461 376.52 100.232C376.52 100.326 376.514 100.42 376.502 100.514C376.49 100.602 376.473 100.719 376.449 100.865L376.361 101.349L373.988 101.366C372.67 101.378 371.659 101.65 370.956 102.184C370.253 102.717 369.904 103.481 369.91 104.478C369.916 105.005 370.039 105.471 370.279 105.875C370.525 106.279 370.862 106.596 371.29 106.824C371.724 107.047 372.222 107.158 372.784 107.158ZM373.303 105.849C372.734 105.849 372.283 105.705 371.949 105.418C371.615 105.131 371.451 104.747 371.457 104.267C371.463 103.716 371.683 103.288 372.116 102.983C372.556 102.679 373.177 102.523 373.979 102.518L376.168 102.509L375.957 103.634C375.881 104.062 375.714 104.442 375.456 104.776C375.198 105.104 374.882 105.365 374.507 105.559C374.138 105.752 373.736 105.849 373.303 105.849ZM384.878 102.711C385.095 101.504 385.546 100.558 386.231 99.8721C386.917 99.1865 387.758 98.8438 388.754 98.8438C389.41 98.8438 389.926 98.9521 390.301 99.1689L390.582 97.5078C390.213 97.3145 389.744 97.2178 389.176 97.2178C388.314 97.2178 387.573 97.4463 386.952 97.9033C386.337 98.3604 385.871 99.0254 385.555 99.8984H385.361L385.783 97.4639H382.224L382.021 98.6592H384.131L382.663 107H384.113L384.878 102.711ZM387.075 107L387.286 105.805H380.949L380.738 107H387.075ZM395.038 107.158C395.665 107.158 396.23 107.023 396.734 106.754C397.238 106.479 397.607 106.104 397.842 105.629H397.93L397.692 107H399.116L400.083 101.498C400.142 101.217 400.183 100.994 400.206 100.83C400.229 100.66 400.244 100.517 400.25 100.399C400.262 100.276 400.268 100.147 400.268 100.013C400.268 99.21 399.966 98.5654 399.362 98.0791C398.759 97.5869 397.959 97.3408 396.963 97.3408C396.318 97.3408 395.727 97.4521 395.188 97.6748C394.648 97.8916 394.203 98.1934 393.852 98.5801C393.5 98.9668 393.274 99.4121 393.175 99.916H394.669C394.792 99.5352 395.053 99.2275 395.451 98.9932C395.85 98.7529 396.307 98.6328 396.822 98.6328C397.42 98.6328 397.895 98.7793 398.246 99.0723C398.598 99.3594 398.773 99.7461 398.773 100.232C398.773 100.326 398.768 100.42 398.756 100.514C398.744 100.602 398.727 100.719 398.703 100.865L398.615 101.349L396.242 101.366C394.924 101.378 393.913 101.65 393.21 102.184C392.507 102.717 392.158 103.481 392.164 104.478C392.17 105.005 392.293 105.471 392.533 105.875C392.779 106.279 393.116 106.596 393.544 106.824C393.978 107.047 394.476 107.158 395.038 107.158ZM395.557 105.849C394.988 105.849 394.537 105.705 394.203 105.418C393.869 105.131 393.705 104.747 393.711 104.267C393.717 103.716 393.937 103.288 394.37 102.983C394.81 102.679 395.431 102.523 396.233 102.518L398.422 102.509L398.211 103.634C398.135 104.062 397.968 104.442 397.71 104.776C397.452 105.104 397.136 105.365 396.761 105.559C396.392 105.752 395.99 105.849 395.557 105.849ZM407.255 94.9062L406.807 97.4902H404.258L404.047 98.7646H406.587L405.62 104.003C405.591 104.149 405.57 104.287 405.559 104.416C405.547 104.539 405.541 104.656 405.541 104.768C405.541 105.506 405.79 106.071 406.288 106.464C406.792 106.851 407.521 107.044 408.477 107.044C408.805 107.044 409.165 107.032 409.558 107.009C409.95 106.991 410.249 106.974 410.454 106.956L410.665 105.69C410.478 105.708 410.226 105.723 409.909 105.734C409.593 105.74 409.256 105.743 408.898 105.743C407.68 105.743 407.07 105.31 407.07 104.442C407.07 104.372 407.073 104.302 407.079 104.231C407.085 104.155 407.097 104.076 407.114 103.994L408.081 98.7646H411.931L412.15 97.4902H408.283L408.731 94.9062H407.255ZM420.351 95.126C420.702 95.126 420.995 95.0088 421.229 94.7744C421.47 94.54 421.59 94.2471 421.59 93.8955C421.59 93.5498 421.47 93.2598 421.229 93.0254C420.995 92.791 420.702 92.6738 420.351 92.6738C419.999 92.6738 419.703 92.791 419.463 93.0254C419.229 93.2598 419.111 93.5498 419.111 93.8955C419.111 94.2471 419.229 94.54 419.463 94.7744C419.703 95.0088 419.999 95.126 420.351 95.126ZM422.047 107L422.258 105.761H419.094L420.57 97.4639H415.851L415.648 98.7031H418.883L417.626 105.761H414.356L414.146 107H422.047ZM429.474 107.167C430.622 107.167 431.565 106.845 432.304 106.2C433.048 105.556 433.525 104.645 433.736 103.467L433.974 102.14C434.003 101.94 434.023 101.753 434.035 101.577C434.053 101.401 434.062 101.249 434.062 101.12C434.062 100.358 433.9 99.6904 433.578 99.1162C433.256 98.542 432.802 98.0967 432.216 97.7803C431.63 97.458 430.938 97.2969 430.142 97.2969C429.058 97.2969 428.141 97.6279 427.391 98.29C426.641 98.9463 426.166 99.8457 425.967 100.988L425.738 102.307C425.709 102.488 425.686 102.67 425.668 102.852C425.656 103.033 425.65 103.215 425.65 103.396C425.65 104.141 425.809 104.797 426.125 105.365C426.447 105.928 426.896 106.37 427.47 106.692C428.044 107.009 428.712 107.167 429.474 107.167ZM430.115 98.6152C430.859 98.6152 431.457 98.8438 431.908 99.3008C432.365 99.7578 432.594 100.361 432.594 101.111C432.594 101.24 432.588 101.375 432.576 101.516C432.57 101.656 432.559 101.791 432.541 101.92L432.321 103.159C432.163 104.021 431.85 104.686 431.381 105.154C430.912 105.617 430.317 105.849 429.597 105.849C428.847 105.849 428.243 105.62 427.786 105.163C427.335 104.7 427.109 104.088 427.109 103.326C427.109 103.191 427.115 103.054 427.127 102.913C427.139 102.767 427.159 102.605 427.188 102.43L427.399 101.226C427.546 100.411 427.859 99.7725 428.34 99.3096C428.82 98.8467 429.412 98.6152 430.115 98.6152ZM436.232 107H437.727L438.72 101.366C438.866 100.54 439.2 99.8838 439.722 99.3975C440.243 98.9053 440.855 98.6592 441.559 98.6592C442.18 98.6592 442.672 98.8438 443.035 99.2129C443.404 99.5762 443.589 100.062 443.589 100.672C443.589 100.795 443.58 100.941 443.562 101.111C443.545 101.281 443.521 101.46 443.492 101.647L442.543 107H444.037L444.978 101.63C445.03 101.302 445.065 101.041 445.083 100.848C445.106 100.654 445.118 100.479 445.118 100.32C445.118 99.418 444.843 98.6885 444.292 98.1318C443.747 97.5693 443.021 97.2881 442.112 97.2881C441.433 97.2881 440.832 97.4521 440.311 97.7803C439.789 98.1025 439.405 98.542 439.159 99.0986H439.062L439.344 97.4639H437.911L436.232 107Z" fill="#AAAAAA"/>
<path d="M322.379 45.6973H324.875C325.596 45.6973 326.152 45.876 326.545 46.2334C326.938 46.585 327.131 47.0742 327.125 47.7012C327.125 47.8066 327.119 47.915 327.107 48.0264C327.096 48.1318 327.084 48.2227 327.072 48.2988C326.955 49.0195 326.621 49.5908 326.07 50.0127C325.52 50.4287 324.79 50.6367 323.882 50.6367H321.5L322.379 45.6973ZM320.375 57L321.271 51.9463H323.53C323.647 51.9463 323.759 51.9463 323.864 51.9463C323.976 51.9404 324.078 51.9346 324.172 51.9287L325.754 57H327.406L325.701 51.709C326.516 51.5039 327.184 51.1172 327.705 50.5488C328.227 49.9805 328.552 49.2861 328.681 48.4658C328.722 48.1904 328.742 47.9121 328.742 47.6309C328.748 46.9453 328.607 46.3535 328.32 45.8555C328.033 45.3574 327.623 44.9766 327.09 44.7129C326.562 44.4492 325.936 44.3174 325.209 44.3174H321.078L318.846 57H320.375ZM339.518 47.4639H338.023L337.03 53.0977C336.884 53.9238 336.55 54.583 336.028 55.0752C335.507 55.5615 334.895 55.8047 334.191 55.8047C333.57 55.8047 333.075 55.623 332.706 55.2598C332.343 54.8906 332.161 54.4014 332.161 53.792C332.161 53.6689 332.17 53.5225 332.188 53.3525C332.205 53.1826 332.229 53.0039 332.258 52.8164L333.207 47.4639H331.713L330.772 52.834C330.72 53.1621 330.682 53.4229 330.658 53.6162C330.641 53.8096 330.632 53.9854 330.632 54.1436C330.632 55.0459 330.904 55.7783 331.449 56.3408C332 56.8975 332.729 57.1758 333.638 57.1758C334.317 57.1758 334.918 57.0146 335.439 56.6924C335.961 56.3643 336.345 55.9219 336.591 55.3652H336.688L336.406 57H337.839L339.518 47.4639ZM349.229 57L349.44 55.7607H346.294L348.421 43.7197H343.701L343.49 44.959H346.725L344.8 55.7607H341.539L341.328 57H349.229ZM357.597 48.5713C358.347 48.5713 358.93 48.8057 359.346 49.2744C359.762 49.7432 359.926 50.3438 359.838 51.0762C359.832 51.1465 359.823 51.2168 359.812 51.2871C359.806 51.3574 359.8 51.4248 359.794 51.4893H354.723C354.74 51.3896 354.758 51.29 354.775 51.1904C354.799 51.0908 354.819 50.9941 354.837 50.9004C354.972 50.1738 355.285 49.6055 355.777 49.1953C356.27 48.7793 356.876 48.5713 357.597 48.5713ZM360.655 54.5391H359.179C359.073 54.9258 358.801 55.248 358.361 55.5059C357.928 55.7578 357.43 55.8838 356.867 55.8838C356.082 55.8838 355.47 55.6436 355.03 55.1631C354.597 54.6826 354.421 54.0439 354.503 53.2471C354.509 53.1533 354.518 53.0537 354.529 52.9482C354.541 52.8369 354.556 52.7285 354.573 52.623H361.086L361.191 51.8584C361.209 51.7295 361.224 51.6006 361.235 51.4717C361.253 51.3369 361.268 51.1992 361.279 51.0586C361.355 50.3379 361.25 49.6934 360.963 49.125C360.682 48.5566 360.26 48.1084 359.697 47.7803C359.135 47.4521 358.473 47.2881 357.711 47.2881C356.932 47.2881 356.234 47.4375 355.619 47.7363C355.004 48.0293 354.503 48.4512 354.116 49.002C353.729 49.5469 353.475 50.1973 353.352 50.9531L353.167 52.1484C353.12 52.4707 353.085 52.7344 353.062 52.9395C353.044 53.1387 353.035 53.3262 353.035 53.502C353.035 54.6387 353.369 55.5352 354.037 56.1914C354.705 56.8477 355.622 57.1758 356.788 57.1758C357.444 57.1758 358.051 57.0615 358.607 56.833C359.164 56.6045 359.624 56.291 359.987 55.8926C360.356 55.4941 360.579 55.043 360.655 54.5391Z" fill="#AAAAAA"/>
<path d="M455.054 249.137H455.01L453.577 238.317H451.995L453.92 251H455.572L461.962 238.317H460.345L455.054 249.137ZM465.284 251.158C465.911 251.158 466.477 251.023 466.98 250.754C467.484 250.479 467.854 250.104 468.088 249.629H468.176L467.938 251H469.362L470.329 245.498C470.388 245.217 470.429 244.994 470.452 244.83C470.476 244.66 470.49 244.517 470.496 244.399C470.508 244.276 470.514 244.147 470.514 244.013C470.514 243.21 470.212 242.565 469.608 242.079C469.005 241.587 468.205 241.341 467.209 241.341C466.564 241.341 465.973 241.452 465.434 241.675C464.895 241.892 464.449 242.193 464.098 242.58C463.746 242.967 463.521 243.412 463.421 243.916H464.915C465.038 243.535 465.299 243.228 465.697 242.993C466.096 242.753 466.553 242.633 467.068 242.633C467.666 242.633 468.141 242.779 468.492 243.072C468.844 243.359 469.02 243.746 469.02 244.232C469.02 244.326 469.014 244.42 469.002 244.514C468.99 244.602 468.973 244.719 468.949 244.865L468.861 245.349L466.488 245.366C465.17 245.378 464.159 245.65 463.456 246.184C462.753 246.717 462.404 247.481 462.41 248.478C462.416 249.005 462.539 249.471 462.779 249.875C463.025 250.279 463.362 250.596 463.79 250.824C464.224 251.047 464.722 251.158 465.284 251.158ZM465.803 249.849C465.234 249.849 464.783 249.705 464.449 249.418C464.115 249.131 463.951 248.747 463.957 248.267C463.963 247.716 464.183 247.288 464.616 246.983C465.056 246.679 465.677 246.523 466.479 246.518L468.668 246.509L468.457 247.634C468.381 248.062 468.214 248.442 467.956 248.776C467.698 249.104 467.382 249.365 467.007 249.559C466.638 249.752 466.236 249.849 465.803 249.849ZM481.166 251L481.377 249.761H478.23L480.357 237.72H475.638L475.427 238.959H478.661L476.736 249.761H473.476L473.265 251H481.166ZM493.708 241.464H492.214L491.221 247.098C491.074 247.924 490.74 248.583 490.219 249.075C489.697 249.562 489.085 249.805 488.382 249.805C487.761 249.805 487.266 249.623 486.896 249.26C486.533 248.891 486.352 248.401 486.352 247.792C486.352 247.669 486.36 247.522 486.378 247.353C486.396 247.183 486.419 247.004 486.448 246.816L487.397 241.464H485.903L484.963 246.834C484.91 247.162 484.872 247.423 484.849 247.616C484.831 247.81 484.822 247.985 484.822 248.144C484.822 249.046 485.095 249.778 485.64 250.341C486.19 250.897 486.92 251.176 487.828 251.176C488.508 251.176 489.108 251.015 489.63 250.692C490.151 250.364 490.535 249.922 490.781 249.365H490.878L490.597 251H492.029L493.708 241.464ZM500.66 242.571C501.41 242.571 501.993 242.806 502.409 243.274C502.825 243.743 502.989 244.344 502.901 245.076C502.896 245.146 502.887 245.217 502.875 245.287C502.869 245.357 502.863 245.425 502.857 245.489H497.786C497.804 245.39 497.821 245.29 497.839 245.19C497.862 245.091 497.883 244.994 497.9 244.9C498.035 244.174 498.349 243.605 498.841 243.195C499.333 242.779 499.939 242.571 500.66 242.571ZM503.719 248.539H502.242C502.137 248.926 501.864 249.248 501.425 249.506C500.991 249.758 500.493 249.884 499.931 249.884C499.146 249.884 498.533 249.644 498.094 249.163C497.66 248.683 497.484 248.044 497.566 247.247C497.572 247.153 497.581 247.054 497.593 246.948C497.604 246.837 497.619 246.729 497.637 246.623H504.149L504.255 245.858C504.272 245.729 504.287 245.601 504.299 245.472C504.316 245.337 504.331 245.199 504.343 245.059C504.419 244.338 504.313 243.693 504.026 243.125C503.745 242.557 503.323 242.108 502.761 241.78C502.198 241.452 501.536 241.288 500.774 241.288C499.995 241.288 499.298 241.438 498.683 241.736C498.067 242.029 497.566 242.451 497.18 243.002C496.793 243.547 496.538 244.197 496.415 244.953L496.23 246.148C496.184 246.471 496.148 246.734 496.125 246.939C496.107 247.139 496.099 247.326 496.099 247.502C496.099 248.639 496.433 249.535 497.101 250.191C497.769 250.848 498.686 251.176 499.852 251.176C500.508 251.176 501.114 251.062 501.671 250.833C502.228 250.604 502.688 250.291 503.051 249.893C503.42 249.494 503.643 249.043 503.719 248.539Z" fill="#AAAAAA"/>
<path d="M229 214V226H369V214" stroke="#AAAAAA"/>
<path d="M229 131V119H540V131" stroke="#AAAAAA"/>
<path d="M114 150L102 150L102 109L114 109" stroke="#AAAAAA"/>
<path d="M138 81V69H540V81" stroke="#AAAAAA"/>
<path d="M436 214V226H517V214" stroke="#AAAAAA"/>
<path d="M2.24121 132.37C2.22949 132.411 2.2207 132.464 2.21484 132.528C2.20898 132.593 2.20605 132.678 2.20605 132.783C2.20605 133.451 2.39941 134.049 2.78613 134.576C3.17285 135.098 3.7002 135.511 4.36816 135.815C5.03613 136.114 5.79492 136.264 6.64453 136.264C7.54102 136.264 8.32324 136.105 8.99121 135.789C9.65918 135.467 10.1777 135.016 10.5469 134.436C10.9219 133.855 11.1094 133.179 11.1094 132.405C11.1094 131.878 11.0098 131.418 10.8105 131.025C10.6113 130.627 10.2891 130.27 9.84375 129.953C9.4043 129.637 8.82129 129.341 8.09473 129.065L7.16309 128.714C6.39551 128.421 5.85059 128.11 5.52832 127.782C5.21191 127.454 5.05371 127.041 5.05371 126.543C5.05371 125.928 5.2998 125.427 5.79199 125.04C6.29004 124.653 6.92578 124.46 7.69922 124.46C8.43164 124.46 9.03223 124.656 9.50098 125.049C9.97559 125.436 10.2129 125.925 10.2129 126.517C10.2129 126.634 10.21 126.701 10.2041 126.719H11.7334C11.7451 126.684 11.751 126.631 11.751 126.561C11.7568 126.484 11.7598 126.42 11.7598 126.367C11.7598 125.723 11.5869 125.151 11.2412 124.653C10.8955 124.155 10.415 123.766 9.7998 123.484C9.19043 123.197 8.49023 123.054 7.69922 123.054C6.86133 123.054 6.12012 123.209 5.47559 123.52C4.83691 123.824 4.33887 124.249 3.98145 124.794C3.62402 125.339 3.44531 125.972 3.44531 126.692C3.44531 127.489 3.67969 128.157 4.14844 128.696C4.61719 129.235 5.37598 129.704 6.4248 130.103L7.25977 130.419C8.09766 130.735 8.68066 131.058 9.00879 131.386C9.34277 131.708 9.50977 132.121 9.50977 132.625C9.50977 133.281 9.24609 133.817 8.71875 134.233C8.19141 134.649 7.51172 134.857 6.67969 134.857C6.11719 134.857 5.61328 134.761 5.16797 134.567C4.72852 134.374 4.38281 134.11 4.13086 133.776C3.87891 133.437 3.75293 133.05 3.75293 132.616C3.75293 132.581 3.75293 132.546 3.75293 132.511C3.75879 132.476 3.76465 132.429 3.77051 132.37H2.24121ZM18.5889 127.571C19.3389 127.571 19.9219 127.806 20.3379 128.274C20.7539 128.743 20.918 129.344 20.8301 130.076C20.8242 130.146 20.8154 130.217 20.8037 130.287C20.7979 130.357 20.792 130.425 20.7861 130.489H15.7148C15.7324 130.39 15.75 130.29 15.7676 130.19C15.791 130.091 15.8115 129.994 15.8291 129.9C15.9639 129.174 16.2773 128.605 16.7695 128.195C17.2617 127.779 17.8682 127.571 18.5889 127.571ZM21.6475 133.539H20.1709C20.0654 133.926 19.793 134.248 19.3535 134.506C18.9199 134.758 18.4219 134.884 17.8594 134.884C17.0742 134.884 16.4619 134.644 16.0225 134.163C15.5889 133.683 15.4131 133.044 15.4951 132.247C15.501 132.153 15.5098 132.054 15.5215 131.948C15.5332 131.837 15.5479 131.729 15.5654 131.623H22.0781L22.1836 130.858C22.2012 130.729 22.2158 130.601 22.2275 130.472C22.2451 130.337 22.2598 130.199 22.2715 130.059C22.3477 129.338 22.2422 128.693 21.9551 128.125C21.6738 127.557 21.252 127.108 20.6895 126.78C20.127 126.452 19.4648 126.288 18.7031 126.288C17.9238 126.288 17.2266 126.438 16.6113 126.736C15.9961 127.029 15.4951 127.451 15.1084 128.002C14.7217 128.547 14.4668 129.197 14.3438 129.953L14.1592 131.148C14.1123 131.471 14.0771 131.734 14.0537 131.939C14.0361 132.139 14.0273 132.326 14.0273 132.502C14.0273 133.639 14.3613 134.535 15.0293 135.191C15.6973 135.848 16.6143 136.176 17.7803 136.176C18.4365 136.176 19.043 136.062 19.5996 135.833C20.1562 135.604 20.6162 135.291 20.9795 134.893C21.3486 134.494 21.5713 134.043 21.6475 133.539ZM32.4756 136L32.6865 134.761H29.54L31.667 122.72H26.9473L26.7363 123.959H29.9707L28.0459 134.761H24.7852L24.5742 136H32.4756ZM40.8428 127.571C41.5928 127.571 42.1758 127.806 42.5918 128.274C43.0078 128.743 43.1719 129.344 43.084 130.076C43.0781 130.146 43.0693 130.217 43.0576 130.287C43.0518 130.357 43.0459 130.425 43.04 130.489H37.9688C37.9863 130.39 38.0039 130.29 38.0215 130.19C38.0449 130.091 38.0654 129.994 38.083 129.9C38.2178 129.174 38.5312 128.605 39.0234 128.195C39.5156 127.779 40.1221 127.571 40.8428 127.571ZM43.9014 133.539H42.4248C42.3193 133.926 42.0469 134.248 41.6074 134.506C41.1738 134.758 40.6758 134.884 40.1133 134.884C39.3281 134.884 38.7158 134.644 38.2764 134.163C37.8428 133.683 37.667 133.044 37.749 132.247C37.7549 132.153 37.7637 132.054 37.7754 131.948C37.7871 131.837 37.8018 131.729 37.8193 131.623H44.332L44.4375 130.858C44.4551 130.729 44.4697 130.601 44.4814 130.472C44.499 130.337 44.5137 130.199 44.5254 130.059C44.6016 129.338 44.4961 128.693 44.209 128.125C43.9277 127.557 43.5059 127.108 42.9434 126.78C42.3809 126.452 41.7188 126.288 40.957 126.288C40.1777 126.288 39.4805 126.438 38.8652 126.736C38.25 127.029 37.749 127.451 37.3623 128.002C36.9756 128.547 36.7207 129.197 36.5977 129.953L36.4131 131.148C36.3662 131.471 36.3311 131.734 36.3076 131.939C36.29 132.139 36.2812 132.326 36.2812 132.502C36.2812 133.639 36.6152 134.535 37.2832 135.191C37.9512 135.848 38.8682 136.176 40.0342 136.176C40.6904 136.176 41.2969 136.062 41.8535 135.833C42.4102 135.604 42.8701 135.291 43.2334 134.893C43.6025 134.494 43.8252 134.043 43.9014 133.539ZM55.7314 129.628C55.7314 129.599 55.7314 129.572 55.7314 129.549C55.7314 129.525 55.7314 129.502 55.7314 129.479C55.7314 128.834 55.5762 128.274 55.2656 127.8C54.9609 127.319 54.5303 126.947 53.9736 126.684C53.4229 126.414 52.7754 126.279 52.0312 126.279C51.2578 126.279 50.5664 126.432 49.957 126.736C49.3535 127.035 48.8555 127.469 48.4629 128.037C48.0703 128.6 47.8037 129.279 47.6631 130.076C47.6338 130.223 47.6074 130.363 47.584 130.498C47.5664 130.627 47.5459 130.753 47.5225 130.876C47.5049 130.993 47.4873 131.104 47.4697 131.21C47.4521 131.315 47.4375 131.412 47.4258 131.5C47.4023 131.705 47.3818 131.893 47.3643 132.062C47.3525 132.232 47.3467 132.391 47.3467 132.537C47.3467 133.287 47.499 133.935 47.8037 134.479C48.1143 135.024 48.5566 135.446 49.1309 135.745C49.7109 136.038 50.3965 136.185 51.1875 136.185C51.8613 136.185 52.4707 136.064 53.0156 135.824C53.5605 135.578 54.0176 135.235 54.3867 134.796C54.7559 134.351 55.0078 133.829 55.1426 133.231H53.6572C53.4932 133.735 53.1943 134.131 52.7607 134.418C52.333 134.699 51.8291 134.84 51.249 134.84C50.4814 134.84 49.8867 134.623 49.4648 134.189C49.0488 133.756 48.8408 133.135 48.8408 132.326C48.8408 132.162 48.8525 131.975 48.876 131.764C48.8994 131.553 48.9258 131.359 48.9551 131.184L49.0605 130.604C49.4238 128.611 50.3965 127.615 51.9785 127.615C52.6465 127.615 53.1914 127.8 53.6133 128.169C54.0352 128.538 54.2461 129.01 54.2461 129.584C54.2461 129.596 54.2461 129.604 54.2461 129.61C54.2461 129.616 54.2461 129.622 54.2461 129.628H55.7314ZM62.1914 123.906L61.7432 126.49H59.1943L58.9834 127.765H61.5234L60.5566 133.003C60.5273 133.149 60.5068 133.287 60.4951 133.416C60.4834 133.539 60.4775 133.656 60.4775 133.768C60.4775 134.506 60.7266 135.071 61.2246 135.464C61.7285 135.851 62.458 136.044 63.4131 136.044C63.7412 136.044 64.1016 136.032 64.4941 136.009C64.8867 135.991 65.1855 135.974 65.3906 135.956L65.6016 134.69C65.4141 134.708 65.1621 134.723 64.8457 134.734C64.5293 134.74 64.1924 134.743 63.835 134.743C62.6162 134.743 62.0068 134.31 62.0068 133.442C62.0068 133.372 62.0098 133.302 62.0156 133.231C62.0215 133.155 62.0332 133.076 62.0508 132.994L63.0176 127.765H66.8672L67.0869 126.49H63.2197L63.668 123.906H62.1914ZM73.2832 136.167C74.4316 136.167 75.375 135.845 76.1133 135.2C76.8574 134.556 77.335 133.645 77.5459 132.467L77.7832 131.14C77.8125 130.94 77.833 130.753 77.8447 130.577C77.8623 130.401 77.8711 130.249 77.8711 130.12C77.8711 129.358 77.71 128.69 77.3877 128.116C77.0654 127.542 76.6113 127.097 76.0254 126.78C75.4395 126.458 74.748 126.297 73.9512 126.297C72.8672 126.297 71.9502 126.628 71.2002 127.29C70.4502 127.946 69.9756 128.846 69.7764 129.988L69.5479 131.307C69.5186 131.488 69.4951 131.67 69.4775 131.852C69.4658 132.033 69.46 132.215 69.46 132.396C69.46 133.141 69.6182 133.797 69.9346 134.365C70.2568 134.928 70.7051 135.37 71.2793 135.692C71.8535 136.009 72.5215 136.167 73.2832 136.167ZM73.9248 127.615C74.6689 127.615 75.2666 127.844 75.7178 128.301C76.1748 128.758 76.4033 129.361 76.4033 130.111C76.4033 130.24 76.3975 130.375 76.3857 130.516C76.3799 130.656 76.3682 130.791 76.3506 130.92L76.1309 132.159C75.9727 133.021 75.6592 133.686 75.1904 134.154C74.7217 134.617 74.127 134.849 73.4062 134.849C72.6562 134.849 72.0527 134.62 71.5957 134.163C71.1445 133.7 70.9189 133.088 70.9189 132.326C70.9189 132.191 70.9248 132.054 70.9365 131.913C70.9482 131.767 70.9688 131.605 70.998 131.43L71.209 130.226C71.3555 129.411 71.6689 128.772 72.1494 128.31C72.6299 127.847 73.2217 127.615 73.9248 127.615ZM84.3223 131.711C84.5391 130.504 84.9902 129.558 85.6758 128.872C86.3613 128.187 87.2021 127.844 88.1982 127.844C88.8545 127.844 89.3701 127.952 89.7451 128.169L90.0264 126.508C89.6572 126.314 89.1885 126.218 88.6201 126.218C87.7588 126.218 87.0176 126.446 86.3965 126.903C85.7812 127.36 85.3154 128.025 84.999 128.898H84.8057L85.2275 126.464H81.668L81.4658 127.659H83.5752L82.1074 136H83.5576L84.3223 131.711ZM86.5195 136L86.7305 134.805H80.3936L80.1826 136H86.5195Z" fill="#AAAAAA"/>
<path d="M150.43 116.148C146.797 116.148 144.148 117.648 142.812 120.461H142.391V116.57H138.453V150.578H142.508V138.062H142.953C144.055 140.852 146.75 142.422 150.43 142.422C156.312 142.422 160.156 138.18 160.156 131.664V126.93C160.156 120.391 156.312 116.148 150.43 116.148ZM149.281 119.805C153.477 119.805 156.148 122.805 156.148 127.492V131.148C156.148 135.836 153.477 138.859 149.281 138.859C145.086 138.859 142.414 135.859 142.414 131.148V127.492C142.414 122.805 145.086 119.805 149.281 119.805ZM217.32 145.211V142H214.766C211.25 142 210.57 141.18 210.57 137.102V130.844C210.57 127.562 208.109 125.383 203.352 125.289V124.914C208.109 124.797 210.57 122.617 210.57 119.336V113.078C210.57 109 211.25 108.18 214.766 108.18H217.32V104.969H214.133C208.438 104.969 206.633 106.773 206.633 112.562V117.812C206.633 121.445 204.523 123.531 199.039 122.969V127.211C204.523 126.648 206.633 128.758 206.633 132.367V137.617C206.633 143.406 208.438 145.211 214.133 145.211H217.32ZM139.695 241.211H142.883C148.578 241.211 150.383 239.406 150.383 233.617V228.367C150.383 224.758 152.492 222.648 157.977 223.211V218.969C152.492 219.531 150.383 217.445 150.383 213.812V208.562C150.383 202.773 148.578 200.969 142.883 200.969H139.695V204.18H142.25C145.766 204.18 146.445 205 146.445 209.078V215.336C146.445 218.617 148.906 220.797 153.664 220.914V221.289C148.906 221.383 146.445 223.562 146.445 226.844V233.102C146.445 237.18 145.766 238 142.25 238H139.695V241.211Z" fill="#FFA11F"/>
<path d="M248.445 172.492C247.789 167.266 243.945 164.078 238.32 164.078C231.406 164.078 227.375 168.32 227.375 175.609V178.938C227.375 186.227 231.406 190.469 238.32 190.469C243.945 190.469 247.812 187.305 248.445 182.125H244.508C244.016 185.031 241.531 186.883 238.25 186.883C233.82 186.883 231.359 183.883 231.359 178.422V176.125C231.359 170.664 233.82 167.641 238.25 167.641C241.531 167.641 244.016 169.516 244.508 172.492H248.445ZM267.523 190.469C274.25 190.469 278.539 186.086 278.539 179.219V175.375C278.539 168.508 274.25 164.125 267.523 164.125C260.797 164.125 256.508 168.508 256.508 175.375V179.219C256.508 186.086 260.797 190.469 267.523 190.469ZM267.523 167.641C271.883 167.641 274.602 170.734 274.602 175.727V178.844C274.602 183.859 271.883 186.93 267.523 186.93C263.164 186.93 260.445 183.859 260.445 178.844V175.727C260.445 170.734 263.164 167.641 267.523 167.641ZM308.305 190V186.695H299.914V154.586H287.305V157.891H295.93V186.695H287.234V190H308.305ZM326.867 190.469C333.594 190.469 337.883 186.086 337.883 179.219V175.375C337.883 168.508 333.594 164.125 326.867 164.125C320.141 164.125 315.852 168.508 315.852 175.375V179.219C315.852 186.086 320.141 190.469 326.867 190.469ZM326.867 167.641C331.227 167.641 333.945 170.734 333.945 175.727V178.844C333.945 183.859 331.227 186.93 326.867 186.93C322.508 186.93 319.789 183.859 319.789 178.844V175.727C319.789 170.734 322.508 167.641 326.867 167.641ZM355.531 178.609C355.531 172.141 358.859 168.25 364.484 168.25C365.867 168.25 367.508 168.531 368.68 168.953V164.477C367.836 164.125 366.453 163.914 365 163.914C360.102 163.914 356.938 166.352 356 171.062H355.484V164.57H345.992V167.758H351.641V186.812H346.508V190H363.406V186.812H355.531V178.609ZM386.211 172.141C388.531 172.141 390.453 170.172 390.453 167.805C390.453 165.438 388.531 163.469 386.211 163.469C383.891 163.469 381.969 165.438 381.969 167.805C381.969 170.172 383.891 172.141 386.211 172.141ZM386.211 190.141C388.531 190.141 390.453 188.195 390.453 185.805C390.453 183.438 388.531 181.492 386.211 181.492C383.891 181.492 381.969 183.438 381.969 185.805C381.969 188.195 383.891 190.141 386.211 190.141Z" fill="#2A94C0"/>
<path d="M444.547 178.609C444.547 172.141 447.875 168.25 453.5 168.25C454.883 168.25 456.523 168.531 457.695 168.953V164.477C456.852 164.125 455.469 163.914 454.016 163.914C449.117 163.914 445.953 166.352 445.016 171.062H444.5V164.57H435.008V167.758H440.656V186.812H435.523V190H452.422V186.812H444.547V178.609ZM482.094 183.438C481.391 185.664 479.023 187.023 475.812 187.023C471.477 187.023 468.711 184.023 468.711 179.359V178.328H486.031V175.844C486.031 168.484 482.141 164.102 475.531 164.102C469.062 164.102 464.773 168.508 464.773 175.211V179.031C464.773 186.273 468.828 190.469 475.812 190.469C481.156 190.469 485.188 187.633 485.961 183.438H482.094ZM475.508 167.523C479.609 167.523 482.094 170.453 482.094 175.305H468.711C468.711 170.43 471.266 167.523 475.508 167.523ZM503.305 190.422C506.938 190.422 509.609 188.922 510.922 186.109H511.367V190H515.281V154.586H511.227V168.508H510.805C509.703 165.719 506.984 164.148 503.305 164.148C497.422 164.148 493.578 168.391 493.578 174.906V179.641C493.578 186.18 497.422 190.422 503.305 190.422ZM504.477 186.789C500.281 186.789 497.586 183.766 497.586 179.078V175.422C497.586 170.734 500.281 167.734 504.477 167.734C508.648 167.734 511.344 170.734 511.344 175.422V179.078C511.344 183.789 508.648 186.789 504.477 186.789ZM534.57 172.141C536.891 172.141 538.812 170.172 538.812 167.805C538.812 165.438 536.891 163.469 534.57 163.469C532.25 163.469 530.328 165.438 530.328 167.805C530.328 170.172 532.25 172.141 534.57 172.141ZM532.531 197.805L536.938 182.547H531.664L528.758 197.805H532.531Z" fill="#74A800"/>
</svg>
